SplineFontDB: 3.0
FontName: Amatic
FullName: Amatic Bold
FamilyName: Amatic
Weight: Bold
Copyright: vernon adams 2011
Version: 001.001
ItalicAngle: 0
UnderlinePosition: -102
UnderlineWidth: 102
Ascent: 1638
Descent: 410
sfntRevision: 0x00010000
LayerCount: 2
Layer: 0 0 "Back"  1
Layer: 1 0 "Fore"  0
NeedsXUIDChange: 1
XUID: [1021 14 500265001 8008471]
FSType: 0
OS2Version: 2
OS2_WeightWidthSlopeOnly: 0
OS2_UseTypoMetrics: 1
CreationTime: 1313674889
ModificationTime: 1313672287
PfmFamily: 81
TTFWeight: 700
TTFWidth: 5
LineGap: 0
VLineGap: 0
Panose: 0 0 0 0 0 0 0 0 0 0
OS2TypoAscent: 410
OS2TypoAOffset: 1
OS2TypoDescent: 357
OS2TypoDOffset: 1
OS2TypoLinegap: 0
OS2WinAscent: -172
OS2WinAOffset: 1
OS2WinDescent: -507
OS2WinDOffset: 1
HheadAscent: -172
HheadAOffset: 1
HheadDescent: 507
HheadDOffset: 1
OS2SubXSize: 1331
OS2SubYSize: 1229
OS2SubXOff: 0
OS2SubYOff: 154
OS2SupXSize: 1331
OS2SupYSize: 1229
OS2SupXOff: 0
OS2SupYOff: 717
OS2StrikeYSize: 102
OS2StrikeYPos: 614
OS2Vendor: 'newt'
OS2CodePages: 00000001.00000000
OS2UnicodeRanges: 00000001.00000000.00000000.00000000
DEI: 91125
LangName: 1033 "" "" "" "vernon adams : Amatic : 17-8-2011" "" "Version 1.000" "" "vernon adams" "" "" "" "" "" "" "http://scripts.sil.org/OFL" "" "Amatic" "Bold" 
Encoding: UnicodeBmp
Compacted: 1
UnicodeInterp: none
NameList: Adobe Glyph List
DisplaySize: -48
AntiAlias: 1
FitToEm: 1
WinInfo: 0 22 12
BeginPrivate: 8
BlueValues 37 [-78 0 1356 1357 1374 1381 1551 1585]
BlueScale 9 0.0126923
BlueShift 2 12
StdHW 4 [59]
StdVW 4 [55]
StemSnapH 13 [51 55 59 63]
StemSnapV 13 [55 59 68 78]
ForceBold 4 true
EndPrivate
BeginChars: 65545 383

StartChar: exclam
Encoding: 33 33 1
Width: 286
Flags: HW
LayerCount: 2
Fore
SplineSet
135.944356498 303.012439387 m 0
 103.183225876 303.012439387 106 446.162355375 106 482 c 0
 106 596 106 713 105 821 c 1
 105 1045 88 1269 88 1493 c 0
 88 1537 133 1572 175 1572 c 0
 203 1572 225 1550 225 1522 c 0
 225 1195 174 870 174 543 c 1
 169.5 505.556701031 169.5 466.943298969 169.5 429.5 c 0
 169.5 386.33358556 169.5 303.012439387 135.944356498 303.012439387 c 0
115 -38 m 1
 80 -29 56 2 41 33 c 1
 41 78 78 125 126 125 c 0
 181 125 210 77 210 26 c 0
 210 -29 168 -49 119 -52 c 1
 115 -38 l 1
EndSplineSet
EndChar

StartChar: numbersign
Encoding: 35 35 2
Width: 748
Flags: HW
LayerCount: 2
Fore
SplineSet
282 686 m 1
 290 685 299 685 307 685 c 0
 362.666666667 685 419.403846154 685 474 681 c 1
 484 770.295019157 495.333333333 860.62835249 496 952 c 1
 465 959 432 960 400 960 c 0
 371 960 342 959 314 954 c 1
 290 867 285 776 282 686 c 1
676 637 m 1
 677 637 l 1
 676.05651199 594.543039572 633.275051649 585.91252486 599.047480981 585.91252486 c 0
 596.997356201 585.91252486 594.977919667 585.94348801 593 586 c 2
 563 587 l 1
 545 378 525 180 507 -39 c 1
 503.805090863 -70.9490913742 471.251636904 -91.7924004573 442.952267417 -91.7924004573 c 0
 420.321518385 -91.7924004573 400.411280108 -78.4629880038 400.411280108 -46.8243255831 c 0
 400.411280108 -43.7266231473 400.602142175 -40.4534059214 401 -37 c 0
 426 180 441 357 466 581 c 1
 419 585 371 585 324 585 c 1
 274 582 l 1
 249 429 216 -36 163 -80 c 0
 159.38836291 -82.9983402255 154.954852287 -84.3331831618 150.160468709 -84.3331831618 c 0
 130.497035678 -84.3331831618 104.763340206 -61.879721788 104.763340206 -39.6463263168 c 0
 104.763340206 185.034854689 153.594827238 386.043100499 176 576 c 1
 158 574 137 571 116 571 c 0
 72 571 31 583 31 637 c 0
 31 676 81 683 127 683 c 0
 152 683 176 681 189 681 c 1
 204 769 213 859 220 948 c 1
 207 947 188 945 169 945 c 0
 123 945 72 955 72 1004 c 2
 72 1014 l 1
 102 1047 l 1
 123 1047 144 1046 165 1046 c 0
 186 1046 207 1047 228 1049 c 1
 245 1185 273 1320 273 1457 c 0
 273 1468 272 1481 272 1494 c 0
 272 1530 278 1567 325 1567 c 2
 340 1567 l 1
 363 1520 l 1
 363 1365 328 1213 326 1058 c 1
 344 1054 362 1054 381 1054 c 0
 394.036866359 1054 407.255431205 1053.95918367 420.525909903 1053.95918367 c 0
 453.702106649 1053.95918367 487.202764977 1054.21428571 519 1056 c 1
 544.945945946 1214.99154334 558.72972973 1374.99577167 579 1535 c 1
 592 1552 610 1566 632 1566 c 0
 650.906729951 1566 680.302580719 1547.8272019 680.302580719 1528.38260524 c 0
 680.302580719 1433.96101929 623.508912882 1155.44361857 607 1056 c 1
 673 1056 l 1
 716 1020 l 1
 709 991 698 959 662 959 c 1
 595 962 l 1
 576 875 571 786 570 698 c 1
 577 698 584 699 591 699 c 0
 632 699 676 687 676 637 c 1
EndSplineSet
EndChar

StartChar: dollar
Encoding: 36 36 3
Width: 494
Flags: HW
LayerCount: 2
Fore
SplineSet
43 1286 m 0
 43 1356 64 1491 140 1519 c 1
 138 1535 134 1560 134 1585 c 0
 134 1623 143 1660 185 1660 c 2
 195 1660 l 1
 226 1626 l 1
 223 1613 220 1595 220 1577 c 0
 220 1540 232 1502 273 1502 c 0
 280 1502 295 1508 303 1510 c 1
 327 1484 384 1436 384 1399 c 0
 384 1373 363 1350 336 1350 c 0
 273 1350 273 1409 233 1439 c 1
 233 1390 229 1342 229 1293 c 0
 229 1207 240 1122 249 1037 c 1
 256 1037 l 1
 282 1012 l 1
 282 957 l 1
 255 983 l 1
 282 779 467 633 467 421 c 0
 467 371 365 219 324 190 c 1
 326 168 333 126 333 85 c 0
 333 32 321 -18 274 -18 c 0
 240 -18 232 18 232 45 c 2
 232 57 l 1
 238 61 l 1
 238 163 l 1
 208 163 177 162 147 159 c 1
 103 184 57 226 57 281 c 0
 57 304 76 324 99 324 c 0
 134 324 159 281 164 250 c 1
 175 248 189 243 200 243 c 0
 211 243 223 246 234 247 c 1
 233 372 225 773 183 869 c 0
 117 1018 43 1112 43 1286 c 0
369 385 m 0
 369 456 322 607 294 675 c 1
 300 542 315 409 318 276 c 1
 347 304 369 344 369 385 c 0
167 1118 m 1
 168 1145 l 1
 168 1217 150 1287 145 1359 c 1
 142 1335 138 1310 138 1286 c 0
 138 1229 150 1172 167 1118 c 1
EndSplineSet
EndChar

StartChar: percent
Encoding: 37 37 4
Width: 1077
Flags: HW
LayerCount: 2
Fore
SplineSet
241 700 m 0
 47 700 46 1025 46 1163 c 0
 46 1255 79 1553 215 1553 c 0
 420 1553 444 1300 444 1147 c 1
 419.142802781 1005.30735779 486.373793906 700 241 700 c 0
811 2 m 0
 675 2 643 270 643 370 c 0
 643 504 644 838 838 838 c 0
 1031.18159229 838 1040.0920219 602.934082694 1040.0920219 428.867426659 c 0
 1040.0920219 411.178076717 1040 394.118692831 1040 378 c 0
 1040 229 1003 2 811 2 c 0
657 1438 m 1
 658 1437 l 1
 659 1467 674 1536 715 1536 c 0
 743 1536 769 1517 769 1487 c 0
 769 1363.40797286 633.344578569 891.166704211 594 732 c 0
 538.176211454 480.875675676 435 153 402 36 c 1
 393.788166688 17.2445782384 383.648821114 10.2925792905 373.353057196 10.2925792905 c 0
 347.603382649 10.2925792905 320.875313555 53.777234914 320.875313555 64.8523218935 c 0
 320.875313555 250.791909531 588.116827371 1190.13964117 657 1438 c 1
222 1449 m 0
 184 1449 145 1210 145 1165 c 0
 145 1102 152 800 238 800 c 0
 346 800 350 1017 350 1092 c 0
 350 1179 350 1449 222 1449 c 0
832 733 m 0
 748 733 741 428 741 366 c 0
 741 329 776 116 816 116 c 0
 935 116 940 303 940 386 c 0
 940 399.339861147 940.180519564 415.631622945 940.180519564 433.802992534 c 0
 940.180519564 546.958539079 933.180477579 733 832 733 c 0
EndSplineSet
EndChar

StartChar: ampersand
Encoding: 38 38 5
Width: 903
Flags: HW
LayerCount: 2
Fore
SplineSet
142 569 m 1
 143 570 l 1
 143 443 197 283 349 283 c 0
 390 283 470 308 499 338 c 1
 490 351 478 361 467 372 c 0
 324 518 283 775 251 969 c 1
 176 851 142 708 142 569 c 1
803 902 m 1
 831.162301851 896.43360444 861 880.831187088 861 848 c 0
 861 798 784 791 748 792 c 2
 697 793 l 1
 697 747 695 700 692 654 c 1
 710.391977816 656.183468103 652.985641627 436.748422882 613 355 c 1
 647 320 693 292 743 292 c 0
 771 292 798 298 826 298 c 1
 864 267 l 1
 864 206 809 199 760 199 c 0
 686 199 621 233 562 276 c 1
 490 227 419 198 331 198 c 0
 165 198 48 382 48 534 c 0
 48 780 121 913 230 1125 c 1
 229 1219 216 1312 216 1406 c 2
 216 1576 l 2
 216 1632 233 1728 305 1728 c 0
 374 1728 484 1682 484 1600 c 0
 484 1565 477 1530 477 1496 c 0
 477 1481 479 1466 482 1452 c 1
 441 1365 424 1268 378 1184 c 0
 363 1157 326 1116 326 1086 c 0
 326 963 461 506 541 418 c 1
 591 532 605 657 605 780 c 2
 605 789 l 1
 582 789 561 804 552 824 c 1
 556 832 l 1
 552 845 l 1
 571 876 l 1
 627 876 752 885 803 902 c 1
309 1471 m 2
 309 1409 312 1348 312 1286 c 2
 312 1263 l 1
 343 1328 392 1461 392 1531 c 0
 392 1566 389 1628 342 1630 c 1
 326 1617 318 1598 310 1580 c 1
 309 1471 l 2
EndSplineSet
EndChar

StartChar: parenleft
Encoding: 40 40 6
Width: 418
Flags: HW
LayerCount: 2
Fore
SplineSet
396 -319 m 1
 394 -318 l 1
 385 -340 364 -361 338 -361 c 0
 146 -361 52 701 52 881 c 0
 52 1001 131 1651 273 1651 c 2
 282 1651 l 1
 318 1621 l 1
 317 1545 273 1484 245 1416 c 0
 181 1259 154 1048 154 879 c 0
 154 583 185 139 308 -130 c 0
 337 -193 379 -251 396 -319 c 1
EndSplineSet
EndChar

StartChar: parenright
Encoding: 41 41 7
Width: 434
Flags: HW
LayerCount: 2
Fore
SplineSet
387 817 m 1
 388 815 l 1
 387 651 249 -303 79 -303 c 0
 52 -303 25 -284 25 -255 c 0
 25 -217 92 -112 111 -71 c 0
 214 158 285 564 285 816 c 0
 285 993 261 1253 194 1416 c 0
 168 1480 120 1538 120 1610 c 2
 120 1621 l 1
 157 1650 l 1
 323 1650 385 954 387 817 c 1
EndSplineSet
EndChar

StartChar: asterisk
Encoding: 42 42 8
Width: 861
Flags: HW
LayerCount: 2
Fore
SplineSet
186 745 m 1
 185 742 l 1
 187 811 312 1011 341 1096 c 1
 116 1096 l 2
 71 1096 38 1092 38 1150 c 0
 38 1175 58 1198 84 1198 c 2
 327 1196 l 1
 300 1250 191 1455 191 1501 c 0
 191 1531 220 1547 247 1547 c 0
 303 1547 373 1307 398 1258 c 1
 418 1317 479 1567 551 1567 c 0
 580 1567 608 1542 608 1512 c 0
 608 1486 591 1466 577 1445 c 0
 529 1372 518 1275 485 1194 c 1
 516 1190 546 1189 577 1189 c 0
 604 1189 661 1199 712 1199 c 0
 767 1199 816 1187 816 1137 c 0
 816 1096 780 1085 745 1085 c 0
 656 1085 567 1094 478 1094 c 1
 508 1015 630 819 630 752 c 0
 630 723 607 700 578 700 c 0
 521 700 502 776 500 821 c 1
 413 1011 l 1
 373 910 336 789 279 697 c 1
 230 690 l 1
 186 736 l 1
 186 745 l 1
EndSplineSet
EndChar

StartChar: plus
Encoding: 43 43 9
Width: 684
Flags: HW
LayerCount: 2
Fore
SplineSet
271 385 m 0
 271 451 277 518 277 584 c 1
 258 599 l 1
 230 599 184 590 144 590 c 0
 97 590 57 602 57 655 c 0
 57 682 74 708 103 708 c 0
 143 708 184 701 224 701 c 0
 240 701 255 702 271 705 c 1
 269 755 259 805 259 855 c 0
 259 900 266 968 325 968 c 0
 357 968 385 942 385 909 c 2
 385 904 l 1
 377 884 l 1
 378 853 377 701 404 701 c 0
 429 701 477 709 523 709 c 0
 578 709 629 697 629 647 c 0
 629 615 603 591 571 591 c 0
 530 591 491 602 450 602 c 0
 416 602 385 593 385 553 c 0
 385 498 404 444 404 389 c 0
 404 353 369 333 337 333 c 0
 308 333 271 352 271 385 c 0
EndSplineSet
EndChar

StartChar: comma
Encoding: 44 44 10
Width: 376
Flags: HW
LayerCount: 2
Fore
SplineSet
58 -175 m 1
 68 -130 l 1
 102 -96 162 -54 172 -4 c 1
 139 20 113 55 113 97 c 0
 113 149 166 184 214 184 c 0
 268 184 291 143 308 98 c 1
 304 91 l 1
 304 87 305 82 305 77 c 0
 305 -15 214 -202 119 -202 c 2
 113 -202 l 1
 58 -175 l 1
EndSplineSet
EndChar

StartChar: hyphen
Encoding: 45 45 11
Width: 587
Flags: HW
LayerCount: 2
Fore
SplineSet
516 739 m 0
 516 705.578313253 199 701 141 701 c 4
 108 701 74 725 74 760 c 4
 74 792.963855422 391 798 448 798 c 0
 481 798 516 775 516 739 c 0
EndSplineSet
EndChar

StartChar: period
Encoding: 46 46 12
Width: 295
Flags: HW
LayerCount: 2
Fore
SplineSet
74 41 m 0
 74 82 110 120 151 120 c 0
 190 120 224 81 224 43 c 0
 224 -4 188 -32 143 -32 c 0
 105 -32 74 4 74 41 c 0
EndSplineSet
EndChar

StartChar: slash
Encoding: 47 47 13
Width: 512
Flags: HW
LayerCount: 2
Fore
SplineSet
37 30 m 0
 37 340 297 1099 366 1453 c 0
 372 1483 378 1553 423 1553 c 0
 451 1553 478 1533 478 1503 c 0
 478 1437 451 1374 436 1311 c 0
 357 972 279 632 205 292 c 0
 192 233 158 -31 83 -31 c 2
 75 -31 l 1
 54 -18 37 5 37 30 c 0
EndSplineSet
EndChar

StartChar: zero
Encoding: 48 48 14
Width: 567
Flags: HW
LayerCount: 2
Fore
SplineSet
71 937 m 1
 61 963 59 990 59 1018 c 0
 59.0248256091 1022.40654562 59.0364698307 1026.82347989 59.0364698307 1031.24912898 c 0
 59.0364698307 1098.29880955 56.3637715299 1167.3488036 56.3637715299 1232.57847208 c 0
 56.3637715299 1412.28765223 76.6499443418 1563 229 1563 c 0
 257 1563 284 1548 308 1534 c 0
 435 1454 439 1329 457 1195 c 0
 487 971 523 747 523 521 c 0
 523 373 515 7 303 7 c 0
 82 7 80 649 64 804 c 1
 71 812 l 1
 71 937 l 1
428 568 m 0
 428 767.307777439 382.515625 1061.87658228 357 1254 c 1
 331.400370572 1400.28359673 276.049732428 1457.63300362 229.021695591 1457.63300362 c 0
 186.033827647 1457.63300362 150 1409.71408117 150 1338 c 0
 150 1222 161 1106 161 990 c 0
 161 923 182 857 182 790 c 0
 182 685 190 100 322 100 c 0
 409 100 428 497 428 568 c 0
EndSplineSet
EndChar

StartChar: one
Encoding: 49 49 15
Width: 559
Flags: HW
LayerCount: 2
Fore
SplineSet
442 102 m 1
 441 103 l 1
 477 103 528 99 528 52 c 0
 528 -4 366 -8 295 -8 c 0
 265 -8 257 -9 234 -9 c 0
 193 -9 151 -3 151 47 c 2
 151 53 l 1
 170 91 l 1
 183 90 204 86 223 86 c 0
 247 86 268 93 268 120 c 0
 268 388 252 656 233 924 c 0
 224 1052 206 1179 206 1308 c 0
 206 1329 209 1356 209 1383 c 0
 209 1432 198 1479 138 1479 c 0
 125 1479 108 1477 91 1477 c 0
 61 1477 33 1483 33 1521 c 0
 33 1574 155 1575 198 1575 c 0
 231 1575 270 1574 288 1541 c 1
 303 1541 l 1
 297 1513 291 1484 291 1455 c 0
 291 1329 322 1205 322 1079 c 0
 322 756 367 433 367 109 c 1
 366 96 l 1
 391 98 417 102 442 102 c 1
EndSplineSet
EndChar

StartChar: two
Encoding: 50 50 16
Width: 529
Flags: HW
LayerCount: 2
Fore
SplineSet
254 1586 m 1
 254 1587 l 1
 473 1587 474 1357 474 1201 c 0
 474 970 410 633 316 422 c 0
 266 309 200 204 161 86 c 1
 238 99 315 107 393 107 c 2
 403 107 l 1
 455 55 l 1
 419 4 l 1
 315 4 211 -15 107 -15 c 0
 71 -15 32 7 32 47 c 2
 32 55 l 1
 90 125 108 218 145 299 c 0
 287 614 376 886 376 1236 c 0
 376 1305 372 1492 278 1500 c 1
 222 1470 248 1327 172 1327 c 0
 134 1327 122 1357 122 1390 c 0
 122 1465 162 1586 254 1586 c 1
EndSplineSet
EndChar

StartChar: three
Encoding: 51 51 17
Width: 545
Flags: HW
LayerCount: 2
Fore
SplineSet
28 1416 m 1
 26 1416 l 1
 60 1501 129 1573 226 1573 c 0
 267 1573 305 1551 332 1522 c 1
 401 1521 431 1184 431 1124 c 0
 431 1040 382 993 339 927 c 1
 477 844 510 509 510 361 c 0
 510 213 497 -20 298 -20 c 0
 241 -20 147 5 147 76 c 2
 147 89 l 1
 181 110 l 1
 223 104 249 88 282 64 c 1
 397 69 407 207 407 294 c 0
 407 482 405 694 282 849 c 1
 278 848 274 848 269 848 c 0
 249 848 227 857 209 865 c 1
 209 878 l 1
 198 889 l 1
 199 950 329 1016 329 1150 c 0
 329 1216 315 1477 222 1477 c 0
 146 1477 170 1360 87 1360 c 0
 55 1360 33 1387 28 1416 c 1
EndSplineSet
EndChar

StartChar: four
Encoding: 52 52 18
Width: 480
Flags: HW
LayerCount: 2
Fore
SplineSet
133 480 m 1
 132 479 l 1
 101 479 76 493 52 512 c 1
 52 539 54 565 61 591 c 1
 54 628 52 666 52 706 c 0
 52 844 83 991 83 1124 c 2
 83 1442 l 2
 83 1461 77 1484 77 1503 c 0
 77 1525 85 1543 122 1543 c 0
 151 1543 183 1524 183 1492 c 0
 183 1440 174 1386 174 1333 c 0
 174 1106.81317457 154 857.919786345 154 622 c 0
 154 607 155 591 157 576 c 1
 188.666666667 577 220.333333333 581 252 587 c 1
 251 725 246 863 238 1000 c 0
 237.470588235 1054 235 1106 235 1160 c 0
 235 1191 263.777777778 1206 284 1206 c 2
 294 1206 l 1
 326 1170 l 1
 326 979 323 785 352 596 c 1
 367 597 389 601 411 601 c 0
 442 601 472 593 472 557 c 0
 472 513 441 507 405 507 c 2
 390 507 l 2
 375 507 357 505 357 489 c 0
 357 436 363 190 378 155 c 1
 376 143 374 130 374 117 c 0
 374 103 376 89 384 76 c 1
 378 50 l 1
 383 39 l 1
 383 9 373 -38 335 -38 c 0
 289 -38 274 23 274 59 c 1
 270 66 l 1
 277 90 281 115 281 140 c 0
 281 207 266 272 266 339 c 0
 266 369 268 398 268 428 c 0
 268 449 267 470 264 491 c 1
 220.333333333 489 176.666666667 480 133 480 c 1
EndSplineSet
EndChar

StartChar: five
Encoding: 53 53 19
Width: 525
Flags: HW
LayerCount: 2
Fore
SplineSet
80 1008 m 0
 80 1043 91 1077 91 1112 c 0
 91 1256 63 1398 41 1540 c 1
 76 1574 l 1
 243 1576 l 2
 280 1576 328 1572 328 1524 c 2
 328 1513 l 1
 290 1482 l 1
 246 1482 l 1
 239 1477 l 1
 152 1488 l 1
 158 1325 176 1164 192 1002 c 1
 245 996 313 996 358 965 c 0
 460 895 486 553 486 434 c 0
 486 234 486 95 313 -36 c 1
 303 -36 291 -37 278 -37 c 0
 229 -37 166 -31 166 21 c 0
 166 54 201 67 229 67 c 0
 248 67 267 61 282 50 c 1
 356 75 388 259 388 328 c 0
 388 415 365 914 262 914 c 2
 222 914 l 1
 214 907 l 1
 193 905 176 891 155 891 c 0
 87 891 80 955 80 1008 c 0
EndSplineSet
EndChar

StartChar: six
Encoding: 54 54 20
Width: 477
Flags: HW
LayerCount: 2
Fore
SplineSet
342 212 m 0
 342 320 322 860 204 882 c 1
 162 853 159 814 159 770 c 0
 159 578 184 396 210 207 c 0
 217 152 212 73 289 73 c 0
 341 73 342 177 342 212 c 0
273 -14 m 0
 81 -14 106 262 90 391 c 0
 70 554 59 715 59 880 c 0
 59 1030 58 1586 279 1586 c 0
 299 1586 327 1567 327 1545 c 0
 327 1505 282 1482 249 1475 c 1
 192 1419 164 1044 160 949 c 1
 171 951 182 952 192 952 c 0
 428 952 438 396 438 236 c 0
 438 114 428 -14 273 -14 c 0
EndSplineSet
EndChar

StartChar: seven
Encoding: 55 55 21
Width: 411
Flags: HW
LayerCount: 2
Fore
SplineSet
219 1498 m 0
 176 1498 132 1493 89 1489 c 1
 67 1499 41 1522 41 1549 c 0
 41 1580 181 1582 229 1582 c 2
 267 1582 l 2
 313 1582 357 1578 371 1523 c 1
 362 1479 360 1435 356 1390 c 0
 331 1086 257 385 164 119 c 1
 165 114 165 108 165 101 c 0
 165 55 145 -11 95 -11 c 2
 85 -11 l 1
 46 24 l 1
 46 80 69 129 83 182 c 0
 172 519 187 873 232 1217 c 0
 244 1309 265 1401 267 1494 c 1
 251 1496 235 1498 219 1498 c 0
EndSplineSet
EndChar

StartChar: eight
Encoding: 56 56 22
Width: 481
Flags: HW
LayerCount: 2
Fore
SplineSet
188 1516 m 1
 187 1515 l 1
 167 1516 l 1
 142 1488 139 1449 139 1413 c 0
 139 1308.01477833 186.792207792 1071.79802956 219 969 c 1
 245.133333333 1080.33442623 261 1196.16721311 261 1312 c 0
 261 1342 245 1518 210 1518 c 1
 188 1516 l 1
180 190 m 1
 179 188 l 1
 179 147.842539977 210.234754649 6 248 6 c 4
 326 6 348 74 348 140 c 0
 348 359.252459016 291.081081081 574.28852459 231 783 c 1
 190.736842105 628.396428571 180 354.133928571 180 190 c 1
441 61 m 1
 440 60 l 1
 403 -24 342 -82 246 -82 c 0
 116 -82 84 98 84 198 c 0
 84 384 96 580 150 759 c 0
 160 793 171.905057759 827.921916955 180 863 c 0
 180 863 39 1225 39 1421 c 0
 39 1510 78 1607 181 1607 c 2
 224 1607 l 1
 349 1530 352 1466 352 1313 c 0
 352 1160 314 1010 280 862 c 1
 371 651 442 349 442 119 c 0
 442 103 440 87 436 72 c 1
 441 61 l 1
EndSplineSet
EndChar

StartChar: nine
Encoding: 57 57 23
Width: 473
Flags: HW
LayerCount: 2
Fore
SplineSet
139 1247 m 0
 139 1228 143 1178 155 1162 c 1
 168 1047 216 1057 302 1009 c 1
 310 1148 311 1288 311 1427 c 0
 311 1480 302 1527 238 1527 c 0
 157 1527 139 1306 139 1247 c 0
384 237 m 1
 385 237 l 1
 384 188 371 139 371 90 c 0
 371 78 372 64 372 49 c 0
 372 9 365 -34 315 -34 c 2
 304 -34 l 1
 272 4 l 1
 302 94 304 502 304 686 c 0
 304 772 301 848 300 931 c 1
 151 965 39 1087 39 1243 c 0
 39 1370 66 1614 237 1614 c 0
 378 1614 409 1547 409 1420 c 0
 409 1026 384 631 384 237 c 1
EndSplineSet
EndChar

StartChar: colon
Encoding: 58 58 24
Width: 301
Flags: HW
LayerCount: 2
Fore
SplineSet
88 1024 m 0
 88 1064 123 1103 164 1103 c 0
 203 1103 237 1064 237 1026 c 0
 237 979 201 951 156 951 c 0
 118 951 88 987 88 1024 c 0
67 250 m 0
 67 291 103 329 144 329 c 0
 183 329 216 290 216 252 c 0
 216 206 181 177 136 177 c 0
 98 177 67 213 67 250 c 0
EndSplineSet
EndChar

StartChar: semicolon
Encoding: 59 59 25
Width: 345
Flags: HW
LayerCount: 2
Fore
SplineSet
90 -11 m 0
 74 -11 48 10 48 27 c 1
 57 51 l 1
 91 83 147 122 156 171 c 1
 123 195 97 230 97 272 c 0
 97 324 150 359 198 359 c 0
 251 359 289 309 289 258 c 0
 289 168 193 -11 90 -11 c 0
133 1025 m 0
 133 1065 168 1104 209 1104 c 0
 248 1104 282 1065 282 1027 c 0
 282 980 246 952 201 952 c 0
 163 952 133 988 133 1025 c 0
EndSplineSet
EndChar

StartChar: question
Encoding: 63 63 26
Width: 1125
Flags: HW
LayerCount: 2
Fore
SplineSet
545 1525 m 0
 455 1525 437 1475 437 1407 c 0
 437 1364 445 1312 445 1263 c 0
 445 1175 446 1086 468 1000 c 1
 589 1049 653 1142 653 1272 c 0
 653 1347 655 1525 545 1525 c 0
853 199 m 0
 853 175 819 143 796 143 c 0
 674 143 572 797 526 914 c 1
 471 891 l 1
 469 859 466 828 466 796 c 0
 466 600 511 406 511 210 c 0
 511 174 495 143 455 143 c 0
 419 143 382 169 382 208 c 0
 382 295 383 383 374 470 c 0
 367 539 348 606 348 676 c 2
 348 1075 l 2
 348 1202 323 1327 323 1454 c 0
 323 1603 405 1635 539 1635 c 0
 746 1635 775 1433 775 1270 c 0
 775 1023 645 1007 634 969 c 1
 637 888 782 425 816 314 c 1
 823 314 l 1
 823 271 853 239 853 199 c 0
958 706 m 0
 958 1023 941 1354 832 1655 c 1
 846 1670 l 1
 809 1727 674 1832 605 1832 c 0
 203 1832 180 1241 180 954 c 0
 180 747 182 179 320 27 c 0
 356 -13 402 -31 443 -64 c 1
 503 -76 l 1
 522 -84 l 1
 939 -79 958 396 958 706 c 0
594 -190 m 0
 87 -190 62 366 62 765 c 0
 62 1072 14 1938 590 1938 c 0
 715 1938 829 1851 900 1755 c 1
 1024 1679 1072 968 1072 807 c 0
 1072 470 1071 -190 594 -190 c 0
EndSplineSet
EndChar

StartChar: at
Encoding: 64 64 27
Width: 1030
Flags: HW
LayerCount: 2
Fore
SplineSet
491 1246 m 0
 385.462191745 1246 397.768254529 964.865314059 390 855 c 1
 390 677.633451957 393.621794872 410 503 410 c 0
 565 410 638 550 638 605 c 2
 638 759 l 2
 638 875.426846177 611.4279678 1246 491 1246 c 0
434 -31 m 0
 717 -31 673 57 859 169 c 1
 871 179 l 1
 909 140 l 1
 863 -27 597 -120 441 -120 c 0
 56 -120 55 683 55 956 c 0
 55 1262 62 1719 478 1719 c 0
 857 1719 909 1333 954 1041 c 0
 968 950 985 859 985 767 c 0
 985 645 981 406 809 406 c 0
 774 406 741 426 716 449 c 1
 670 368 582 306 487 306 c 0
 269.628252788 306 268 661 268 851 c 0
 268 1047 272.084249084 1351 491 1351 c 0
 553 1351 610 1327 654 1284 c 0
 711 1227 757 680 770 565 c 1
 788 556 l 1
 817 510 l 1
 865 536 870 723 870 776 c 0
 870 987 836 1208 757 1404 c 0
 698 1549 630 1612 468 1612 c 0
 143.372765925 1612 165 1170.7972983 165 891 c 0
 165 713.484990222 155.027245252 -31 434 -31 c 0
EndSplineSet
EndChar

StartChar: A
Encoding: 65 65 28
Width: 656
Flags: HMW
HStem: 369 72
VStem: 465 131
LayerCount: 2
Fore
SplineSet
462 445 m 1
 452 570 394 1109 394 1236 c 0
 394 1243 394 1249 395 1254 c 1
 378 1236 304 736 285 659 c 0
 268 594 241 531 238 464 c 1
 297 448 359 441 420 441 c 0
 433 441 447 444 459 447 c 1
 462 445 l 1
467 1529 m 1
 510 1224 595 443.236745784 595 70 c 0
 595 24 574 1 527 1 c 0
 487 1 464 13 464 54 c 1
 471 64 l 1
 462 91 461 121 461 151 c 2
 461 180 l 1
 464 321 l 1
 420 351 281 369 225 373 c 1
 174 286 201 117 143 23 c 1
 124 23 l 2
 92 23 43 26 34 64 c 1
 93 149 246 1090 287 1279 c 0
 298 1332 339 1543 406 1543 c 0
 428 1543 449 1539 467 1525 c 1
 467 1529 l 1
EndSplineSet
EndChar

StartChar: B
Encoding: 66 66 29
Width: 576
Flags: HW
LayerCount: 2
Fore
SplineSet
527 374 m 1
 476 172 477 94 265 3 c 0
 249 -4 199 -17 182 -17 c 0
 146 -17 78 -19 78 34 c 0
 78 202 88 370 88 538 c 0
 88 815 74 1093 74 1370 c 0
 74 1425 71 1537 151 1537 c 0
 351 1537 461 1392 461 1201 c 0
 461 1079 405 966 335 869 c 1
 545 569 476 742 520 394 c 0
 521 388 525 380 527 374 c 1
265 785 m 1
 265 786 l 1
 192 769 l 1
 200 543 202 316 202 90 c 1
 343 112 421 232 421 369 c 0
 421 503 407 721 265 785 c 1
214 1421 m 0
 185 1421 185 1376 185 1357 c 0
 185 1201 192 1044 193 888 c 1
 286 909 330 1095 361 1173 c 1
 361 1246 l 2
 361 1321 296 1421 214 1421 c 0
EndSplineSet
EndChar

StartChar: C
Encoding: 67 67 30
Width: 649
Flags: HW
LayerCount: 2
Fore
SplineSet
420 1444 m 1
 420 1445 l 1
 400 1440 l 1
 388 1443 l 1
 388 1428 l 1
 378 1428 l 1
 378 1446 l 1
 372 1448 l 1
 175 1448 170 1294 170 1140 c 0
 170 1093 176 1046 176 999 c 0
 176 951 158 904 158 856 c 0
 158 756 200 217 239 160 c 0
 273 111 336 93 393 93 c 0
 443 93 492 113 525 152 c 1
 547 152 569 155 590 162 c 1
 617 135 l 1
 617 4 472 -33 366 -33 c 0
 272 -33 172 41 133 124 c 0
 72 253 53 853 53 1037 c 0
 53 1100 55 1164 67 1226 c 1
 63 1248 61 1270 61 1290 c 0
 61 1463 210 1565 387 1565 c 0
 442 1565 530 1531 530 1465 c 0
 530 1434 501 1419 473 1419 c 0
 453 1419 431 1426 420 1444 c 1
EndSplineSet
EndChar

StartChar: D
Encoding: 68 68 31
Width: 653
Flags: HW
LayerCount: 2
Fore
SplineSet
601 773 m 1
 590 754 585 733 585 711 c 0
 585 510 481 224 325 92 c 0
 291 63 212 -5 168 -5 c 0
 126 -5 68 14 68 65 c 1
 113 112 113 244 113 306 c 0
 113 533 75 758 75 982 c 0
 75 1055 81 1131 81 1206 c 0
 81 1263 77 1319 65 1374 c 0
 57 1410 36 1443 36 1481 c 0
 36 1557 163 1552 214 1552 c 2
 224 1552 l 2
 349 1552 493 1399 536 1290 c 0
 584 1168 568 929 596 868 c 1
 592 815 l 1
 600 801 l 1
 593 785 l 1
 601 773 l 1
211 310 m 2
 211 114 l 1
 428 254 488 615 488 854 c 0
 488 1061 464 1429 182 1429 c 1
 162 1427 l 1
 163 1054 211 683 211 310 c 2
EndSplineSet
EndChar

StartChar: E
Encoding: 69 69 32
Width: 457
Flags: HMW
HStem: -12 118 751 120 1423 128<256 283 239.5 287>
VStem: 60 123 86 97 86 113
LayerCount: 2
Fore
SplineSet
210 105 m 1xe0
 245 107 279 111 314 111 c 0
 350 111 428 108 428 57 c 2
 428 50 l 1
 431 50 l 1
 400 -11 315 -12 256 -12 c 2
 192 -12 l 2
 144 -12 70 -10 70 55 c 0
 70 81 88 103 88 128 c 2
 90 435 l 2
 91 559 77 682 78 806 c 1
 78 952 88 1099 88 1245 c 0
 88 1316 62 1383 62 1454 c 2
 62 1461 l 1
 77 1486 91 1513 113 1533 c 1
 164 1533 214 1551 265 1551 c 0
 301 1551 359 1527 359 1484 c 0
 359 1432 308 1423 266 1423 c 0
 246 1423 227 1425 207 1425 c 0
 200 1425 192 1425 185 1424 c 1
 185 1311 201 1199 201 1086 c 0
 201 1008 192 930 191 852 c 1
 223 858 254 870 287 870 c 0
 317 870 347 844 347 813 c 0
 347 782 327 750 293 750 c 0
 280 750 261 752 242 752 c 0
 221 752 202 749 192 737 c 1
 192 679 206 623 206 565 c 1
 200 553 l 1
 200 161 l 1
 209 144 210 124 210 105 c 1xe0
EndSplineSet
EndChar

StartChar: F
Encoding: 70 70 33
Width: 391
Flags: HW
LayerCount: 2
Fore
SplineSet
226 80 m 1
 225 81 l 1
 228 72 229 64 229 56 c 0
 229 21 202 -2 160 -2 c 0
 105 -2 101 90 101 129 c 0
 101 283 71 1390 39 1440 c 1
 39 1550 154 1554 237 1554 c 0
 289 1554 324 1544 324 1484 c 0
 324 1453 294 1440 267 1440 c 0
 258 1440 238 1442 217 1442 c 0
 189 1442 160 1438 160 1419 c 0
 160 1235 189 1053 191 869 c 1
 229 876 266 891 305 891 c 0
 337 891 361 858 361 828 c 0
 361 762 236 764 191 761 c 1
 191 538 230 317 230 94 c 0
 230 90 227 84 226 80 c 1
EndSplineSet
EndChar

StartChar: G
Encoding: 71 71 34
Width: 727
Flags: HW
LayerCount: 2
Fore
SplineSet
561 2 m 1
 562 4 l 1
 513 -18 467 -54 411 -54 c 0
 61 -54 52 464 52 711 c 0
 52 753 51 805 51 862 c 0
 51 1158 77 1591 402 1591 c 0
 440 1591 487 1580 487 1533 c 0
 487 1503 461 1485 433 1485 c 0
 413 1485 394 1495 374 1495 c 0
 166 1495 161 927 161 744 c 0
 161 709 160 670 160 617 c 0
 160 400 178 51 407 51 c 0
 473 51 521 84 558 137 c 1
 557 190 549 329 525 371 c 1
 503 369 473 363 445 363 c 0
 408 363 375 374 375 421 c 0
 375 477 512 489 552 489 c 0
 613 489 639 434 639 380 c 0
 639 257 680 138 680 15 c 0
 680 -14 661 -41 630 -41 c 0
 601 -41 572 -26 561 2 c 1
EndSplineSet
EndChar

StartChar: H
Encoding: 72 72 35
Width: 560
Flags: HW
LayerCount: 2
Fore
SplineSet
351 1496 m 1
 350.021234769 1515.08592201 376.344938811 1546.76772568 403.48281419 1546.76772568 c 0
 431.798227323 1546.76772568 461 1512.27686627 461 1393 c 0
 461 943 500 491 500 43 c 0
 500 10 477 -31 440 -31 c 0
 401 -31 388 4 388 37 c 0
 388 278 383 519 370 759 c 1
 348 763 325 769 302 769 c 0
 261 769 219 769 181 753 c 1
 182 521 215 291 215 59 c 0
 215 34 199 5 171 5 c 0
 141 5 130 16 115 41 c 0
 90 83 97 514 91 602 c 0
 70 904 54 1207 54 1510 c 2
 54 1525 l 1
 55.820802791 1546.84963349 76.2902963527 1557.30284485 98.9022919751 1557.30284485 c 0
 125.965078782 1557.30284485 156.09680628 1542.32956372 161 1514 c 1
 156 1462 154 1411 154 1360 c 0
 154 1220 168 1079 168 939 c 0
 168 914 166 888 166 862 c 0
 166 844 167 827 170 809 c 1
 237 811 302 822 369 824 c 1
 368 1048 351 1272 351 1496 c 1
EndSplineSet
EndChar

StartChar: I
Encoding: 73 73 36
Width: 432
Flags: HMW
HStem: -6 21G 8 120 1441 111
VStem: 132 94 170 107
LayerCount: 2
Fore
SplineSet
278 18 m 1xa8
 279 19 l 1
 230.71960186 19 156.333284077 19 95 19 c 1
 79.9069767442 19 36 23.3269230769 36 64 c 0
 36 101 66 113 98 113 c 0
 122.906976744 112 143.418604651 112 161 112 c 0
 167.333333333 112 171 119.666666667 171 158 c 0
 171 474 133 789 133 1105 c 0
 133 1175 137 1244 137 1314 c 0
 137 1352 136 1390 132 1428 c 1
 117 1423 99 1419 84 1419 c 0
 57 1419 36 1430 36 1468 c 0
 36 1540 237 1553 289 1553 c 0
 320 1553 349 1529 349 1497 c 0
 349 1470 331 1442 301 1442 c 0
 287 1442 275 1443 265 1443 c 0
 241 1443 226 1437 226 1401 c 0xb0
 226 1001 278 603 278 203 c 1
 275 115 l 5
 290 115 305 115 320 116 c 0
 363.941176471 116 403 109.388888889 403 82 c 1
 415.02876246 33.3045708735 383.999969482 27.0000915527 352 23 c 1x68
 327 23 303 23 278 18 c 1xa8
EndSplineSet
EndChar

StartChar: J
Encoding: 74 74 37
Width: 419
Flags: HW
LayerCount: 2
Fore
SplineSet
319 158 m 1
 298.999960572 0 245.165930677 -116.556046215 129 -194 c 1
 89 -194 55 -175 55 -131 c 0
 55 -94 105 -61 135 -48 c 1
 169.603837359 -3.85027647353 217 83.9999974966 217 241 c 0
 217 428 198 615 194 802 c 0
 189 1016 199 1233 164 1445 c 1
 135 1439 105 1429 75 1429 c 0
 47 1429 23 1453 23 1481 c 0
 23 1553 219 1553 268 1553 c 2
 294 1553 l 2
 336 1553 386 1548 386 1497 c 0
 386 1451 330 1443 295 1444 c 2
 268 1445 l 1
 267 1429 l 1
 267 1323 291 1218 291 1112 c 0
 291 846 328 581 328 315 c 0
 328 287.081523961 319 158 319 158 c 1
EndSplineSet
EndChar

StartChar: K
Encoding: 75 75 38
Width: 650
Flags: HW
LayerCount: 2
Fore
SplineSet
323 955 m 1
 359 864 620 48 620 11 c 0
 620 -23 587 -48 555 -48 c 0
 539 -48 523 -41 507 -40 c 1
 452 272 389 590 257 880 c 1
 203 776 187 769 187 650 c 0
 187 523 200 397 200 270 c 0
 200 226 202 -7 130 -7 c 0
 72 -7 70 67 70 108 c 0
 70 292 97 476 97 660 c 0
 97 754 100 905 100 1049 c 0
 100 1175 97 1296 88 1369 c 0
 84 1402 70 1443 70 1476 c 0
 70 1509 93 1541 128 1541 c 0
 202 1541 204 1426 204 1375 c 0
 204 1235 198 1094 195 954 c 1
 234 1045 432 1596 502 1596 c 0
 532 1596 560 1574 560 1542 c 0
 560 1497 342 1108 316 991 c 1
 333 962 l 1
 323 955 l 1
EndSplineSet
EndChar

StartChar: L
Encoding: 76 76 39
Width: 430
Flags: HW
LayerCount: 2
Fore
SplineSet
227 102 m 1
 261 115 l 1
 357 115 l 1
 379 100 401 83 401 54 c 0
 401 25 380 -4 349 -4 c 0
 339 -4 327 1 318 3 c 1
 305 0 292 -1 279 -1 c 0
 257 -1 235 2 213 2 c 1
 199 -15 176 -23 155 -23 c 0
 121 -23 86 7 86 42 c 0
 86 73 99 101 99 132 c 0
 99 598 58 1063 58 1529 c 0
 58 1556 83 1571 108 1571 c 0
 141 1571 170 1546 170 1512 c 0
 170 1266 191 1019 191 775 c 0
 191 753 190 732 187 710 c 1
 193 701 l 1
 201 523 211 345 211 167 c 2
 211 159 l 1
 201 119 l 1
 211 102 l 1
 227 102 l 1
EndSplineSet
EndChar

StartChar: M
Encoding: 77 77 40
Width: 824
Flags: HW
LayerCount: 2
Fore
SplineSet
599 1529 m 1
 598 1529 l 1
 604 1565 636 1587 671 1587 c 0
 697 1587 719 1560 719 1535 c 0
 719 1045 756 557 756 67 c 0
 756 1 745 -42 679 -70 c 1
 679 -53 l 1
 632 -33 l 1
 636 13 l 1
 630 27 l 1
 622 314 620 602 620 889 c 1
 622 993 l 1
 592 828 569 656 514 497 c 0
 504 469 492 443 488 414 c 1
 496 401 l 1
 485 347 483 222 405 222 c 0
 332 222 332 364 332 413 c 0
 332 660 235 931 181 1172 c 1
 179 1090 177 1007 177 925 c 0
 177 644 194 364 194 83 c 0
 194 54 183 27 163 6 c 1
 85 6 73 68 73 132 c 0
 73 243 83 353 83 464 c 0
 83 729 76 993 76 1257 c 0
 76 1346 77 1434 79 1522 c 1
 136 1554 l 1
 245 1546 389 674 420 528 c 1
 488 850 584 1188 603 1517 c 1
 599 1529 l 1
EndSplineSet
EndChar

StartChar: N
Encoding: 78 78 41
Width: 737
Flags: HMW
HStem: 1532 20G
VStem: 67 104<812 1073 1073 1135.5> 81 148<1455.5 1481.5> 84 116<40 40> 548 98
LayerCount: 2
Fore
SplineSet
671 1502 m 1xa8
 670 1504 l 1
 661 1485 658 1465 658 1444 c 0
 658 1193 645 939 645 687 c 0
 645 668 647 648 650 629 c 1
 645 620 l 1
 645 375 l 2
 645 334 649 293 649 252 c 0
 649 210 645 170 629 131 c 1
 629 109 632 84 632 61 c 0
 632 17 621 -21 560 -21 c 0
 489 -21 495 65 482 113 c 0
 395 421 285 721 229 1037 c 0xa8
 225 1061 229 1092 213 1112 c 1
 203 1122 l 1
 210 1141 l 1
 200 1193 191 1246 179 1298 c 1
 172 1261 171 1224 171 1187 c 2
 171 626 l 2xc8
 171 431 200 237 200 42 c 2
 200 33 l 1
 172 2 l 1
 99 2 l 1
 84 40 l 1x98
 91 67 93 116 93 177 c 0
 93 371 67 688 67 812 c 2
 67 1073 l 2xc8
 67 1198 81 1324 81 1449 c 0
 81 1514 78 1554 158 1554 c 0
 191 1554 229 1528 229 1492 c 0
 229 1419 267 1356 287 1288 c 0
 307 1220 306 1148 320 1078 c 0
 373 817 501 564 519 298 c 1
 532 276 538 250 540 225 c 1
 540 463 548 701 548 939 c 2
 548 1343 l 1
 537 1350 l 1
 548 1380 l 1
 548 1424 l 2
 548 1465 547 1505 539 1545 c 1
 547 1580 582 1596 615 1596 c 0
 660 1596 671 1553 671 1516 c 2
 671 1502 l 1xa8
EndSplineSet
EndChar

StartChar: O
Encoding: 79 79 42
Width: 650
Flags: HMW
HStem: -57 112<276.5 415> 1477 108<215 372 165.5 383.5>
VStem: 57 92<786 857> 489 94
LayerCount: 2
Fore
SplineSet
283 1477 m 0
 147 1477 149 950 149 852 c 0
 149 720 194 55 359 55 c 0
 477 55 489 561 489 653 c 0
 489 797 484 1477 283 1477 c 0
551 215 m 1
 552 215 l 1
 550 113 475 -57 355 -57 c 0
 83 -57 57 609 57 799 c 0
 57 915 67 1030 73 1146 c 0
 81 1292 58 1585 273 1585 c 0
 471 1585 511 1400 533 1242 c 0
 562 1035 582 827 582 618 c 0
 582 531 565 446 564 359 c 1
 569 350 l 1
 559 306 551 261 551 215 c 1
EndSplineSet
EndChar

StartChar: P
Encoding: 80 80 43
Width: 495
Flags: HW
LayerCount: 2
Fore
SplineSet
337 1158 m 1
 338 1159 l 1
 338 1334 301 1362 164 1459 c 1
 158 1459 l 1
 159 1243 181 1027 182 811 c 1
 286 909 337 1014 337 1158 c 1
44 1520 m 1
 43 1520 l 1
 61 1546 90 1566 122 1566 c 0
 333 1566 443 1365 443 1175 c 0
 443 983 361 805 187 712 c 1
 188 499 203 287 203 74 c 0
 203 30 186 -11 135 -11 c 0
 99 -11 86 29 86 58 c 0
 86 260 96 526 96 789 c 0
 96 1059 85 1327 44 1520 c 1
EndSplineSet
EndChar

StartChar: Q
Encoding: 81 81 44
Width: 676
Flags: HW
LayerCount: 2
Fore
SplineSet
276 20 m 1
 82 149 56 359 56 574 c 0
 56 685 66 797 66 908 c 0
 66 943 64 994 64 1052 c 0
 64 1265 86 1576 290 1576 c 0
 403 1576 513 1486 538 1377 c 0
 590 1146 593 897 593 659 c 0
 593 408 603 260 467 70 c 1
 477 27 498 -169 554 -169 c 0
 590 -169 650 -167 650 -219 c 0
 650 -270 600 -282 559 -282 c 0
 528 -282 500 -268 474 -253 c 1
 474 -252 l 1
 376 -207 379 -69 360 20 c 1
 276 20 l 1
481 793 m 2
 481 925 457 1057 446 1188 c 0
 435 1314 444 1474 273 1474 c 0
 166 1474 157 775 157 653 c 0
 157 522 168 95 345 80 c 1
 348 82 l 1
 358 99 374 108 394 108 c 1
 404 107 l 1
 464 162 464 252 464 327 c 0
 464 392 481 456 481 519 c 2
 481 793 l 2
EndSplineSet
EndChar

StartChar: R
Encoding: 82 82 45
Width: 548
Flags: HW
LayerCount: 2
Fore
SplineSet
282 1206 m 1
 283 1207 l 1
 283 1266 261 1449 191 1463 c 1
 190 1324 180 1184 180 1045 c 0
 180 1014 180 982 182 951 c 1
 207 975 230 1002 251 1030 c 1
 282 1206 l 1
140 1557 m 0
 317 1557 398 1370 398 1217 c 0
 398 1097 346 985 303 876 c 1
 306 648 442 299 513 76 c 1
 514 71 l 1
 514 35 515 -21 464 -21 c 0
 430 -21 407 8 390 34 c 1
 390 41 l 1
 381 183 312 312 281 450 c 0
 250 586 232 724 198 859 c 1
 187 854 l 1
 187 101 l 2
 187 85 189 68 189 52 c 0
 189 17 181 -13 130 -13 c 0
 99 -13 72 12 72 44 c 2
 72 50 l 1
 78 60 l 1
 78 460 86 861 86 1261 c 2
 86 1482 l 2
 86 1494 85 1504 85 1513 c 0
 85 1541 91 1557 140 1557 c 0
EndSplineSet
EndChar

StartChar: S
Encoding: 83 83 46
Width: 523
Flags: HW
LayerCount: 2
Fore
SplineSet
399 685 m 1
 430 572 477 461 477 342 c 0
 477 179 389 -45 197 -45 c 0
 157 -45 38 -31 38 24 c 0
 38 52 52 79 84 79 c 0
 128 79 165 48 197 48 c 0
 310 48 356 268 356 355 c 0
 356 690 63 940 63 1275 c 0
 63 1408 137 1574 291 1574 c 0
 339 1574 393 1545 412 1500 c 1
 387 1456 l 1
 377 1456 l 2
 349 1456 320 1460 297 1476 c 1
 215 1468 180 1360 180 1290 c 0
 180 1052 401 714 401 701 c 1
 399 685 l 1
EndSplineSet
EndChar

StartChar: T
Encoding: 84 84 47
Width: 492
Flags: HW
LayerCount: 2
Fore
SplineSet
349 611 m 1
 348 610 l 1
 337 559 335 506 335 454 c 0
 335 331 352 209 352 86 c 0
 352 46 346 -14 293 -14 c 0
 242 -14 227 48 227 89 c 0
 227 198 243 307 243 416 c 0
 243 629 215 841 215 1054 c 0
 215 1093 218 1163 218 1233 c 0
 218 1311 214 1389 199 1424 c 1
 162 1422 125 1413 88 1413 c 0
 56 1413 21 1433 21 1469 c 0
 21 1539 340 1550 397 1550 c 0
 429 1550 463 1526 463 1492 c 0
 463 1457 433 1438 401 1438 c 0
 376 1438 352 1442 328 1442 c 0
 321 1442 314 1442 307 1441 c 1
 317 1357 321 1273 321 1189 c 0
 321 1102 317 1013 317 925 c 0
 317 819 323 714 349 611 c 1
EndSplineSet
EndChar

StartChar: U
Encoding: 85 85 48
Width: 699
Flags: HMW
HStem: -39 72
VStem: 54 118<1399 1418.5 1275.5 1435> 476 112<1223 1507> 494 115 515 116
LayerCount: 2
Fore
SplineSet
627 646 m 1xc8
 624 626 623 606 623 586 c 0
 623 544 628 502 629 460 c 1
 645 445 l 1
 628 429 l 1
 627 422 624 414 624 407 c 0
 624 372 625 331 625 288 c 0
 625 137 605 -37 423 -37 c 0
 154 -37 159 283 97 474 c 0
 95 480 54 1363 54 1435 c 1
 44 1446 39 1462 39 1477 c 0
 39 1509 65 1540 98 1540 c 0
 166 1540 172 1443 172 1394 c 0
 172 1157 191 919 191 682 c 1
 209 641 220 492 220 444 c 0
 220 335 295 35 436 35 c 0
 520 35 521 160 521 219 c 2
 521 497 l 2
 521 538 506 578 506 619 c 0
 506 748 494 876 494 1005 c 1xd0
 485 1019 l 1
 490 1059 491 1098 491 1138 c 0
 491 1255 476 1372 476 1489 c 0
 476 1525 512 1545 544 1545 c 2
 553 1545 l 1
 606 1497 l 1
 598 1474 l 1
 603 1463 l 1
 602 1421 588 1380 588 1338 c 0xe0
 588 1108 617 879 619 649 c 1
 627 646 l 1xc8
EndSplineSet
EndChar

StartChar: V
Encoding: 86 86 49
Width: 620
Flags: HWO
LayerCount: 2
Fore
SplineSet
534 1569 m 1
 577 1546 l 1
 567 1454 555.697457472 1356.90848431 544 1265 c 0
 508.999954313 989.999970496 451 607 424 288 c 0
 415 180 437 -34 350 -34 c 0
 332 -34 314 -26 302 -12 c 1
 212 359 112.999966115 1160.9999654 31 1523 c 1
 39 1550 64 1563 91 1563 c 0
 144 1563 146 1501 152 1465 c 0
 212 1089 258 712 334 339 c 1
 379 733 459 1130 459 1528 c 1
 478 1552 503 1569 534 1569 c 1
EndSplineSet
EndChar

StartChar: W
Encoding: 87 87 50
Width: 901
Flags: HW
LayerCount: 2
Fore
SplineSet
289 1154 m 1
 289 1164 l 1
 336 1164 l 1
 336 1154 l 1
 289 1154 l 1
355 1323 m 1
 357 1325 l 1
 357 1353 382 1388 411 1388 c 0
 450 1388 494 1374 494 1328 c 2
 494 1323 l 1
 484 1297 l 1
 485 1011 587 740 633 461 c 1
 668 809 736 1155 736 1506 c 0
 736 1561 747 1592 810 1592 c 0
 840 1592 873 1569 873 1536 c 0
 873 1519 864 1501 852 1489 c 1
 852 1471 847 1455 844 1438 c 0
 792 1127 800 809 748 498 c 0
 723 347 697 196 697 43 c 0
 697 5 679 -28 636 -28 c 0
 545 -28 541 298 532 365 c 0
 509 543 462 717 430 893 c 1
 390 606 352 318 352 28 c 0
 352 -2 322 -29 293 -29 c 0
 221 -29 218 76 218 127 c 0
 218 250 58 1413 26 1491 c 1
 40 1517 66 1540 97 1540 c 0
 206 1540 195 1164 201 1086 c 0
 217 891 251 697 279 503 c 1
 301 694 357 1115 357 1286 c 1
 355 1323 l 1
EndSplineSet
EndChar

StartChar: X
Encoding: 88 88 51
Width: 520
Flags: HW
LayerCount: 2
Fore
SplineSet
77 1480 m 1
 79 1478 l 1
 89 1500 109 1520 135 1520 c 0
 202 1520 194 1463 201 1415 c 0
 216 1304 253 1196 276 1087 c 1
 296 1158 339 1550 418 1550 c 0
 444 1550 479 1536 479 1505 c 0
 479 1474 461 1447 451 1419 c 0
 423 1343 326 872 326 796 c 0
 326 765 424 309 436 248 c 1
 432 236 l 1
 436 182 466 134 466 80 c 0
 466 50 440 24 410 24 c 0
 379 24 350 38 350 73 c 0
 350 231 302 385 267 538 c 1
 231 385 195 232 167 77 c 0
 159 31 150 -13 93 -13 c 0
 68 -13 38 5 38 33 c 0
 38 84 69 144 84 193 c 0
 125 326 210 689 210 819 c 0
 210 1045 77 1262 77 1473 c 2
 77 1480 l 1
EndSplineSet
EndChar

StartChar: Y
Encoding: 89 89 52
Width: 453
Flags: HMW
HStem: 1535 20G
VStem: 132 4 136 2 183 131<716 726 635.5 900.5> 208 106
LayerCount: 2
Fore
SplineSet
212 25 m 0xb0
 212 157 222 289 222 421 c 0
 222 541 183 656 183 776 c 0
 183 1025 25 1267 25 1513 c 0
 25 1540 71 1546 90 1546 c 2
 97 1546 l 1
 132 1526 l 1xd0
 136 1554 l 1
 150 1369 188 1185 240 1006 c 1
 256 1088 266 1539 364 1539 c 0
 378 1539 418 1539 418 1517 c 0
 418 1287 320 1062 320 828 c 0
 320 804 325 781 326 757 c 1
 314 726 l 1
 314 545 325 364 325 183 c 0
 325 149 325 115 324 81 c 1
 330 75 l 1
 332 35 l 1
 332 -2 298 -25 264 -25 c 0
 237 -25 212 -3 212 25 c 0xb0
EndSplineSet
EndChar

StartChar: Z
Encoding: 90 90 53
Width: 429
Flags: HW
LayerCount: 2
Fore
SplineSet
82 1549 m 1
 81 1550 l 1
 100 1545 119 1543 139 1543 c 0
 203 1543 268 1564 332 1564 c 0
 364 1564 388 1536 388 1505 c 0
 388 1414 360 1314 348 1224 c 0
 303 886 272 543 205 209 c 0
 196 165 172 128 161 85 c 1
 184 86 227 93 269 93 c 0
 324 93 377 81 377 30 c 2
 377 21 l 1
 345 -11 l 1
 261 -11 176 -19 92 -19 c 0
 61 -19 44 5 34 31 c 1
 137 197 267 1235 281 1451 c 1
 256 1449 209 1441 164 1441 c 0
 107 1441 53 1453 53 1506 c 2
 53 1515 l 1
 82 1549 l 1
EndSplineSet
EndChar

StartChar: bracketleft
Encoding: 91 91 54
Width: 467
Flags: HW
LayerCount: 2
Fore
SplineSet
355 -68 m 0
 355 -103 316 -112 289 -112 c 0
 238 -112 42 -108 42 -35 c 0
 42 134 85 301 85 470 c 0
 85 808 138 1142 138 1480 c 1
 115 1539 l 1
 177 1576 l 1
 255 1577 l 2
 297 1577 441 1572 441 1511 c 0
 441 1481 411 1465 385 1465 c 0
 346 1465 309 1478 270 1478 c 0
 257 1478 232 1478 232 1458 c 0
 232 1095 202 732 179 370 c 0
 172 263 152 156 152 48 c 2
 152 6 l 1
 205 6 355 11 355 -68 c 0
EndSplineSet
EndChar

StartChar: backslash
Encoding: 92 92 55
Width: 511
Flags: HW
LayerCount: 2
Fore
SplineSet
439 -30 m 1
 431 -31 l 1
 356 -31 322 234 309 293 c 0
 236 633 153 972 78 1312 c 0
 64 1376 36 1439 36 1505 c 0
 36 1535 63 1555 91 1555 c 0
 136 1555 141 1484 148 1453 c 0
 226 1109 477 332 477 31 c 0
 477 6 460 -17 439 -30 c 1
EndSplineSet
EndChar

StartChar: bracketright
Encoding: 93 93 56
Width: 472
Flags: HW
LayerCount: 2
Fore
SplineSet
119 -68 m 1
 118 -68 l 1
 118 11 269 5 321 6 c 1
 321 48 l 1
 308 519 241 986 241 1458 c 1
 242 1473 l 1
 240 1476 l 1
 195 1475 151 1465 106 1465 c 0
 75 1465 32 1471 32 1511 c 0
 32 1573 182 1578 225 1578 c 2
 297 1577 l 1
 359 1540 l 1
 336 1481 l 1
 336 1156 392 835 392 510 c 0
 392 327 433 148 433 -35 c 0
 433 -108 236 -112 185 -112 c 0
 156 -112 122 -103 119 -68 c 1
EndSplineSet
EndChar

StartChar: asciicircum
Encoding: 94 94 57
Width: 280
Flags: HW
LayerCount: 2
Fore
SplineSet
73 1575 m 0
 73 1612 93 1656 136 1656 c 0
 176 1656 210 1623 210 1583 c 0
 210 1546 184 1515 146 1515 c 0
 109 1515 73 1534 73 1575 c 0
EndSplineSet
EndChar

StartChar: underscore
Encoding: 95 95 58
Width: 522
Flags: HW
LayerCount: 2
Fore
SplineSet
481 476 m 2
 481 293 l 1
 426 174 493 15 296 15 c 0
 132 15 102 211 93 337 c 0
 75 594 56 851 56 1109 c 0
 56 1182 72 1436 174 1436 c 0
 237 1436 298 1423 338 1370 c 0
 410 1274 481 621 481 476 c 2
149 1006 m 0
 149 824 173 644 173 462 c 0
 173 340 177 189 284 108 c 1
 389 115 391 281 391 357 c 0
 391 445 376 533 364 620 c 0
 342 772 336 926 319 1078 c 0
 311 1152 303 1351 197 1351 c 0
 157 1351 149 1099 149 1006 c 0
248 1543 m 1
 227 1581 l 1
 227 1629 250 1668 302 1668 c 0
 341 1668 382 1642 382 1599 c 0
 382 1554 340 1521 297 1521 c 2
 292 1521 l 1
 248 1543 l 1
EndSplineSet
EndChar

StartChar: grave
Encoding: 96 96 59
Width: 506
Flags: HMW
HStem: 1594 133
LayerCount: 2
Fore
SplineSet
180 1598 m 1
 169 1597 157 1596 145 1596 c 0
 102 1596 56 1607 56 1658 c 0
 56 1683 61 1712 84 1726 c 1
 123 1726 167 1728 198 1701 c 1
 252 1682 438 1634 438 1565 c 0
 438 1541 412 1525 390 1525 c 0
 358 1525 219 1583 180 1598 c 1
EndSplineSet
EndChar

StartChar: a
Encoding: 97 97 60
Width: 621
Flags: HMW
HStem: 303 71 1344 20G
VStem: 404 145 449 125
LayerCount: 2
Fore
SplineSet
576 41 m 1xc0
 579 39 l 1
 579 15 568 -10 545 -19 c 1
 496 -19 454 -10 454 49 c 0
 454 133 438 216 424 298 c 1
 403 299 382 304 361 304 c 2
 293 302 l 1
 268 313 239 314 212 314 c 1
 206 254 189 -11 107 -11 c 0
 77 -11 42 11 42 44 c 0
 42 49 46 57 47 62 c 0
 105 286 140 516 180 744 c 0
 201 863 236 980 252 1100 c 0
 261 1169 259 1307 296 1363 c 1
 333 1361 l 1
 365 1373 l 1
 397 1373 435 1359 435 1321 c 0
 435 1058 461 794 512 536 c 0
 525 468 551 401 551 331 c 0
 551 318 540 303 540 290 c 0
 540 239 576 99 576 41 c 1xc0
411 375 m 1
 406 400 405 425 405 451 c 0
 405 648 370 843 350 1038 c 1
 307 832 233 619 230 408 c 1
 265 385 367 378 411 375 c 1
EndSplineSet
EndChar

StartChar: b
Encoding: 98 98 61
Width: 491
Flags: HW
LayerCount: 2
Fore
SplineSet
358 1296 m 0
 358 1205 419 1118 419 1028 c 0
 419 956 414 884 395 815 c 1
 401 815 l 1
 385 775 361 740 336 705 c 1
 425 620 431 475 431 360 c 0
 431 167 349 -20 129 -20 c 0
 67 -20 65 42 65 88 c 0
 65 234 85 378 85 524 c 0
 85 740 94 957 94 1173 c 0
 94 1208 94 1244 92 1279 c 1
 83 1290 l 1
 83 1338 92 1383 150 1383 c 0
 191 1383 358 1350 358 1296 c 0
195 244 m 1
 182 224 180 199 181 176 c 2
 183 84 l 1
 282 107 321 217 321 308 c 0
 321 400 312 619 197 643 c 1
 190 540 188 436 188 333 c 0
 188 303 188 273 195 244 c 1
195 934 m 1
 191 935 l 1
 191 777 l 1
 194 763 l 1
 296 766 302 939 302 1012 c 0
 302 1076 303 1278 218 1288 c 1
 197 1244 192 1107 193 1054 c 2
 195 934 l 1
EndSplineSet
EndChar

StartChar: c
Encoding: 99 99 62
Width: 505
Flags: HMW
HStem: -33 112<293 370 271 372 293 293> -31 128 1258 106<304 319 319 396 396 410.5 304 415>
VStem: 53 129
LayerCount: 2
Fore
SplineSet
468 52 m 0x70
 468 5 407 -17 372 -33 c 1
 293 -33 l 1
 260 -10 217 -8 183 14 c 0
 55 97 47 359 47 495 c 0
 47 527 46 569 46 615 c 0
 46 847 58 1213 190 1310 c 0
 224 1335 267 1344 304 1364 c 1
 396 1364 l 2
 425 1364 455 1340 455 1311 c 2
 455 1303 l 1
 415 1258 l 1
 319 1258 l 2
 199 1258 181 913 181 827 c 1
 177 817 l 1
 177 685 168 554 168 422 c 0
 168 286 180 79 362 79 c 0xb0
 378 79 394 86 406 97 c 1
 434 97 468 85 468 52 c 0x70
EndSplineSet
EndChar

StartChar: d
Encoding: 100 100 63
Width: 610
Flags: HW
LayerCount: 2
Fore
SplineSet
208 141 m 1
 207 113 l 1
 216 92 l 1
 250 92 l 1
 415 270 438 374 438 612 c 0
 438 784 432 1231 200 1258 c 1
 187 1188 185 1116 185 1045 c 0
 185 743 208 443 208 141 c 1
555 622 m 1
 556 622 l 1
 504 355 560 136 273 -12 c 1
 125 -12 l 2
 75 -12 73 190 73 256 c 0
 73 471 79 686 79 901 c 0
 79 1013 77 1125 72 1237 c 1
 60 1251 55 1268 55 1286 c 0
 55 1322 93 1353 127 1353 c 0
 152 1353 176 1337 189 1317 c 1
 220 1304 255 1307 286 1294 c 0
 353 1266 397 1201 456 1161 c 1
 450 1148 l 1
 525 1011 546 967 546 808 c 0
 546 778 542 741 542 705 c 0
 542 675 545 645 555 622 c 1
EndSplineSet
EndChar

StartChar: e
Encoding: 101 101 64
Width: 455
Flags: HMW
HStem: -27 104<119 268 226 268 226 330> 692 129
VStem: 72 121
LayerCount: 2
Fore
SplineSet
72 36 m 1
 74 35 l 1
 74 78 l 1
 65 90 l 1
 76 117 82 145 82 174 c 0
 82 261 72 349 72 436 c 0
 72 635 86 835 86 1034 c 0
 86 1092 75 1149 75 1207 c 0
 75 1266 84 1352 161 1352 c 0
 177 1352 193 1346 206 1337 c 1
 253 1330 406 1330 406 1261 c 0
 406 1229 373 1207 346 1197 c 1
 296 1214 244 1230 191 1236 c 1
 193 1207 194 1177 194 1148 c 0
 194 1050 185 952 185 854 c 0
 185 844 189 832 191 822 c 1
 208 822 236 825 264 825 c 0
 313 825 363 816 363 769 c 0
 363 732 339 693 298 693 c 0
 278 693 256 699 240 711 c 1
 188 718 l 1
 192 666 194 615 194 563 c 0
 194 440 185 315 185 192 c 0
 185 139 193 77 259 77 c 0
 277 77 309 82 340 82 c 0
 380 82 418 73 418 32 c 0
 418 -13 367 -27 330 -27 c 2
 137 -27 l 2
 101 -27 74 1 72 36 c 1
EndSplineSet
EndChar

StartChar: f
Encoding: 102 102 65
Width: 483
Flags: HW
LayerCount: 2
Fore
SplineSet
200 754 m 1
 201 753 l 1
 211 753 224 754 239 754 c 0
 283 754 338 747 338 700 c 0
 338 662 300 640 266 640 c 0
 243 640 220 645 198 652 c 1
 190 628 185 603 185 578 c 2
 185 354 l 2
 185 260 197 166 197 72 c 0
 197 25 180 -30 124 -30 c 2
 116 -30 l 1
 59 13 l 1
 88 333 80 655 97 975 c 1
 94 975 l 1
 68 1000 l 1
 94 1025 l 1
 99 1025 l 1
 104 1118 107 1210 107 1303 c 0
 107 1344 150 1364 186 1364 c 0
 240 1364 455 1358 455 1281 c 0
 455 1229 397 1223 358 1223 c 2
 351 1223 l 1
 318 1239 280 1243 244 1243 c 2
 229 1243 l 1
 220 1219 l 1
 219 1082 200 945 200 808 c 2
 200 754 l 1
EndSplineSet
EndChar

StartChar: g
Encoding: 103 103 66
Width: 638
Flags: HW
LayerCount: 2
Fore
SplineSet
375 624 m 1
 373 623 l 1
 401 623 l 2
 465 623 585 619 585 560 c 0
 585 509 563 462 563 411 c 0
 563 341 573 266 573 194 c 0
 573 160 571 126 564 93 c 1
 501 36 426 -16 338 -16 c 0
 266 -16 185 -5 136 54 c 0
 67 136 46 506 46 622 c 0
 46 716 59 809 66 903 c 0
 80 1094 94 1354 348 1354 c 0
 383 1354 435 1349 435 1302 c 0
 435 1268 401 1247 370 1247 c 0
 355 1247 341 1252 327 1252 c 0
 178 1252 168 732 168 629 c 0
 168 584 169 538 174 493 c 1
 247 367 139 91 363 91 c 0
 469 91 462 380 462 450 c 2
 462 511 l 1
 447 519 431 519 414 519 c 0
 403 519 389 518 374 518 c 0
 339 518 303 524 303 565 c 0
 303 606 339 624 375 624 c 1
EndSplineSet
EndChar

StartChar: h
Encoding: 104 104 67
Width: 571
Flags: HW
LayerCount: 2
Fore
SplineSet
505 25 m 1
 453 -74 l 1
 445 -5 l 1
 424 -1 403 1 382 1 c 1
 373 183 371 366 371 548 c 1
 367 556 l 1
 368 576 370 595 370 615 c 0
 370 621 369 628 369 634 c 1
 358 636 l 1
 345 633 333 632 321 632 c 0
 276 632 236 649 189 651 c 1
 188 576 183 500 183 425 c 1
 189 416 l 1
 189 304 201 191 201 79 c 0
 201 44 183 5 143 5 c 0
 83 5 71 134 71 283 c 0
 71 391 77 509 77 595 c 0
 77 643 75 681 69 702 c 1
 74 712 l 1
 77 752 82 792 82 832 c 0
 82 986 68 1140 68 1294 c 0
 68 1325 94 1355 126 1355 c 0
 184 1355 191 1276 191 1233 c 0
 191 1063 183 892 183 722 c 1
 220 712 258 712 295 712 c 2
 316 712 l 1
 316 773 l 1
 367 722 l 1
 369 732 374 745 374 755 c 0
 374 944 347 1131 347 1320 c 0
 347 1351 376 1374 406 1374 c 0
 427 1374 446 1362 466 1356 c 1
 466 912 505 469 505 25 c 1
EndSplineSet
EndChar

StartChar: i
Encoding: 105 105 68
Width: 499
Flags: HMW
HStem: 23 105<322 329.5 322 340.5> 1252 104
VStem: 190 108
LayerCount: 2
Fore
SplineSet
298 184 m 1
 296 185 l 1
 296 166 295 147 306 131 c 1
 322 128 l 1
 337 128 358 130 381 130 c 0
 422 130 465 122 465 79 c 0
 465 43 432 16 397 16 c 0
 374 16 352 23 329 23 c 0
 313 23 288 0 251 0 c 0
 229 0 205 4 188 20 c 1
 180 19 171 18 163 18 c 0
 132 18 102 26 87 55 c 1
 87 78 98 100 119 110 c 1
 126 118 l 1
 184 118 l 1
 185 127 188 136 188 145 c 0
 188 290 174 435 174 580 c 0
 174 732 185 884 185 1036 c 0
 185 1109 182 1182 175 1254 c 1
 136 1256 l 2
 121 1257 105 1254 89 1254 c 0
 55 1254 25 1262 25 1309 c 0
 25 1360 108 1356 143 1356 c 0
 199 1356 406 1355 406 1273 c 0
 406 1263 398 1244 394 1235 c 1
 324 1230 l 1
 289 1242 l 1
 295 1186 297 1129 297 1072 c 0
 297 942 286 811 286 681 c 0
 286 536 301 391 301 246 c 1
 298 184 l 1
EndSplineSet
EndChar

StartChar: j
Encoding: 106 106 69
Width: 520
Flags: HW
LayerCount: 2
Fore
SplineSet
352 158 m 1
 276 33 364 -254 106 -254 c 2
 82 -254 l 1
 21 -193 l 1
 19 -174 l 1
 19 -133 146 -64 181 -46 c 1
 227 8 240 117 240 187 c 0
 240 536 222 884 222 1233 c 1
 217 1242 l 1
 175 1247 60 1252 60 1312 c 0
 60 1342 103 1359 127 1359 c 0
 187 1359 492 1327 492 1253 c 0
 492 1222 464 1205 436 1205 c 0
 401 1205 367 1219 332 1225 c 1
 331 1208 l 1
 331 933 352 657 352 382 c 2
 352 158 l 1
EndSplineSet
EndChar

StartChar: k
Encoding: 107 107 70
Width: 637
Flags: HW
LayerCount: 2
Fore
SplineSet
572 1289 m 1
 571 1284 380 976 352 919 c 1
 352 878 348 838 348 797 c 0
 348 678 474 252 536 149 c 0
 561 108 602 71 602 19 c 0
 602 -13 574 -35 544 -35 c 0
 405 -35 271 626 250 752 c 1
 194 641 176 519 176 396 c 2
 176 134 l 2
 176 94 191 57 191 17 c 0
 191 -14 162 -31 134 -31 c 0
 94 -31 66 -7 66 34 c 2
 66 406 l 2
 66 490 84 572 84 656 c 0
 84 877 105 1097 105 1318 c 1
 116 1342 140 1357 166 1357 c 0
 200 1357 229 1328 229 1294 c 2
 229 1288 l 1
 203 1243 202 1038 202 915 c 2
 202 842 l 1
 241 912 440 1344 493 1344 c 0
 526 1344 572 1329 572 1289 c 1
EndSplineSet
EndChar

StartChar: l
Encoding: 108 108 71
Width: 467
Flags: HW
LayerCount: 2
Fore
SplineSet
184 545 m 0
 184 435 176 333 176 219 c 0
 176 154 185 78 245 78 c 0
 264 78 297 81 330 81 c 0
 384 81 440 72 440 21 c 0
 440 -11 405 -29 378 -33 c 1
 319 -14 257 -9 195 -9 c 1
 174 -21 149 -28 125 -28 c 0
 91 -28 67 7 67 39 c 0
 67 344 87 649 87 954 c 1
 93 969 l 1
 87 1033 81 1097 81 1161 c 0
 81 1207 82 1355 152 1355 c 0
 180 1355 204 1332 204 1304 c 0
 204 1252 190 1200 190 1148 c 0
 190 984 196 820 196 656 c 1
 182 622 184 581 184 545 c 0
EndSplineSet
EndChar

StartChar: m
Encoding: 109 109 72
Width: 1013
Flags: HW
LayerCount: 2
Fore
SplineSet
933 207 m 1
 932 206 l 1
 932 176 948 23 948 20 c 1
 953 8 957 -6 957 -19 c 0
 957 -58 932 -107 888 -107 c 0
 829 -107 824 -21 824 21 c 0
 824 108 825 196 825 283 c 0
 825 402 823 521 812 639 c 0
 807 695 795 750 795 806 c 0
 795 890 803 975 803 1059 c 1
 720 808 644 549 597 289 c 0
 587 236 589 114 511 114 c 0
 457 114 426 149 426 202 c 0
 426 348 273 904 220 1065 c 1
 203 740 181 415 181 89 c 0
 181 69 184 47 184 28 c 0
 184 -10 174 -40 116 -40 c 0
 91 -40 58 -20 58 9 c 0
 58 427 121 843 121 1261 c 1
 114 1272 109 1288 109 1301 c 0
 109 1340 158 1351 188 1351 c 0
 266 1351 255 1270 263 1217 c 0
 280 1105 349 1010 380 902 c 0
 431 726 488 550 522 370 c 1
 604 636 691 904 738 1179 c 0
 748 1238 754 1348 836 1348 c 0
 867 1348 911 1329 911 1292 c 0
 911 1075 912 857 920 640 c 0
 922 569 937 492 937 423 c 0
 937 351 933 279 933 207 c 1
EndSplineSet
EndChar

StartChar: n
Encoding: 110 110 73
Width: 827
Flags: HMW
HStem: 1338 20G
VStem: 68 112 80 113 646 116
LayerCount: 2
Fore
SplineSet
185 641 m 1xb0
 182 640 l 1
 174 646 l 1
 174 604 172 341 189 298 c 1
 189 114 l 1
 196 99 197 83 197 66 c 0
 197 32 169 2 135 2 c 0
 76 2 68 84 68 127 c 0xd0
 68 361 64 595 64 829 c 0
 64 956 76 1084 76 1211 c 0
 76 1274 85 1322 139 1362 c 1
 151 1349 l 1
 156 1352 161 1354 166 1354 c 0
 195 1354 214 1300 220 1280 c 0
 294 1013 428 773 512 511 c 0
 546 405 561 293 603 189 c 1
 636 534 644 881 644 1228 c 0
 644 1244 641 1264 641 1283 c 0
 641 1315 649 1344 692 1344 c 0
 734 1344 760 1302 760 1264 c 2
 760 1125 l 1
 750 1109 l 1
 749 951 728 92 676 11 c 1
 653 4 628 -6 604 -6 c 0
 545 -6 554 55 535 93 c 0
 535 95 536 98 536 102 c 0
 536 219 237 1016 181 1145 c 1
 178 1119 176 1094 176 1068 c 2
 176 808 l 2
 176 752 185 697 185 641 c 1xb0
EndSplineSet
EndChar

StartChar: o
Encoding: 111 111 74
Width: 651
Flags: HMW
HStem: -39 86 1268 108
VStem: 51 114 477 110
LayerCount: 2
Fore
SplineSet
171 906 m 1
 172 906 l 1
 172 843 162 780 162 717 c 0
 162 613 173 47 307 47 c 0
 464 47 478 454 478 564 c 0
 478 723 456 882 455 1041 c 1
 445 1061 l 1
 451 1077 l 1
 448 1171 384 1269 282 1269 c 2
 209 1269 l 1
 180 1150 192 1026 171 906 c 1
315 -38 m 0
 82 -38 51 410 51 626 c 0
 51 658 53 677 53 704 c 0
 53 711 52 714 50 714 c 1
 50 751 l 2
 50 860 49 1378 204 1378 c 0
 224 1378 245 1369 258 1353 c 1
 370 1319 425 1351 498 1237 c 0
 572 1122 588 932 588 798 c 2
 588 793 l 1
 584 783 l 1
 584 706 588 628 588 551 c 0
 588 368 573 -38 315 -38 c 0
EndSplineSet
EndChar

StartChar: p
Encoding: 112 112 75
Width: 483
Flags: HW
LayerCount: 2
Fore
SplineSet
208 1228 m 1
 208 1231 201 1231 199 1231 c 1
 186 1210 l 1
 186 1115 l 2
 186 982 187 849 188 716 c 1
 190 713 l 1
 309 729 312 969 312 1059 c 0
 312 1136 308 1228 208 1228 c 1
70 1271 m 1
 71 1270 l 1
 76 1297 93 1342 126 1342 c 2
 216 1342 l 2
 381 1342 424 1180 424 1044 c 0
 424 831 421 699 189 628 c 1
 189 409 l 2
 189 279 205 151 205 21 c 0
 205 -14 177 -39 143 -39 c 2
 136 -39 l 1
 93 -14 l 1
 71 85 68 186 68 287 c 0
 68 409 76 530 76 652 c 1
 69 668 64 685 64 702 c 2
 64 709 l 1
 83 747 84 841 84 885 c 0
 84 944 87 1012 87 1080 c 0
 87 1147 84 1214 70 1271 c 1
EndSplineSet
EndChar

StartChar: q
Encoding: 113 113 76
Width: 644
Flags: HW
LayerCount: 2
Fore
SplineSet
271 1288 m 0
 172 1288 151 785 151 699 c 0
 151 590 151 7 293 6 c 1
 312 14 333 18 353 18 c 0
 408 18 473 439 473 511 c 2
 473 869 l 2
 473 1004 459 1288 271 1288 c 0
500 -434 m 1
 502 -432 l 1
 449 -432 382 -427 344 -385 c 1
 344 -276 320 -169 299 -62 c 1
 126 -25 91 81 74 241 c 0
 56 411 52 583 52 754 c 0
 52 903 61 1369 277 1369 c 2
 283 1369 l 1
 313 1356 346 1353 376 1341 c 0
 570 1262 582 990 582 812 c 0
 582 635 579 30 399 -49 c 1
 399 -143 425 -235 445 -326 c 1
 455 -326 l 2
 496 -326 550 -333 550 -384 c 0
 550 -412 528 -434 500 -434 c 1
EndSplineSet
EndChar

StartChar: r
Encoding: 114 114 77
Width: 504
Flags: HW
LayerCount: 2
Fore
SplineSet
426 -35 m 0
 302 -35 240 576 191 689 c 1
 166 686 l 1
 166 615 164 540 164 464 c 0
 164 319 170 169 203 37 c 1
 180 -18 l 1
 123 -18 l 1
 96 12 l 1
 97 58 98 103 98 149 c 0
 98 518 63 898 63 1268 c 0
 63 1314 74 1365 131 1365 c 0
 265 1365 384 1295 384 1149 c 2
 384 1005 l 2
 384 912 321 817 279 736 c 1
 325 533 351 296 438 107 c 0
 450 80 472 47 472 17 c 0
 472 -10 455 -35 426 -35 c 0
282 1098 m 0
 282 1175 276 1287 174 1289 c 1
 172 1280 167 1269 167 1260 c 0
 167 1102 174 945 175 787 c 1
 247 824 282 1023 282 1098 c 0
EndSplineSet
EndChar

StartChar: s
Encoding: 115 115 78
Width: 445
Flags: HW
LayerCount: 2
Fore
SplineSet
150 1075 m 0
 150 811 395 689 395 342 c 0
 395 191 337 -19 153 -23 c 1
 141 -28 l 1
 97 -22 55 3 49 51 c 1
 72 86 l 1
 100 82 128 71 157 71 c 0
 268 71 295 286 295 367 c 0
 295 631 50 790 50 1086 c 0
 50 1194 99 1381 235 1381 c 0
 279 1381 336 1349 336 1300 c 0
 336 1273 309 1261 286 1261 c 0
 272 1261 255 1266 243 1273 c 1
 175 1271 150 1127 150 1075 c 0
EndSplineSet
EndChar

StartChar: t
Encoding: 116 116 79
Width: 493
Flags: HW
LayerCount: 2
Fore
SplineSet
257 260 m 1
 256 260 l 1
 244 299 199 1154 197 1255 c 1
 155 1256 23 1255 23 1316 c 0
 23 1344 65 1360 88 1360 c 0
 181 1360 273 1341 366 1341 c 0
 376 1341 387 1342 399 1342 c 0
 431 1342 463 1336 463 1293 c 0
 463 1257 427 1237 395 1237 c 0
 363 1237 332 1247 301 1251 c 1
 300 1245 297 1237 297 1230 c 0
 297 841 365 456 365 67 c 0
 365 34 336 6 303 6 c 2
 295 6 l 1
 257 33 l 1
 257 85 253 138 253 190 c 0
 253 213 256 237 257 260 c 1
EndSplineSet
EndChar

StartChar: u
Encoding: 117 117 80
Width: 641
Flags: HMW
HStem: -31 62<261.5 367 261.5 445.5> 1335 21G
VStem: 54 106 439 120 465 113
LayerCount: 2
Fore
SplineSet
520 1389 m 0xe8
 580 1389 583 1336 583 1290 c 0
 583 1221 569 1151 569 1084 c 0
 569 1027 560 970 560 913 c 0
 560 901 562 890 562 878 c 0
 562 874 562 869 561 865 c 0
 519 665 593 -31 298 -31 c 0
 93 -31 68 257 68 473 c 0
 68 693 79 821 79 1013 c 0
 79 1114 74 1213 54 1306 c 1
 76 1355 l 1
 146 1355 160 1289 160 1232 c 2
 160 675 l 2
 160 530 189 386 189 241 c 0
 189 152 204 31 319 31 c 0
 415 31 434 479 439 559 c 0xf0
 453 808 465 1057 465 1307 c 0
 465 1319 464 1330 464 1341 c 0
 464 1369 471 1389 520 1389 c 0xe8
EndSplineSet
EndChar

StartChar: v
Encoding: 118 118 81
Width: 666
Flags: HW
LayerCount: 2
Fore
SplineSet
343 247 m 1
 362 341 372 437 383 532 c 0
 416 817 484 1096 531 1378 c 1
 577 1396 l 1
 600 1393 624 1377 624 1351 c 0
 624 1170 544 998 515 821 c 0
 495 698 491 572 472 449 c 0
 460 375 434 304 421 230 c 0
 408 156 424 -24 312 -24 c 2
 304 -24 l 1
 266 7 l 1
 266 377 176 754 84 1110 c 0
 71 1161 28 1274 28 1319 c 0
 28 1345 53 1366 78 1366 c 0
 156 1366 167 1194 179 1139 c 0
 244 843 300 547 343 247 c 1
EndSplineSet
EndChar

StartChar: w
Encoding: 119 119 82
Width: 802
Flags: HW
LayerCount: 2
Fore
SplineSet
637 1292 m 1
 641 1291 l 1
 636 1304 634 1316 634 1327 c 0
 634 1357 652 1377 697 1377 c 0
 726 1377 749 1360 749 1329 c 0
 749 1301 747 1272 740 1245 c 1
 744 1234 l 1
 724 1173 724 1109 724 1046 c 0
 724 1041 728 1033 730 1028 c 1
 717 986 l 1
 724 970 l 1
 716 948 l 1
 723 905 l 1
 716 896 l 1
 716 695 710 485 675 286 c 0
 666 235 653 192 653 139 c 0
 653 86 653 -69 574 -69 c 0
 526 -69 515 -13 515 25 c 0
 515 131 485 233 471 337 c 0
 445 538 439 741 409 942 c 1
 405 903 402 865 402 826 c 0
 402 636 361 450 338 262 c 0
 331 205 323 -43 245 -43 c 0
 136 -43 143 436 133 522 c 0
 120 632 96 740 88 850 c 0
 78 989 88 1164 31 1293 c 1
 42 1316 65 1329 90 1329 c 0
 150 1329 156 1238 156 1195 c 0
 156 888 236 589 247 283 c 1
 275 474 302 665 308 858 c 0
 310 923 310 988 320 1052 c 0
 327 1097 334 1141 334 1186 c 1
 389 1210 l 1
 419 1210 453 1194 453 1160 c 1
 450 1143 l 1
 531 871 531 586 572 307 c 1
 602 531 610 758 610 984 c 0
 610 1087 637 1189 637 1292 c 1
EndSplineSet
EndChar

StartChar: x
Encoding: 120 120 83
Width: 471
Flags: HW
LayerCount: 2
Fore
SplineSet
348 638 m 1
 348 646 l 1
 395 646 l 1
 395 638 l 1
 348 638 l 1
180 660 m 1
 181 660 l 1
 179 733 85 1172 52 1219 c 1
 54 1241 l 1
 41 1254 35 1274 35 1292 c 0
 35 1322 72 1334 96 1334 c 0
 165 1334 154 1240 164 1194 c 0
 185 1094 213 995 234 894 c 1
 249 981 268 1069 268 1158 c 0
 268 1181 267 1204 267 1225 c 0
 267 1286 277 1335 359 1357 c 1
 397 1309 l 1
 362 1258 360 1193 360 1133 c 1
 362 1109 l 1
 330 1021 284 741 284 646 c 0
 284 475 432 175 432 54 c 0
 432 24 405 3 377 3 c 0
 361 3 344 9 330 17 c 1
 299 156 261 294 231 433 c 1
 211 320 213 203 179 93 c 1
 180 86 180 78 180 69 c 0
 180 33 169 -7 127 -7 c 0
 100 -7 65 8 65 40 c 0
 65 253 180 447 180 660 c 1
EndSplineSet
EndChar

StartChar: y
Encoding: 121 121 84
Width: 513
Flags: HMW
HStem: 1340 20G
VStem: 236 98 253 101
LayerCount: 2
Fore
SplineSet
353 134 m 1xa0
 355 137 l 1
 355 109 l 2
 355 53 350 -28 288 -28 c 0
 261 -28 241 -6 231 17 c 1
 254 62 254 300 254 364 c 0
 254 464 241 564 237 664 c 1
 224 692 l 1
 230 717 l 1
 190 825 30 1202 30 1288 c 2
 30 1299 l 1
 76 1333 l 1
 155 1331 238 951 264 877 c 1
 294 954 334 1362 424 1362 c 0
 448 1362 474 1346 474 1319 c 0
 474 1118 340 932 336 726 c 1
 341 715 347 700 347 688 c 0
 347 668 342 649 334 631 c 1xc0
 334 570 350 511 351 451 c 2
 353 134 l 1xa0
EndSplineSet
EndChar

StartChar: z
Encoding: 122 122 85
Width: 493
Flags: HW
LayerCount: 2
Fore
SplineSet
278 111 m 1
 278 112 l 1
 313 112 361 109 361 62 c 0
 361 25 320 12 290 12 c 0
 250 12 209 18 169 18 c 0
 142 18 123 -4 96 -4 c 0
 67 -4 41 18 41 48 c 0
 41 115 92 263 112 335 c 0
 141 439 158 546 185 651 c 0
 237 853 334 1045 344 1256 c 1
 288 1254 233 1244 177 1244 c 0
 147 1244 124 1272 124 1301 c 0
 124 1356 267 1359 332 1359 c 0
 367 1359 450 1364 450 1302 c 0
 450 1172 373 1059 353 933 c 0
 308 653 168 393 157 107 c 1
 192 105 l 1
 221 105 249 111 278 111 c 1
EndSplineSet
EndChar

StartChar: cent
Encoding: 162 162 86
Width: 605
Flags: HW
LayerCount: 2
Fore
SplineSet
279 203 m 1
 276 202 l 1
 276 239 284 276 284 313 c 1
 52 402 49 560 49 777 c 0
 49 943 54 1156 212 1254 c 1
 208 1292 201 1330 201 1368 c 0
 201 1403 207 1456 253 1456 c 2
 260 1456 l 1
 290 1436 l 1
 287 1414 285 1393 285 1371 c 0
 285 1332 290 1293 295 1254 c 1
 354 1236 472 1218 479 1140 c 1
 477 1140 l 1
 477 1135 l 2
 477 1114 459 1084 435 1084 c 0
 403 1084 378 1112 367 1140 c 1
 309 1169 l 1
 304 1169 l 1
 309 921 365 676 365 428 c 0
 365 420 363 411 363 403 c 0
 363 399 364 395 365 391 c 1
 443 395 478 452 517 511 c 1
 558 511 576 492 576 451 c 0
 576 373 438 307 372 301 c 1
 368 275 364 249 364 222 c 0
 364 157 378 93 378 28 c 0
 378 2 356 -20 330 -20 c 2
 321 -20 l 1
 283 15 l 1
 286 32 287 49 287 65 c 0
 287 111 279 157 279 203 c 1
213 1125 m 1
 161 1049 148 882 148 790 c 0
 148 699 152 444 271 424 c 1
 270 656 258 897 213 1125 c 1
EndSplineSet
EndChar

StartChar: sterling
Encoding: 163 163 87
Width: 712
Flags: HW
LayerCount: 2
Fore
SplineSet
94 2 m 1
 94 6 l 1
 69 8 36 23 36 53 c 0
 36 123 123 125 165 158 c 0
 212 194 227 325 227 382 c 0
 227 550 161 707 120 867 c 1
 95 871 76 893 76 918 c 0
 76 937 86 956 103 966 c 1
 100 1057 78 1147 78 1238 c 0
 78 1329 93 1632 223 1632 c 2
 288 1632 l 2
 368 1632 455 1474 455 1403 c 2
 455 1394 l 1
 423 1359 l 1
 369 1359 365 1380 342 1422 c 1
 342 1459 l 1
 334 1475 328 1492 324 1509 c 1
 315 1509 l 1
 302 1523 285 1536 265 1539 c 1
 257 1536 l 1
 238 1519 l 1
 231 1519 l 1
 203 1486 177 1318 177 1270 c 0
 177 1173 176 1071 196 976 c 1
 265 979 332 1002 401 1002 c 0
 428 1002 453 980 453 952 c 0
 453 873 269 891 217 883 c 1
 248 717 324 548 324 378 c 0
 324 305 298 238 277 169 c 1
 367 162 452 125 542 125 c 0
 574 125 606 130 635 144 c 1
 684 109 l 1
 684 41 634 27 578 27 c 0
 542 27 505 33 478 34 c 1
 465 25 l 1
 416 56 339 62 282 68 c 1
 278 71 l 1
 241 70 129 21 94 2 c 1
EndSplineSet
EndChar

StartChar: currency
Encoding: 164 164 88
Width: 828
Flags: HW
LayerCount: 2
Fore
SplineSet
213 696 m 1
 216 696 l 1
 217 687 218 678 218 669 c 0
 218 641 213 614 213 585 c 0
 213 527 220 462 267 421 c 1
 267 332 340 305 417 305 c 0
 607 305 644 640 644 779 c 0
 644 840 619 1027 583 1071 c 1
 554 1077 534 1103 531 1132 c 1
 501 1165 452 1181 408 1181 c 0
 382 1181 317 1121 301 1100 c 1
 316 1086 l 1
 316 1055 310 1009 269 1009 c 0
 244 1009 213 774 213 696 c 1
645 251 m 1
 645 248 l 1
 620 293 l 1
 555 235 468 205 381 205 c 0
 312 205 247 243 199 290 c 1
 182 253 162 201 113 201 c 0
 69 201 49 236 49 276 c 0
 49 315 114 360 135 392 c 1
 106 446 103 507 103 567 c 0
 103 692 107 977 175 1078 c 1
 152 1119 78 1160 78 1209 c 0
 78 1235 101 1255 126 1255 c 0
 178 1255 207 1209 234 1172 c 1
 261 1202 322 1285 364 1285 c 0
 443 1285 520 1259 586 1216 c 1
 620 1260 647 1351 715 1351 c 2
 725 1351 l 1
 768 1304 l 1
 764 1241 673 1165 673 1141 c 0
 673 1019 763 902 763 772 c 0
 763 643 696 525 696 396 c 0
 696 335 773 308 773 247 c 0
 773 219 751 195 723 195 c 0
 688 195 649 212 645 251 c 1
EndSplineSet
EndChar

StartChar: yen
Encoding: 165 165 89
Width: 890
Flags: HW
LayerCount: 2
Fore
SplineSet
23 1764 m 1
 26 1759 l 1
 42 1766 59 1774 76 1774 c 0
 175 1774 420 1293 477 1207 c 1
 514 1302 633 1832 730 1832 c 0
 760 1832 788 1809 788 1778 c 1
 786 1768 l 1
 725 1589 661 1422 614 1238 c 0
 598 1176 565 1121 550 1059 c 1
 575 1056 l 1
 603 1056 669 1066 730 1066 c 0
 797 1066 857 1054 857 1005 c 0
 857 951 773 947 735 948 c 2
 544 950 l 1
 544 887 l 1
 569 887 630 895 692 895 c 0
 772 895 852 881 852 820 c 0
 852 789 821 766 792 766 c 2
 684 766 l 1
 705 776 l 1
 539 776 l 1
 538 564 508 354 508 142 c 0
 508 128 509 111 509 94 c 0
 509 45 501 -8 440 -8 c 0
 412 -8 375 6 375 40 c 2
 375 45 l 1
 402 112 418 663 418 773 c 1
 348 774 277 760 207 762 c 2
 176 763 l 1
 152 776 133 798 122 823 c 1
 138 875 l 1
 234 875 331 878 427 883 c 1
 429 907 429 930 429 954 c 1
 428 958 l 1
 401 957 336 948 275 948 c 0
 206 948 143 960 143 1010 c 2
 143 1017 l 1
 168 1056 l 1
 221 1056 273 1052 326 1052 c 0
 360 1052 394 1054 428 1059 c 1
 428 1071 l 1
 248 1251 216 1535 23 1705 c 1
 23 1764 l 1
EndSplineSet
EndChar

StartChar: dieresis
Encoding: 168 168 90
Width: 694
Flags: HMW
HStem: 954 142
VStem: 67 141<1005 1041> 486 141
LayerCount: 2
Fore
SplineSet
487 1023 m 0
 487 1062 521 1098 560 1098 c 0
 597 1098 628 1061 628 1025 c 0
 628 983 591 954 551 954 c 0
 515 954 487 988 487 1023 c 0
126 954 m 0
 87 954 67 984 67 1021 c 0
 67 1061 96 1095 137 1095 c 0
 175 1095 208 1065 208 1026 c 0
 208 984 165 954 126 954 c 0
EndSplineSet
EndChar

StartChar: copyright
Encoding: 169 169 91
Width: 1113
Flags: HW
LayerCount: 2
Fore
SplineSet
398 911 m 1
 397 911 l 1
 389 878 388 844 388 809 c 0
 388 748 369 332 575 332 c 0
 673 332 691 440 757 440 c 0
 794 440 811 404 811 372 c 0
 811 283 659 225 585 225 c 0
 514 225 457 265 393 291 c 1
 281 504 268 570 268 813 c 0
 268 1009 265 1499 551 1499 c 0
 653 1499 792 1380 792 1275 c 0
 792 1247 771 1223 742 1223 c 0
 642 1223 650 1387 560 1387 c 0
 407 1387 406 1026 394 921 c 1
 398 911 l 1
172 940 m 1
 173 940 l 1
 173 825 185 710 192 595 c 0
 206 366 218 81 519 81 c 0
 776 81 878 234 933 464 c 1
 931 470 930 476 930 483 c 0
 930 516 954 558 954 589 c 2
 954 894 l 2
 954 971 929 1046 915 1121 c 0
 876 1328 817 1528 638 1658 c 0
 604 1683 565 1713 520 1713 c 0
 214 1713 172 1160 172 940 c 1
55 924 m 0
 55 1208 105 1812 496 1812 c 0
 958 1812 1068 1105 1068 757 c 0
 1068 403 985 -20 545 -20 c 0
 100 -20 87 311 67 660 c 0
 62 748 55 836 55 924 c 0
EndSplineSet
EndChar

StartChar: guillemotleft
Encoding: 171 171 92
Width: 698
Flags: HW
LayerCount: 2
Fore
SplineSet
442 1440 m 1
 335 1193 262 929 148 687 c 1
 181 526 505 65 505 -13 c 0
 505 -45 467 -59 441 -59 c 0
 396 -59 37 607 37 697 c 0
 37 749 260 1261 298 1361 c 1
 302 1398 334 1456 359 1483 c 1
 359 1485 l 1
 365 1486 372 1489 378 1489 c 0
 407 1489 440 1473 442 1440 c 1
665 49 m 1
 663 19 648 -22 611 -22 c 0
 599 -22 583 -22 571 -18 c 0
 539 -8 251 612 211 698 c 1
 214 798 397 1125 435 1255 c 0
 446 1293 473 1447 534 1447 c 0
 536 1447 538 1446 541 1446 c 1
 586 1411 l 1
 559 1193 328 869 328 702 c 0
 328 679 602 135 639 69 c 1
 665 49 l 1
EndSplineSet
EndChar

StartChar: registered
Encoding: 174 174 93
Width: 1125
Flags: HW
LayerCount: 2
Fore
SplineSet
545 1525 m 0
 455 1525 437 1475 437 1407 c 0
 437 1364 445 1312 445 1263 c 0
 445 1175 446 1086 468 1000 c 1
 589 1049 653 1142 653 1272 c 0
 653 1347 655 1525 545 1525 c 0
853 199 m 0
 853 175 819 143 796 143 c 0
 674 143 572 797 526 914 c 1
 471 891 l 1
 469 859 466 828 466 796 c 0
 466 600 511 406 511 210 c 0
 511 174 495 143 455 143 c 0
 419 143 382 169 382 208 c 0
 382 295 383 383 374 470 c 0
 367 539 348 606 348 676 c 2
 348 1075 l 2
 348 1202 323 1327 323 1454 c 0
 323 1603 405 1635 539 1635 c 0
 746 1635 775 1433 775 1270 c 0
 775 1023 645 1007 634 969 c 1
 637 888 782 425 816 314 c 1
 823 314 l 1
 823 271 853 239 853 199 c 0
958 706 m 0
 958 1023 941 1354 832 1655 c 1
 846 1670 l 1
 809 1727 674 1832 605 1832 c 0
 203 1832 180 1241 180 954 c 0
 180 747 182 179 320 27 c 0
 356 -13 402 -31 443 -64 c 1
 503 -76 l 1
 522 -84 l 1
 939 -79 958 396 958 706 c 0
594 -190 m 0
 87 -190 62 366 62 765 c 0
 62 1072 14 1938 590 1938 c 0
 715 1938 829 1851 900 1755 c 1
 1024 1679 1072 968 1072 807 c 0
 1072 470 1071 -190 594 -190 c 0
EndSplineSet
EndChar

StartChar: acute
Encoding: 180 180 94
Width: 453
Flags: HMW
HStem: 1552 20G
LayerCount: 2
Fore
SplineSet
52 1339 m 1
 53 1341 l 1
 55 1396 272 1528 320 1573 c 1
 356 1573 398 1560 398 1517 c 0
 398 1500 392 1484 389 1468 c 1
 301 1432 186 1354 121 1285 c 1
 87 1285 52 1300 52 1339 c 1
EndSplineSet
EndChar

StartChar: paragraph
Encoding: 182 182 95
Width: 887
Flags: HW
LayerCount: 2
Fore
SplineSet
673 1859 m 1
 672 1858 l 1
 728 1865 l 1
 737 1854 l 1
 772 1852 860 1838 860 1790 c 0
 860 1747.00922259 820.021559371 1736.89360214 780 1739 c 1
 781 1540 794 1341 794 1142 c 0
 794 850 782 557 782 265 c 0
 782 188 794 113 794 36 c 0
 794 4 767 -20 736 -20 c 0
 669 -20 661 52 661 103 c 0
 661 461 680 819 680 1177 c 0
 680 1326 665 1474 665 1623 c 0
 665 1642 668 1666 668 1689 c 0
 668 1731 658 1769 606 1769 c 0
 599 1769 597 1700 597 1689 c 0
 597 1452 624 1217 624 980 c 0
 624 674 586 370 586 64 c 0
 586 21 576 -8 527 -8 c 0
 491 -8 465 21 465 56 c 0
 465 359 508 661 508 964 c 0
 508 1009 505 1053 504 1098 c 1
 333 1098 95 1118 49 1321 c 0
 44 1342 45 1364 36 1384 c 1
 36 1747 201 1823 531 1854 c 1
 548 1871 570 1876 593 1876 c 0
 620 1876 647 1864 673 1859 c 1
149 1454 m 1
 148 1455 l 1
 148 1224 296 1196 491 1196 c 0
 495 1196 502 1199 506 1200 c 1
 506 1366 486 1531 486 1697 c 1
 488 1740 l 1
 461 1748 434 1748 406 1748 c 0
 259 1748 149 1591 149 1454 c 1
EndSplineSet
EndChar

StartChar: cedilla
Encoding: 184 184 96
Width: 404
Flags: HMW
HStem: -503 103
VStem: 101 99 216 133<-351 -323.5>
LayerCount: 2
Fore
SplineSet
82 -157 m 1
 99 -123 101 -84 101 -45 c 2
 101 2 l 1
 213 18 l 1
 206 -18 202 -54 200 -91 c 1
 312 -112 349 -216 349 -318 c 0
 349 -406 260 -504 170 -504 c 0
 123 -504 58 -481 58 -425 c 0
 58 -400 80 -381 104 -381 c 0
 127 -381 151 -388 170 -401 c 1
 191 -399 216 -361 216 -341 c 0
 216 -306 201 -273 193 -240 c 1
 228 -275 l 1
 228 -266 l 2
 228 -247 226 -228 211 -214 c 1
 191 -217 176 -219 164 -219 c 0
 128 -219 113 -204 82 -157 c 1
EndSplineSet
EndChar

StartChar: guillemotright
Encoding: 187 187 97
Width: 696
Flags: HW
LayerCount: 2
Fore
SplineSet
323 1490 m 0
 327 1490 334 1487 338 1486 c 1
 341 1486 l 1
 341 1484 l 1
 342 1485 l 1
 370 1457 399 1402 404 1363 c 1
 442 1264 664 751 664 700 c 0
 664 610 305 -56 261 -56 c 0
 235 -56 196 -43 196 -10 c 0
 196 68 520 528 554 689 c 1
 439 928 407 1211 258 1433 c 1
 261 1467 289 1490 323 1490 c 0
130 -19 m 1
 126 -19 l 2
 113 -19 101 -23 88 -23 c 0
 51 -23 35 19 34 49 c 1
 59 69 l 1
 95 136 369 680 369 702 c 0
 369 908 114 1202 112 1411 c 1
 157 1446 l 1
 167 1444 l 1
 241 1410 243 1324 263 1255 c 0
 301 1123 484 803 487 698 c 1
 130 -19 l 1
EndSplineSet
EndChar

StartChar: Agrave
Encoding: 192 192 98
Width: 656
Flags: HMW
HStem: 369 72 1759 133
VStem: 465 131
LayerCount: 2
Fore
SplineSet
467 1528 m 1
 563.031515492 1374.34957521 481.561818975 960.063138807 560 793 c 1
 559 792 l 1
 555 770 552 740 552 709 c 0
 552 671 557 634 573 610 c 1
 573 429 595 250 595 69 c 0
 595 23 574 0 527 0 c 0
 487 0 464 12 464 53 c 1
 471 63 l 1
 462 90 461 120 461 150 c 2
 461 179 l 1
 464 320 l 1
 420 350 281 368 225 372 c 1
 174 285 201 116 143 22 c 1
 124 22 l 2
 92 22 43 25 34 63 c 1
 93 148 246 1089 287 1278 c 0
 298 1331 339 1542 406 1542 c 0
 428 1542 449 1538 467 1524 c 1
 467 1528 l 1
462 444 m 1
 452 569 394 1108 394 1235 c 0
 394 1242 394 1248 395 1253 c 1
 378 1235 304 735 285 658 c 0
 268 593 241 530 238 463 c 1
 297 447 359 440 420 440 c 0
 433 440 447 443 459 446 c 1
 462 444 l 1
66 1824 m 0
 66 1848 71 1877 94 1891 c 1
 133 1891 177 1893 208 1866 c 1
 262 1847 448 1799 448 1730 c 0
 448 1706 422 1690 400 1690 c 0
 368 1690 229 1748 190 1763 c 1
 179 1762 167 1761 155 1761 c 0
 112 1761 66 1772 66 1824 c 0
EndSplineSet
EndChar

StartChar: Aacute
Encoding: 193 193 99
Width: 656
Flags: HMW
HStem: 369 72 1957 20
VStem: 465 131<49 56>
LayerCount: 2
Fore
SplineSet
333 1744 m 1
 334 1746 l 1
 336 1801 553 1933 601 1978 c 1
 637 1978 679 1965 679 1922 c 0
 679 1905 673 1889 670 1873 c 1
 582 1837 467 1759 402 1690 c 1
 368 1690 333 1705 333 1744 c 1
463 447 m 1
 453 572 395 1111 395 1238 c 0
 395 1245 395 1251 396 1256 c 1
 379 1238 305 738 286 661 c 0
 269 596 242 533 239 466 c 1
 298 450 360 443 421 443 c 0
 434 443 448 446 460 449 c 1
 463 447 l 1
468 1531 m 1
 564.031515492 1377.34957521 482.561818975 963.063138807 561 796 c 1
 560 795 l 1
 556 773 553 743 553 712 c 0
 553 674 558 637 574 613 c 1
 574 432 596 253 596 72 c 0
 596 26 575 3 528 3 c 0
 488 3 465 15 465 56 c 1
 472 66 l 1
 463 93 462 123 462 153 c 2
 462 182 l 1
 465 323 l 1
 421 353 282 371 226 375 c 1
 175 288 202 119 144 25 c 1
 125 25 l 2
 93 25 44 28 35 66 c 1
 94 151 247 1092 288 1281 c 0
 299 1334 340 1545 407 1545 c 0
 429 1545 450 1541 468 1527 c 1
 468 1531 l 1
EndSplineSet
EndChar

StartChar: Acircumflex
Encoding: 194 194 100
Width: 656
Flags: HMW
HStem: 369 72
VStem: 465 131
LayerCount: 2
Fore
SplineSet
411 1957 m 1
 377 1859 365 1776 298 1692 c 1
 231 1740 l 1
 238 1809 353 2123 428 2123 c 0
 467 2123 480 2090 480 2056 c 0
 480 1970 542 1891 542 1818 c 1
 541 1807 l 1
 555 1776 l 1
 553 1766 l 1
 555 1759 560 1748 560 1741 c 0
 560 1708 523 1693 495 1691 c 1
 451 1718 l 1
 443 1798 430 1878 411 1957 c 1
460 445 m 1
 450 570 392 1109 392 1236 c 0
 392 1243 392 1249 393 1254 c 1
 376 1236 302 736 283 659 c 0
 266 594 239 531 236 464 c 1
 295 448 357 441 418 441 c 0
 431 441 445 444 457 447 c 1
 460 445 l 1
465 1529 m 1
 561.031515492 1375.34957521 479.561818975 961.063138807 558 794 c 1
 557 793 l 1
 553 771 550 741 550 710 c 0
 550 672 555 635 571 611 c 1
 571 430 593 251 593 70 c 0
 593 24 572 1 525 1 c 0
 485 1 462 13 462 54 c 1
 469 64 l 1
 460 91 459 121 459 151 c 2
 459 180 l 1
 462 321 l 1
 418 351 279 369 223 373 c 1
 172 286 199 117 141 23 c 1
 122 23 l 2
 90 23 41 26 32 64 c 1
 91 149 244 1090 285 1279 c 0
 296 1332 337 1543 404 1543 c 0
 426 1543 447 1539 465 1525 c 1
 465 1529 l 1
EndSplineSet
EndChar

StartChar: Atilde
Encoding: 195 195 101
Width: 656
Flags: HMW
HStem: 369 72
VStem: 465 131<47 54>
LayerCount: 2
Fore
SplineSet
156 1749 m 1
 157 1749 l 1
 157 1837 210 1918 305 1918 c 2
 312 1918 l 1
 407 1866 l 1
 417 1839 449 1794 481 1794 c 1
 495 1797 l 1
 500 1795 l 1
 518 1811 534 1814 534 1840 c 0
 534 1853 523 1870 521 1885 c 1
 530 1903 546 1917 567 1917 c 0
 616 1917 637 1865 637 1823 c 0
 637 1752 576 1691 505 1691 c 0
 420 1691 359 1758 308 1817 c 1
 303 1819 l 1
 284 1819 l 1
 255 1788 l 1
 267 1740 l 1
 231 1690 l 1
 194 1690 156 1707 156 1749 c 1
463 445 m 1
 453 570 395 1109 395 1236 c 0
 395 1243 395 1249 396 1254 c 1
 379 1236 305 736 286 659 c 0
 269 594 242 531 239 464 c 1
 298 448 360 441 421 441 c 0
 434 441 448 444 460 447 c 1
 463 445 l 1
468 1529 m 1
 564.031515492 1375.34957521 482.561818975 961.063138807 561 794 c 1
 560 793 l 1
 556 771 553 741 553 710 c 0
 553 672 558 635 574 611 c 1
 574 430 596 251 596 70 c 0
 596 24 575 1 528 1 c 0
 488 1 465 13 465 54 c 1
 472 64 l 1
 463 91 462 121 462 151 c 2
 462 180 l 1
 465 321 l 1
 421 351 282 369 226 373 c 1
 175 286 202 117 144 23 c 1
 125 23 l 2
 93 23 44 26 35 64 c 1
 94 149 247 1090 288 1279 c 0
 299 1332 340 1543 407 1543 c 0
 429 1543 450 1539 468 1525 c 1
 468 1529 l 1
EndSplineSet
EndChar

StartChar: Adieresis
Encoding: 196 196 102
Width: 656
Flags: HMW
HStem: 369 72 1690 142
VStem: 116 141<1741 1777> 464 131<46 53> 535 141
LayerCount: 2
Fore
SplineSet
467 1528 m 1
 563.031515492 1374.34957521 481.561818975 960.063138807 560 793 c 1xe8
 559 792 l 1
 555 770 552 740 552 709 c 0
 552 671 557 634 573 610 c 1
 573 429 595 250 595 69 c 0
 595 23 574 0 527 0 c 0
 487 0 464 12 464 53 c 1
 471 63 l 1
 462 90 461 120 461 150 c 2
 461 179 l 1
 464 320 l 1xf0
 420 350 281 368 225 372 c 1
 174 285 201 116 143 22 c 1
 124 22 l 2
 92 22 43 25 34 63 c 1
 93 148 246 1089 287 1278 c 0
 298 1331 339 1542 406 1542 c 0
 428 1542 449 1538 467 1524 c 1
 467 1528 l 1
462 444 m 1
 452 569 394 1108 394 1235 c 0
 394 1242 394 1248 395 1253 c 1
 378 1235 304 735 285 658 c 0
 268 593 241 530 238 463 c 1
 297 447 359 440 420 440 c 0
 433 440 447 443 459 446 c 1
 462 444 l 1
536 1759 m 0
 536 1798 570 1834 609 1834 c 0
 646 1834 677 1797 677 1761 c 0
 677 1719 640 1690 600 1690 c 0
 564 1690 536 1724 536 1759 c 0
175 1690 m 0
 136 1690 116 1720 116 1757 c 0
 116 1797 145 1831 186 1831 c 0
 224 1831 257 1801 257 1762 c 0
 257 1720 214 1690 175 1690 c 0
EndSplineSet
EndChar

StartChar: Aring
Encoding: 197 197 103
Width: 656
Flags: HMW
HStem: 369 72
VStem: 465 131
LayerCount: 2
Fore
SplineSet
286 1688 m 0
 286 1749 339 1810 402 1810 c 0
 460 1810 511 1751 511 1695 c 0
 511 1624 455 1581 387 1581 c 0
 331 1581 286 1634 286 1688 c 0
376 1697 m 1
 375 1698 l 1
 382 1667 l 1
 414 1683 l 1
 414 1697 410 1714 400 1724 c 1
 376 1697 l 1
460 446 m 1
 450 571 392 1110 392 1237 c 0
 392 1244 392 1250 393 1255 c 1
 376 1237 302 737 283 660 c 0
 266 595 239 532 236 465 c 1
 295 449 357 442 418 442 c 0
 431 442 445 445 457 448 c 1
 460 446 l 1
465 1530 m 1
 561.031515492 1376.34957521 479.561818975 962.063138807 558 795 c 1
 557 794 l 1
 553 772 550 742 550 711 c 0
 550 673 555 636 571 612 c 1
 571 431 593 252 593 71 c 0
 593 25 572 2 525 2 c 0
 485 2 462 14 462 55 c 1
 469 65 l 1
 460 92 459 122 459 152 c 2
 459 181 l 1
 462 322 l 1
 418 352 279 370 223 374 c 1
 172 287 199 118 141 24 c 1
 122 24 l 2
 90 24 41 27 32 65 c 1
 91 150 244 1091 285 1280 c 0
 296 1333 337 1544 404 1544 c 0
 426 1544 447 1540 465 1526 c 1
 465 1530 l 1
EndSplineSet
EndChar

StartChar: AE
Encoding: 198 198 104
Width: 879
Flags: HW
LayerCount: 2
Fore
SplineSet
448 2 m 1
 450 3 l 1
 458 86 467 169 467 253 c 0
 467 380 457 506 457 633 c 1
 398 628 337 630 280 611 c 1
 179 226 l 2
 166 178 151 1 84 1 c 0
 61 1 44 27 44 48 c 0
 44 288 310 1103 396 1380 c 0
 413 1437 435 1544 512 1544 c 0
 565 1544 617 1554 670 1554 c 0
 707 1554 757 1546 757 1498 c 2
 757 1492 l 1
 736 1450 l 1
 671 1450 606 1447 542 1440 c 1
 544 1349 556 1258 556 1166 c 0
 556 1016 550 866 550 716 c 1
 600 720 648 735 698 735 c 2
 708 735 l 1
 750 687 l 1
 750 625 674 620 628 621 c 2
 549 622 l 1
 550 442 555 262 555 82 c 1
 631 83 706 103 782 103 c 0
 811 103 850 87 850 53 c 0
 850 -8 686 -12 606 -12 c 2
 574 -12 l 2
 544 -12 522 -38 493 -43 c 1
 448 2 l 1
453 706 m 1
 455 855 461 1004 461 1153 c 0
 461 1196 461 1240 459 1283 c 1
 400 1087 342 889 300 688 c 1
 351 691 403 695 453 706 c 1
EndSplineSet
EndChar

StartChar: Ccedilla
Encoding: 199 199 105
Width: 649
Flags: HMW
HStem: -535 103
VStem: 327 99 442 133<-383.5 -356>
LayerCount: 2
Fore
SplineSet
419 1443 m 1
 419 1444 l 1
 399 1439 l 1
 387 1442 l 1
 387 1427 l 1
 377 1427 l 1
 377 1445 l 1
 371 1447 l 1
 174 1447 169 1293 169 1139 c 0
 169 1092 175 1045 175 998 c 0
 175 950 157 903 157 855 c 0
 157 753 198 219 238 159 c 0
 271 109 336 92 392 92 c 0
 442 92 491 112 524 151 c 1
 546 151 568 154 589 161 c 1
 616 134 l 1
 616 32 525 -14 436 -28 c 1
 431 -59 427 -91 426 -123 c 1
 538 -144 575 -248 575 -350 c 0
 575 -438 486 -536 396 -536 c 0
 349 -536 284 -513 284 -457 c 0
 284 -432 306 -413 330 -413 c 0
 353 -413 377 -420 396 -433 c 1
 417 -430 442 -394 442 -373 c 0
 442 -339 427 -305 419 -272 c 1
 454 -307 l 1
 454 -297 l 2
 454 -278 451 -260 437 -246 c 1
 417 -249 401 -251 389 -251 c 0
 353 -251 339 -237 308 -189 c 1
 325 -154 327 -114 327 -76 c 2
 327 -30 l 1
 248 -13 166 49 132 123 c 0
 71 257 52 844 52 1036 c 0
 52 1099 54 1163 66 1225 c 1
 62 1247 60 1269 60 1289 c 0
 60 1462 209 1564 386 1564 c 0
 442 1564 529 1530 529 1464 c 0
 529 1433 500 1418 472 1418 c 0
 453 1418 428 1425 419 1443 c 1
EndSplineSet
EndChar

StartChar: Egrave
Encoding: 200 200 106
Width: 457
Flags: HMW
HStem: -12 118 751 120 1423 128 1759 133
VStem: 60 123 86 97 86 113
LayerCount: 2
Fore
SplineSet
210 104 m 1xf0
 245 106 279 110 314 110 c 0
 350 110 428 107 428 56 c 2
 428 49 l 1
 431 49 l 1
 400 -12 315 -13 256 -13 c 2
 192 -13 l 2
 144 -13 70 -11 70 54 c 0
 70 80 88 102 88 127 c 2
 90 434 l 2
 91 558 77 681 78 805 c 1
 78 951 88 1098 88 1244 c 0
 88 1315 62 1382 62 1453 c 2
 62 1460 l 1
 77 1485 91 1512 113 1532 c 1
 164 1532 214 1550 265 1550 c 0
 301 1550 359 1526 359 1483 c 0
 359 1431 308 1422 266 1422 c 0
 246 1422 227 1424 207 1424 c 0
 200 1424 192 1424 185 1423 c 1
 185 1310 201 1198 201 1085 c 0
 201 1007 192 929 191 851 c 1
 223 857 254 869 287 869 c 0
 317 869 347 843 347 812 c 0
 347 781 327 749 293 749 c 0
 280 749 261 751 242 751 c 0
 221 751 202 748 192 736 c 1
 192 678 206 622 206 564 c 1
 200 552 l 1
 200 160 l 1
 209 143 210 123 210 104 c 1xf0
-21 1763 m 1
 -31 1762 -44 1761 -56 1761 c 0
 -98 1761 -145 1772 -145 1823 c 0
 -145 1848 -140 1877 -117 1891 c 1
 -78 1891 -34 1893 -3 1866 c 1
 51 1847 237 1799 237 1730 c 0
 237 1706 211 1690 189 1690 c 0
 157 1690 18 1748 -21 1763 c 1
EndSplineSet
EndChar

StartChar: Eacute
Encoding: 201 201 107
Width: 457
Flags: HMW
HStem: -12 118 751 120 1423 128 1957 20
VStem: 60 123 86 97 86 113
LayerCount: 2
Fore
SplineSet
121 1744 m 1xf0
 122 1746 l 1
 124 1801 341 1933 389 1978 c 1
 425 1978 467 1965 467 1922 c 0
 467 1905 461 1889 458 1873 c 1
 370 1837 255 1759 190 1690 c 1
 156 1690 121 1705 121 1744 c 1xf0
211 107 m 1
 246 109 280 113 315 113 c 0
 351 113 429 110 429 59 c 2
 429 52 l 1
 432 52 l 1
 401 -9 316 -10 257 -10 c 2
 193 -10 l 2
 145 -10 71 -8 71 57 c 0
 71 83 89 105 89 130 c 2
 91 437 l 2
 92 561 78 684 79 808 c 1
 79 954 89 1101 89 1247 c 0
 89 1318 63 1385 63 1456 c 2
 63 1463 l 1
 78 1488 92 1515 114 1535 c 1
 165 1535 215 1553 266 1553 c 0
 302 1553 360 1529 360 1486 c 0
 360 1434 309 1425 267 1425 c 0
 247 1425 228 1427 208 1427 c 0
 201 1427 193 1427 186 1426 c 1
 186 1313 202 1201 202 1088 c 0
 202 1010 193 932 192 854 c 1
 224 860 255 872 288 872 c 0
 318 872 348 846 348 815 c 0
 348 784 328 752 294 752 c 0
 281 752 262 754 243 754 c 0
 222 754 203 751 193 739 c 1
 193 681 207 625 207 567 c 1
 201 555 l 1
 201 163 l 1
 210 146 211 126 211 107 c 1
EndSplineSet
EndChar

StartChar: Ecircumflex
Encoding: 202 202 108
Width: 457
Flags: HMW
HStem: -12 118 751 120 1423 128<256 283 239.5 287>
VStem: 60 123 86 97 86 113
LayerCount: 2
Fore
SplineSet
210 105 m 1xe0
 245 107 279 111 314 111 c 0
 350 111 428 108 428 57 c 2
 428 50 l 1
 431 50 l 1
 400 -11 315 -12 256 -12 c 2
 192 -12 l 2
 144 -12 70 -10 70 55 c 0
 70 81 88 103 88 128 c 2
 90 435 l 2
 91 559 77 682 78 806 c 1
 78 952 88 1099 88 1245 c 0
 88 1316 62 1383 62 1454 c 2
 62 1461 l 1
 77 1486 91 1513 113 1533 c 1
 164 1533 214 1551 265 1551 c 0
 301 1551 359 1527 359 1484 c 0
 359 1432 308 1423 266 1423 c 0
 246 1423 227 1425 207 1425 c 0
 200 1425 192 1425 185 1424 c 1
 185 1311 201 1199 201 1086 c 0
 201 1008 192 930 191 852 c 1
 223 858 254 870 287 870 c 0
 317 870 347 844 347 813 c 0
 347 782 327 750 293 750 c 0
 280 750 261 752 242 752 c 0
 221 752 202 749 192 737 c 1
 192 679 206 623 206 565 c 1
 200 553 l 1
 200 161 l 1
 209 144 210 124 210 105 c 1xe0
203 1957 m 1
 169 1859 157 1776 90 1692 c 1
 23 1740 l 1
 30 1809 145 2123 220 2123 c 0
 259 2123 272 2090 272 2056 c 0
 272 1970 334 1891 334 1818 c 1
 333 1807 l 1
 347 1776 l 1
 345 1766 l 1
 347 1759 352 1748 352 1741 c 0
 352 1708 315 1693 287 1691 c 1
 243 1718 l 1
 235 1798 222 1878 203 1957 c 1
EndSplineSet
EndChar

StartChar: Edieresis
Encoding: 203 203 109
Width: 457
Flags: HMW
HStem: -12 118 751 120 1423 128 1690 142
VStem: -95 141<1741 1777> 60 123 86 97 86 113 325 141<1741.5 1778.5>
LayerCount: 2
Fore
SplineSet
210 104 m 1xf880
 245 106 279 110 314 110 c 0
 350 110 428 107 428 56 c 2
 428 49 l 1
 431 49 l 1
 400 -12 315 -13 256 -13 c 2
 192 -13 l 2
 144 -13 70 -11 70 54 c 0
 70 80 88 102 88 127 c 2
 90 434 l 2
 91 558 77 681 78 805 c 1
 78 951 88 1098 88 1244 c 0
 88 1315 62 1382 62 1453 c 2
 62 1460 l 1
 77 1485 91 1512 113 1532 c 1
 164 1532 214 1550 265 1550 c 0
 301 1550 359 1526 359 1483 c 0
 359 1431 308 1422 266 1422 c 0
 246 1422 227 1424 207 1424 c 0
 200 1424 192 1424 185 1423 c 1
 185 1310 201 1198 201 1085 c 0
 201 1007 192 929 191 851 c 1
 223 857 254 869 287 869 c 0
 317 869 347 843 347 812 c 0
 347 781 327 749 293 749 c 0
 280 749 261 751 242 751 c 0
 221 751 202 748 192 736 c 1
 192 678 206 622 206 564 c 1
 200 552 l 1
 200 160 l 1
 209 143 210 123 210 104 c 1xf880
325 1759 m 0
 325 1798 359 1834 398 1834 c 0
 435 1834 466 1797 466 1761 c 0
 466 1719 429 1690 389 1690 c 0
 353 1690 325 1724 325 1759 c 0
-36 1690 m 0
 -73 1690 -95 1722 -95 1757 c 0
 -95 1797 -66 1831 -25 1831 c 0
 13 1831 46 1801 46 1762 c 0
 46 1720 3 1690 -36 1690 c 0
EndSplineSet
EndChar

StartChar: Igrave
Encoding: 204 204 110
Width: 432
Flags: HMW
HStem: -6 21 10 102 1441 111<294 304.5 263 316> 1759 133
VStem: 132 94 170 107
LayerCount: 2
Fore
SplineSet
278 17 m 1xb4
 279 18 l 1
 241 -5 l 1
 215 -5 187 -5 165 11 c 1
 132 11 36 16 36 63 c 0
 36 100 66 112 98 112 c 0x74
 115 112 129 109 141 109 c 0
 160 109 171 117 171 157 c 0
 171 473 133 788 133 1104 c 0
 133 1174 137 1243 137 1313 c 0
 137 1351 136 1389 132 1427 c 1
 117 1422 99 1418 84 1418 c 0
 57 1418 36 1429 36 1467 c 0
 36 1539 237 1552 289 1552 c 0
 320 1552 349 1528 349 1496 c 0
 349 1469 331 1441 301 1441 c 0
 287 1441 275 1442 265 1442 c 0
 241 1442 226 1436 226 1400 c 0xb8
 226 1000 278 602 278 202 c 1
 276 123 l 1
 290 125 304 126 318 126 c 0
 363 126 403 112 403 54 c 2
 403 42 l 1
 352 7 l 1
 327 7 303 16 278 17 c 1xb4
-51 1763 m 1
 -61 1762 -74 1761 -86 1761 c 0
 -128 1761 -175 1772 -175 1823 c 0
 -175 1848 -170 1877 -147 1891 c 1
 -108 1891 -64 1893 -33 1866 c 1
 21 1847 207 1799 207 1730 c 0
 207 1706 181 1690 159 1690 c 0
 127 1690 -12 1748 -51 1763 c 1
EndSplineSet
EndChar

StartChar: Iacute
Encoding: 205 205 111
Width: 432
Flags: HMW
HStem: -6 21 10 102 1441 111 1957 20
VStem: 132 94 170 107
LayerCount: 2
Fore
SplineSet
92 1744 m 1xb8
 93 1746 l 1
 95 1801 312 1933 360 1978 c 1
 396 1978 438 1965 438 1922 c 0
 438 1905 432 1889 429 1873 c 1
 341 1837 226 1759 161 1690 c 1
 127 1690 92 1705 92 1744 c 1xb8
279 20 m 1
 280 21 l 1
 242 -2 l 1
 216 -2 188 -2 166 14 c 1
 133 14 37 19 37 66 c 0
 37 103 67 115 99 115 c 0
 116 115 130 112 142 112 c 0x78
 161 112 172 120 172 160 c 0
 172 476 134 791 134 1107 c 0
 134 1177 138 1246 138 1316 c 0
 138 1354 137 1392 133 1430 c 1
 118 1425 100 1421 85 1421 c 0
 58 1421 37 1432 37 1470 c 0
 37 1542 238 1555 290 1555 c 0
 321 1555 350 1531 350 1499 c 0
 350 1472 332 1444 302 1444 c 0
 288 1444 276 1445 266 1445 c 0
 242 1445 227 1439 227 1403 c 0
 227 1003 279 605 279 205 c 1
 277 126 l 1xb4
 291 128 305 129 319 129 c 0
 364 129 404 115 404 57 c 2
 404 45 l 1
 353 10 l 1x78
 328 10 304 19 279 20 c 1
EndSplineSet
EndChar

StartChar: Icircumflex
Encoding: 206 206 112
Width: 432
Flags: HMW
HStem: -6 21 8 120 1441 111
VStem: 132 94 170 107
LayerCount: 2
Fore
SplineSet
278 18 m 1xa8
 279 19 l 1
 241 -4 l 1
 215 -4 187 -4 165 12 c 1
 132 12 36 17 36 64 c 0
 36 101 66 113 98 113 c 0
 115 113 129 110 141 110 c 0
 160 110 171 118 171 158 c 0
 171 474 133 789 133 1105 c 0
 133 1175 137 1244 137 1314 c 0
 137 1352 136 1390 132 1428 c 1
 117 1423 99 1419 84 1419 c 0
 57 1419 36 1430 36 1468 c 0
 36 1540 237 1553 289 1553 c 0
 320 1553 349 1529 349 1497 c 0
 349 1470 331 1442 301 1442 c 0
 287 1442 275 1443 265 1443 c 0
 241 1443 226 1437 226 1401 c 0xb0
 226 1001 278 603 278 203 c 1
 276 124 l 1
 290 126 304 127 318 127 c 0
 363 127 403 113 403 55 c 2
 403 43 l 1
 352 8 l 1x68
 327 8 303 17 278 18 c 1xa8
172 1958 m 1
 138 1860 126 1777 59 1693 c 1
 -8 1741 l 1
 -1 1810 114 2124 189 2124 c 0
 228 2124 241 2091 241 2057 c 0
 241 1971 303 1892 303 1819 c 1
 302 1808 l 1
 316 1777 l 1
 314 1767 l 1
 316 1760 321 1749 321 1742 c 0
 321 1709 284 1694 256 1692 c 1
 212 1719 l 1
 204 1799 191 1879 172 1958 c 1
EndSplineSet
EndChar

StartChar: Idieresis
Encoding: 207 207 113
Width: 432
Flags: HMW
HStem: -6 21 10 102 1441 111<294 304.5 263 316> 1690 142
VStem: -125 141<1741 1777> 131 94 169 107 294 141
LayerCount: 2
Fore
SplineSet
278 17 m 1xbd
 279 18 l 1
 241 -5 l 1
 215 -5 187 -5 165 11 c 1
 132 11 36 16 36 63 c 0
 36 100 66 112 98 112 c 0x7d
 115 112 129 109 141 109 c 0
 160 109 171 117 171 157 c 0
 171 473 133 788 133 1104 c 0
 133 1174 137 1243 137 1313 c 0
 137 1351 136 1389 132 1427 c 1
 117 1422 99 1418 84 1418 c 0
 57 1418 36 1429 36 1467 c 0
 36 1539 237 1552 289 1552 c 0
 320 1552 349 1528 349 1496 c 0
 349 1469 331 1441 301 1441 c 0
 287 1441 275 1442 265 1442 c 0
 241 1442 226 1436 226 1400 c 0
 226 1000 278 602 278 202 c 1
 276 123 l 1xbb
 290 125 304 126 318 126 c 0
 363 126 403 112 403 54 c 2
 403 42 l 1
 352 7 l 1
 327 7 303 16 278 17 c 1xbd
295 1759 m 0
 295 1798 329 1834 368 1834 c 0
 405 1834 436 1797 436 1761 c 0
 436 1719 399 1690 359 1690 c 0
 323 1690 295 1724 295 1759 c 0
-66 1690 m 0
 -103 1690 -125 1722 -125 1757 c 0
 -125 1797 -96 1831 -55 1831 c 0
 -17 1831 16 1801 16 1762 c 0
 16 1720 -27 1690 -66 1690 c 0
EndSplineSet
EndChar

StartChar: Eth
Encoding: 208 208 114
Width: 810
Flags: HW
LayerCount: 2
Fore
SplineSet
298 1141 m 1
 300 1140 l 1
 308 827 348 517 353 204 c 1
 600 419 637 677 637 983 c 0
 637 1314 628 1955 255 2097 c 1
 255 1829 l 2
 255 1635 259 1440 297 1252 c 1
 375 1256 452 1274 530 1274 c 0
 572 1274 595 1230 597 1194 c 1
 563 1153 l 1
 475 1153 386 1152 298 1141 c 1
318 45 m 1
 318 47 l 1
 284 57 253 74 236 107 c 1
 236 450 236 797 184 1137 c 1
 149 1132 113 1125 77 1125 c 0
 44 1125 25 1154 25 1184 c 0
 25 1239 111 1245 150 1244 c 2
 181 1243 l 1
 179 1547 137 1850 137 2154 c 0
 137 2182 162 2220 193 2220 c 0
 327 2220 637 1966 637 1831 c 0
 637 1486 754 1154 754 809 c 0
 754 507 592 186 318 45 c 1
EndSplineSet
EndChar

StartChar: Ntilde
Encoding: 209 209 115
Width: 737
Flags: HMW
HStem: 1532 20
VStem: 67 104<812 1073 1073 1135.5> 81 148<1455.5 1481.5> 84 116<40 40> 548 98
LayerCount: 2
Fore
SplineSet
671 1502 m 1xa8
 670 1504 l 1
 661 1485 658 1465 658 1444 c 0
 658 1193 645 939 645 687 c 0
 645 668 647 648 650 629 c 1
 645 620 l 1
 645 375 l 2
 645 334 649 293 649 252 c 0
 649 210 645 170 629 131 c 1
 629 109 632 84 632 61 c 0
 632 17 621 -21 560 -21 c 0
 489 -21 495 65 482 113 c 0
 395 421 285 721 229 1037 c 0xa8
 225 1061 229 1092 213 1112 c 1
 203 1122 l 1
 210 1141 l 1
 200 1193 191 1246 179 1298 c 1
 172 1261 171 1224 171 1187 c 2
 171 626 l 2xc8
 171 431 200 237 200 42 c 2
 200 33 l 1
 172 2 l 1
 99 2 l 1
 84 40 l 1x98
 91 67 93 116 93 177 c 0
 93 371 67 688 67 812 c 2
 67 1073 l 2xc8
 67 1198 81 1324 81 1449 c 0
 81 1514 78 1554 158 1554 c 0
 191 1554 229 1528 229 1492 c 0
 229 1419 267 1356 287 1288 c 0
 307 1220 306 1148 320 1078 c 0
 373 817 501 564 519 298 c 1
 532 276 538 250 540 225 c 1
 540 463 548 701 548 939 c 2
 548 1343 l 1
 537 1350 l 1
 548 1380 l 1
 548 1424 l 2
 548 1465 547 1505 539 1545 c 1
 547 1580 582 1596 615 1596 c 0
 660 1596 671 1553 671 1516 c 2
 671 1502 l 1xa8
99 1755 m 1
 100 1755 l 1
 100 1843 153 1924 248 1924 c 2
 255 1924 l 1
 350 1872 l 1
 360 1845 392 1800 424 1800 c 1
 438 1803 l 1
 443 1801 l 1
 461 1817 477 1820 477 1846 c 0
 477 1859 466 1876 464 1891 c 1
 473 1909 489 1923 510 1923 c 0
 559 1923 580 1871 580 1829 c 0
 580 1758 519 1697 448 1697 c 0
 363 1697 302 1764 251 1823 c 1
 246 1825 l 1
 227 1825 l 1
 198 1794 l 1
 210 1746 l 1
 174 1696 l 1
 137 1696 99 1713 99 1755 c 1
EndSplineSet
EndChar

StartChar: Ocircumflex
Encoding: 212 212 118
Width: 650
Flags: HMW
HStem: -57 112<274.5 413> 1477 108<213 370 163.5 381.5>
VStem: 57 92 489 94
LayerCount: 2
Fore
SplineSet
296 1957 m 1
 262 1859 250 1776 183 1692 c 1
 116 1740 l 1
 123 1809 238 2123 313 2123 c 0
 352 2123 365 2090 365 2056 c 0
 365 1970 427 1891 427 1818 c 1
 426 1807 l 1
 440 1776 l 1
 438 1766 l 1
 440 1759 445 1748 445 1741 c 0
 445 1708 408 1693 380 1691 c 1
 336 1718 l 1
 328 1798 315 1878 296 1957 c 1
281 1477 m 0
 482 1477 487 797 487 653 c 0
 487 561 475 55 357 55 c 0
 192 55 147 720 147 852 c 0
 147 950 145 1477 281 1477 c 0
550 215 m 1
 549 215 l 1
 549 261 557 306 567 350 c 1
 562 359 l 1
 563 446 580 531 580 618 c 0
 580 827 560 1035 531 1242 c 0
 509 1400 469 1585 271 1585 c 0
 56 1585 79 1292 71 1146 c 0
 65 1030 55 915 55 799 c 0
 55 609 81 -57 353 -57 c 0
 473 -57 548 113 550 215 c 1
EndSplineSet
EndChar

StartChar: Otilde
Encoding: 213 213 119
Width: 650
Flags: HMW
HStem: -57 112<277.5 416> 1477 108<216 373 166.5 384.5>
VStem: 57 92 489 94
LayerCount: 2
Fore
SplineSet
40 1749 m 1
 41 1749 l 1
 41 1837 94 1918 189 1918 c 2
 196 1918 l 1
 291 1866 l 1
 301 1839 333 1794 365 1794 c 1
 379 1797 l 1
 384 1795 l 1
 402 1811 418 1814 418 1840 c 0
 418 1853 407 1870 405 1885 c 1
 414 1903 430 1917 451 1917 c 0
 500 1917 521 1865 521 1823 c 0
 521 1752 460 1691 389 1691 c 0
 304 1691 243 1758 192 1817 c 1
 187 1819 l 1
 168 1819 l 1
 139 1788 l 1
 151 1740 l 1
 115 1690 l 1
 78 1690 40 1707 40 1749 c 1
284 1477 m 0
 485 1477 490 797 490 653 c 0
 490 561 478 55 360 55 c 0
 195 55 150 720 150 852 c 0
 150 950 148 1477 284 1477 c 0
553 215 m 1
 552 215 l 1
 552 261 560 306 570 350 c 1
 565 359 l 1
 566 446 583 531 583 618 c 0
 583 827 563 1035 534 1242 c 0
 512 1400 472 1585 274 1585 c 0
 59 1585 82 1292 74 1146 c 0
 68 1030 58 915 58 799 c 0
 58 609 84 -57 356 -57 c 0
 476 -57 551 113 553 215 c 1
EndSplineSet
EndChar

StartChar: Odieresis
Encoding: 214 214 120
Width: 650
Flags: HMW
HStem: -57 112 1477 108 1690 142
VStem: 0 141<1741 1777> 56 92 419 141 488 94
LayerCount: 2
Fore
SplineSet
552 214 m 1xec
 551 214 l 1
 551 260 559 305 569 349 c 1
 564 358 l 1
 565 445 582 530 582 617 c 0xea
 582 826 562 1034 533 1241 c 0
 511 1399 471 1584 273 1584 c 0
 58 1584 81 1291 73 1145 c 0
 67 1029 57 914 57 798 c 0
 57 608 83 -58 355 -58 c 0
 475 -58 550 112 552 214 c 1xec
283 1476 m 0
 484 1476 489 796 489 652 c 0
 489 560 477 54 359 54 c 0
 194 54 149 719 149 851 c 0
 149 949 147 1476 283 1476 c 0
420 1759 m 0
 420 1798 454 1834 493 1834 c 0
 530 1834 561 1797 561 1761 c 0
 561 1719 524 1690 484 1690 c 0
 448 1690 420 1724 420 1759 c 0
59 1690 m 0
 20 1690 0 1720 0 1757 c 0
 0 1797 29 1831 70 1831 c 0
 108 1831 141 1801 141 1762 c 0xf4
 141 1720 98 1690 59 1690 c 0
EndSplineSet
EndChar

StartChar: Oslash
Encoding: 216 216 121
Width: 561
Flags: HW
LayerCount: 2
Fore
SplineSet
413 1420 m 1
 409 1412 l 1
 437 1366 l 1
 438 1317 461 1272 461 1223 c 2
 461 1209 l 1
 457 1207 l 1
 460 1086 490 962 492 843 c 0
 494 715 498 587 498 459 c 0
 498 301 497 -16 272 -16 c 0
 242 -16 212 -10 186 4 c 1
 170 -91 149 -185 132 -280 c 1
 62 -224 l 1
 62 -103 121 8 121 129 c 0
 121 147 107 176 103 195 c 0
 64 370 57 559 57 747 c 0
 57 870 60 991 60 1108 c 0
 60 1226 60 1570 233 1570 c 0
 253 1570 274 1560 289 1548 c 1
 297 1552 l 1
 319 1633 324 1717 344 1799 c 1
 423 1799 l 1
 419 1689 377 1583 377 1473 c 0
 377 1456 401 1431 413 1420 c 1
288 72 m 0
 388 72 399 319 399 464 c 0
 399 742 401 1022 354 1297 c 1
 307 945 304 586 236 237 c 0
 230 207 222 176 222 145 c 0
 222 92 231 72 288 72 c 0
238 1492 m 1
 238 1491 l 1
 203 1478 l 1
 198 1480 l 1
 152 1386 151 996 151 850 c 0
 151 734 170 619 180 503 c 1
 208 745 226 989 254 1231 c 0
 263 1307 278 1382 278 1458 c 0
 278 1478 255 1491 238 1492 c 1
EndSplineSet
EndChar

StartChar: oslash
Encoding: 248 248 148
Width: 523
Flags: HW
LayerCount: 2
Fore
SplineSet
62 -194 m 1
 64 -192 l 1
 74 -87 113 15 113 122 c 0
 113 143 104 162 99 182 c 0
 54 373 58 583 58 778 c 2
 58 995 l 2
 58 1106 58 1384 219 1384 c 0
 238 1384 257 1375 273 1366 c 1
 278 1370 l 1
 291 1444 301 1520 320 1593 c 1
 395 1593 l 1
 395 1493 359 1397 354 1297 c 1
 383 1244 l 1
 380 1237 l 1
 415 1185 428 1126 428 1064 c 2
 428 1050 l 1
 425 1048 l 1
 427 956 454 860 455 773 c 0
 457 656 461 539 461 422 c 0
 461 276 458 -12 251 -12 c 0
 226 -12 200 -7 177 4 c 1
 172 -39 161 -246 104 -246 c 0
 76 -246 62 -218 62 -194 c 1
267 73 m 0
 359 73 364 314 364 423 c 0
 364 657 365 893 326 1125 c 1
 285 825 290 515 220 220 c 0
 213 192 206 164 206 135 c 0
 206 87 218 73 267 73 c 0
220 1308 m 1
 188 1297 l 1
 184 1298 l 1
 144 1215 143 906 143 780 c 0
 143 684 156 588 166 492 c 1
 196 753 255 1017 255 1280 c 1
 220 1308 l 1
EndSplineSet
EndChar

StartChar: quoteright
Encoding: 8217 8217 155
Width: 359
Flags: HW
LayerCount: 2
Fore
SplineSet
51 1220 m 1
 61 1264 l 1
 96 1298 155 1338 165 1389 c 1
 132 1413 106 1449 106 1491 c 0
 106 1543 159 1578 207 1578 c 0
 261 1578 284 1536 301 1491 c 1
 296 1485 l 1
 296 1481 297 1476 297 1471 c 0
 297 1379 207 1193 112 1193 c 2
 105 1193 l 1
 51 1220 l 1
EndSplineSet
EndChar

StartChar: quoteleft
Encoding: 8216 8216 156
Width: 356
Flags: HW
LayerCount: 2
Fore
SplineSet
304 1550 m 1
 295 1506 l 1
 258 1476 201 1429 191 1381 c 1
 223 1357 249 1320 249 1279 c 0
 249 1227 196 1192 148 1192 c 0
 94 1192 71 1234 54 1279 c 1
 59 1285 l 1
 58 1289 58 1294 58 1298 c 0
 58 1391 149 1577 244 1577 c 2
 250 1577 l 1
 304 1550 l 1
EndSplineSet
EndChar

StartChar: fraction
Encoding: 8260 8260 157
Width: 512
Flags: HW
LayerCount: 2
Fore
SplineSet
37 30 m 0
 37 340 297 1099 366 1453 c 0
 372 1483 378 1553 423 1553 c 0
 451 1553 478 1533 478 1503 c 0
 478 1437 451 1374 436 1311 c 0
 357 972 279 632 205 292 c 0
 192 233 158 -31 83 -31 c 2
 75 -31 l 1
 54 -18 37 5 37 30 c 0
EndSplineSet
EndChar

StartChar: quotedblleft
Encoding: 8220 8220 158
Width: 569
Flags: HW
LayerCount: 2
Fore
SplineSet
516 1551 m 1
 506 1507 l 1
 471 1473 413 1433 403 1382 c 1
 435 1358 461 1321 461 1280 c 0
 461 1228 408 1193 360 1193 c 0
 306 1193 283 1235 266 1280 c 1
 271 1286 l 1
 270 1290 270 1295 270 1299 c 0
 270 1392 361 1578 456 1578 c 2
 462 1578 l 1
 516 1551 l 1
303 1550 m 1
 294 1506 l 1
 257 1476 200 1429 190 1381 c 1
 222 1357 248 1320 248 1279 c 0
 248 1227 195 1192 147 1192 c 0
 93 1192 70 1234 53 1279 c 1
 58 1285 l 1
 57 1289 57 1294 57 1298 c 0
 57 1391 148 1577 243 1577 c 2
 249 1577 l 1
 303 1550 l 1
EndSplineSet
EndChar

StartChar: guilsinglleft
Encoding: 8249 8249 159
Width: 524
Flags: HW
LayerCount: 2
Fore
SplineSet
491 49 m 1
 489 19 474 -22 437 -22 c 0
 422 -22 408 -19 393 -18 c 1
 252 197 149 465 37 698 c 1
 40 798 223 1125 261 1255 c 0
 272 1293 299 1447 360 1447 c 0
 362 1447 364 1446 367 1446 c 1
 412 1411 l 1
 385 1193 154 869 154 702 c 0
 154 679 428 135 465 69 c 1
 491 49 l 1
EndSplineSet
EndChar

StartChar: guilsinglright
Encoding: 8250 8250 160
Width: 523
Flags: HW
LayerCount: 2
Fore
SplineSet
130 -19 m 1
 126 -19 l 2
 113 -19 101 -23 88 -23 c 0
 51 -23 35 19 34 49 c 1
 59 69 l 1
 95 136 369 680 369 702 c 0
 369 908 114 1202 112 1411 c 1
 157 1446 l 1
 167 1444 l 1
 241 1410 243 1324 263 1255 c 0
 301 1123 484 803 487 698 c 1
 130 -19 l 1
EndSplineSet
EndChar

StartChar: quotesinglbase
Encoding: 8218 8218 161
Width: 376
Flags: HW
LayerCount: 2
Fore
SplineSet
58 -175 m 1
 68 -130 l 1
 102 -96 162 -54 172 -4 c 1
 139 20 113 55 113 97 c 0
 113 149 166 184 214 184 c 0
 268 184 291 143 308 98 c 1
 304 91 l 1
 304 87 305 82 305 77 c 0
 305 -15 214 -202 119 -202 c 2
 113 -202 l 1
 58 -175 l 1
EndSplineSet
EndChar

StartChar: quotedblbase
Encoding: 8222 8222 162
Width: 603
Flags: HW
LayerCount: 2
Fore
SplineSet
286 -174 m 1
 296 -130 l 1
 333 -100 390 -52 400 -4 c 1
 367 19 342 56 342 97 c 0
 342 149 395 184 443 184 c 0
 496 184 534 134 534 83 c 0
 534 -3 449 -201 347 -201 c 2
 341 -201 l 1
 286 -174 l 1
102 -197 m 1
 56 -164 l 1
 80 -114 167 -44 175 -4 c 1
 142 20 116 55 116 97 c 0
 116 150 169 184 218 184 c 0
 271 184 309 134 309 83 c 0
 309 -12 219 -197 109 -197 c 2
 102 -197 l 1
EndSplineSet
EndChar

StartChar: quotedblright
Encoding: 8221 8221 163
Width: 604
Flags: HW
LayerCount: 2
Fore
SplineSet
296 1221 m 1
 305 1266 l 1
 342 1296 399 1343 409 1391 c 1
 377 1415 351 1452 351 1493 c 0
 351 1545 404 1580 452 1580 c 0
 504 1580 531 1538 545 1493 c 1
 541 1487 l 1
 541 1474 l 2
 541 1382 452 1194 356 1194 c 2
 350 1194 l 1
 296 1221 l 1
50 1223 m 1
 60 1267 l 1
 95 1301 154 1341 164 1392 c 1
 131 1416 105 1452 105 1494 c 0
 105 1546 158 1581 206 1581 c 0
 260 1581 283 1539 300 1494 c 1
 295 1488 l 1
 295 1484 296 1479 296 1474 c 0
 296 1382 206 1196 111 1196 c 2
 104 1196 l 1
 50 1223 l 1
EndSplineSet
EndChar

StartChar: circumflex
Encoding: 710 710 164
Width: 438
Flags: HW
LayerCount: 2
Fore
SplineSet
232 1193 m 1
 198 1095 186 1012 119 928 c 1
 52 976 l 1
 59 1045 174 1359 249 1359 c 0
 288 1359 301 1326 301 1292 c 0
 301 1206 363 1127 363 1054 c 1
 362 1043 l 1
 376 1012 l 1
 374 1002 l 1
 376 995 381 984 381 977 c 0
 381 944 344 929 316 927 c 1
 272 954 l 1
 264 1034 251 1114 232 1193 c 1
EndSplineSet
EndChar

StartChar: tilde
Encoding: 732 732 165
Width: 606
Flags: HW
LayerCount: 2
Fore
SplineSet
62 1055 m 1
 63 1055 l 1
 63 1143 116 1224 211 1224 c 2
 218 1224 l 1
 313 1172 l 1
 323 1145 355 1100 387 1100 c 1
 401 1103 l 1
 406 1101 l 1
 424 1117 440 1120 440 1146 c 0
 440 1159 429 1176 427 1191 c 1
 436 1209 452 1223 473 1223 c 0
 522 1223 543 1171 543 1129 c 0
 543 1058 482 997 411 997 c 0
 326 997 265 1064 214 1123 c 1
 209 1125 l 1
 190 1125 l 1
 161 1094 l 1
 173 1046 l 1
 137 996 l 1
 100 996 62 1013 62 1055 c 1
EndSplineSet
EndChar

StartChar: breve
Encoding: 728 728 166
Width: 482
Flags: HW
LayerCount: 2
Fore
SplineSet
411 1032 m 1
 412 1031 l 1
 375 945 349 867 240 867 c 0
 113 867 67 992 67 1100 c 2
 67 1110 l 1
 105 1142 l 1
 176 1142 158 1001 214 962 c 1
 257 962 l 2
 278 962 304 1025 304 1043 c 0
 304 1088 304 1133 362 1133 c 0
 390 1133 416 1110 416 1081 c 0
 416 1075 409 1055 407 1048 c 1
 411 1032 l 1
EndSplineSet
EndChar

StartChar: ring
Encoding: 730 730 167
Width: 347
Flags: HW
LayerCount: 2
Fore
SplineSet
57 1169 m 0
 57 1230 110 1291 173 1291 c 0
 231 1291 282 1232 282 1176 c 0
 282 1105 226 1062 158 1062 c 0
 102 1062 57 1115 57 1169 c 0
147 1178 m 1
 146 1179 l 1
 153 1148 l 1
 185 1164 l 1
 185 1178 181 1195 171 1205 c 1
 147 1178 l 1
EndSplineSet
EndChar

StartChar: hungarumlaut
Encoding: 733 733 168
Width: 1183
Flags: HW
LayerCount: 2
Fore
SplineSet
456 -19 m 1
 422 -19 406 9 406 40 c 0
 406 92 962 460 1040 460 c 0
 1085 460 1121 420 1132 380 c 1
 1113 346 l 1
 888 259 664 106 456 -19 c 1
680 364 m 0
 680 295 351 110 283 69 c 1
 233 67 165 -16 91 -28 c 1
 58 13 l 1
 68 77 541 430 610 430 c 0
 646 430 680 402 680 364 c 0
EndSplineSet
EndChar

StartChar: caron
Encoding: 711 711 169
Width: 435
Flags: HW
LayerCount: 2
Fore
SplineSet
371 1273 m 1
 357 1242 l 2
 357 1241 357 1240 357 1239 c 0
 357 1213 296 1047 296 994 c 0
 296 960 283 928 244 928 c 0
 170 928 55 1241 48 1309 c 1
 114 1356 l 1
 167 1285 l 1
 168 1244 210 1134 226 1091 c 1
 246 1170 260 1251 268 1332 c 1
 312 1359 l 1
 340 1358 377 1343 377 1310 c 0
 377 1300 372 1288 370 1279 c 1
 371 1273 l 1
EndSplineSet
EndChar

StartChar: OE
Encoding: 338 338 170
Width: 1113
Flags: HW
LayerCount: 2
Fore
SplineSet
145 751 m 1
 177 689 157 241 257 232 c 1
 319 158 411 112 508 112 c 0
 541 112 688 122 688 168 c 0
 688 569 653 970 647 1371 c 1
 589 1436 486 1449 404 1449 c 0
 172 1449 145 1127 145 957 c 0
 145 911 146 865 146 820 c 0
 146 797 146 774 145 751 c 1
921 87 m 1
 925 85 l 1
 954 85 l 2
 1008 85 1090 80 1090 25 c 2
 1090 18 l 1
 1067 -16 l 1
 959 -16 851 -22 743 -22 c 0
 717 -22 669 -6 669 26 c 1
 670 33 l 1
 635 22 599 9 561 9 c 0
 83 9 51 438 51 809 c 0
 51 1032 53 1551 372 1551 c 0
 465 1551 568 1546 649 1494 c 1
 679 1537 l 1
 710 1537 740 1525 771 1525 c 2
 923 1525 l 2
 940 1525 957 1528 974 1529 c 1
 996 1517 1021 1498 1021 1470 c 0
 1021 1439 987 1426 961 1426 c 0
 888 1426 816 1432 743 1433 c 1
 743 1294 771 1157 771 1018 c 0
 771 983 767 948 767 913 c 0
 767 894 768 875 772 856 c 1
 834 854 l 2
 837 854 840 854 843 854 c 0
 860 854 875 855 888 855 c 0
 913 855 933 850 958 818 c 1
 958 780 944 754 902 754 c 0
 868 754 836 758 802 758 c 0
 793 758 783 758 774 757 c 1
 774 531 787 306 788 80 c 1
 832 83 877 87 921 87 c 1
EndSplineSet
EndChar

StartChar: trademark
Encoding: 8482 8482 171
Width: 1037
Flags: HW
LayerCount: 2
Fore
SplineSet
228 787 m 0
 228 924 218 1061 218 1198 c 0
 218 1266 224 1332 224 1400 c 0
 224 1428 223 1456 220 1484 c 1
 202 1482 163 1475 126 1475 c 0
 84 1475 44 1484 44 1520 c 2
 44 1533 l 1
 67 1574 l 1
 172 1583 277 1595 382 1595 c 0
 404 1595 425 1591 447 1591 c 1
 486 1552 l 1
 486 1547 l 1
 489 1574 534 1616 561 1616 c 0
 588 1616 606 1594 622 1575 c 1
 619 1565 618 1554 618 1542 c 0
 618 1433 704 1229 717 1129 c 1
 764 1259 800 1393 830 1528 c 0
 841 1576 846 1639 910 1639 c 0
 939 1639 966 1617 966 1587 c 0
 966 1442 944 1298 944 1153 c 0
 944 1031 958 908 958 786 c 1
 959 793 l 1
 959 738 961 625 882 625 c 0
 853 625 828 642 828 673 c 0
 828 752 840 829 840 908 c 0
 840 985 834 1062 832 1139 c 1
 820 1102 801 1077 801 1036 c 1
 796 1027 l 1
 792 981 770 845 708 845 c 0
 620 845 595 1174 574 1254 c 1
 570 1168 570 1082 570 996 c 0
 570 928 582 861 582 793 c 0
 582 742 580 621 505 621 c 0
 466 621 457 658 457 690 c 0
 457 764 470 836 470 910 c 0
 470 1002 468 1095 468 1189 c 0
 468 1303 471 1417 483 1529 c 1
 473 1486 423 1485 387 1485 c 1
 329 1487 l 1
 325 1448 324 1408 324 1369 c 0
 324 1206 337 1044 337 881 c 0
 337 827 336 773 332 719 c 1
 334 712 340 698 340 691 c 0
 340 654 301 637 271 629 c 1
 217 657 l 1
 230 697 228 746 228 787 c 0
EndSplineSet
EndChar

StartChar: braceleft
Encoding: 123 123 172
Width: 649
Flags: HW
LayerCount: 2
Fore
SplineSet
443 -48 m 0
 278 -48 241 52 241 198 c 2
 240 621 l 2
 239 785 101 673 101 766 c 0
 101 866 240 754 240 916 c 0
 240 958 230 1054 230 1130 c 0
 230 1173 233 1209 243 1226 c 1
 240 1244 238 1262 238 1280 c 0
 238 1399 306 1495 443 1495 c 0
 477 1495 586 1482 586 1435 c 0
 586 1404 556 1389 529 1389 c 0
 494 1389 463 1408 428 1408 c 0
 330 1408 330 1222 330 1157 c 0
 330 1106 338 1024 338 947 c 0
 338 875 331 806 302 768 c 1
 334 728 339 672 339 622 c 2
 336 192 l 2
 335 127 342 39 428 39 c 0
 470 39 507 62 549 62 c 0
 561 62 566 25 566 16 c 0
 566 -36 481 -48 443 -48 c 0
EndSplineSet
EndChar

StartChar: braceright
Encoding: 125 125 173
Width: 649
Flags: HW
LayerCount: 2
Fore
SplineSet
244 1495 m 0
 407 1495 445 1394 446 1249 c 2
 447 876 l 2
 447 712 576 821 576 731 c 0
 576 630 447 745 447 581 c 0
 447 538 455 421 455 330 c 0
 455 279 453 236 444 221 c 1
 447 202 448 184 448 166 c 0
 448 47 381 -48 244 -48 c 0
 210 -48 101 -35 101 12 c 0
 101 43 131 58 158 58 c 0
 193 58 224 39 259 39 c 0
 356 39 357 224 357 289 c 0
 357 346 347 443 347 534 c 0
 347 615 355 691 385 729 c 1
 353 770 348 825 348 875 c 0
 348 915 358 1021 358 1127 c 0
 358 1267 341 1408 259 1408 c 0
 217 1408 180 1385 138 1385 c 0
 126 1385 121 1422 121 1431 c 0
 121 1483 206 1495 244 1495 c 0
EndSplineSet
EndChar

StartChar: logicalnot
Encoding: 172 172 174
Width: 467
Flags: HW
LayerCount: 2
Fore
SplineSet
30 711 m 0
 2 711 -21 735 -21 763 c 0
 -21 822 90 835 197 835 c 0
 276 835 352 828 380 828 c 0
 492 828 603 848 715 848 c 0
 747 848 782 824 782 790 c 0
 782 766 775 741 763 720 c 1
 763 658 768 596 787 537 c 1
 783 509 765 475 733 475 c 0
 679 475 670 536 670 592 c 0
 670 618 672 643 672 659 c 0
 672 682 671 705 667 727 c 1
 642 728 616 733 591 733 c 0
 404 733 217 711 30 711 c 0
EndSplineSet
EndChar

StartChar: ellipsis
Encoding: 8230 8230 175
Width: 885
Flags: HW
LayerCount: 2
Fore
SplineSet
74 41 m 0
 74 82 110 120 151 120 c 0
 190 120 224 81 224 43 c 0
 224 -4 188 -32 143 -32 c 0
 105 -32 74 4 74 41 c 0
369 41 m 0
 369 82 405 120 446 120 c 0
 485 120 519 81 519 43 c 0
 519 -4 483 -32 438 -32 c 0
 400 -32 369 4 369 41 c 0
664 41 m 0
 664 82 700 120 741 120 c 0
 780 120 814 81 814 43 c 0
 814 -4 778 -32 733 -32 c 0
 695 -32 664 4 664 41 c 0
EndSplineSet
EndChar

StartChar: periodcentered
Encoding: 183 183 176
Width: 295
Flags: HW
LayerCount: 2
Fore
SplineSet
74 706 m 0
 74 747 110 785 151 785 c 0
 190 785 224 746 224 708 c 0
 224 661 188 633 143 633 c 0
 105 633 74 669 74 706 c 0
EndSplineSet
EndChar

StartChar: ae
Encoding: 230 230 179
Width: 879
Flags: HW
LayerCount: 2
Fore
SplineSet
453 666 m 1
 455 762 461 857 461 953 c 0
 461 996 461 1040 459 1083 c 1
 401 940 340 797 300 648 c 1
 351 650 403 655 453 666 c 1
493 -13 m 0
 477 -13 451 -1 451 19 c 0
 451 96 467 175 467 253 c 0
 467 366 457 480 457 593 c 1
 398 588 337 590 280 571 c 1
 179 226 l 2
 165 177 152 1 84 1 c 0
 61 1 44 27 44 48 c 0
 44 246 316 949 396 1180 c 0
 419 1247 427 1332 512 1344 c 0
 565 1351 616 1354 670 1354 c 0
 707 1354 757 1345 757 1298 c 2
 757 1292 l 1
 736 1250 l 1
 672 1240 607 1240 542 1240 c 1
 544 1149 556 1058 556 966 c 0
 556 869 550 773 550 676 c 1
 603 678 655 685 708 685 c 1
 750 647 l 1
 750 593 664 596 628 597 c 2
 549 598 l 1
 550 426 555 254 555 82 c 1
 631 83 706 103 782 103 c 0
 811 103 850 87 850 53 c 0
 850 -7 681 -14 573 -14 c 0
 537 -14 507 -13 493 -13 c 0
EndSplineSet
EndChar

StartChar: macron
Encoding: 175 175 182
Width: 587
Flags: HW
LayerCount: 2
Fore
SplineSet
516 749 m 0
 516 712 480 704 450 704 c 0
 430 704 369 700 302 700 c 0
 196 700 74 709 74 756 c 0
 74 797 135 800 164 800 c 0
 184 800 243 804 308 804 c 0
 406 804 516 795 516 749 c 0
EndSplineSet
EndChar

StartChar: bar
Encoding: 124 124 183
Width: 467
Flags: HW
LayerCount: 2
Fore
SplineSet
143 114 m 0
 143 580 129 1045 129 1510 c 0
 129 1556 152 1584 200 1584 c 0
 226 1584 242 1556 242 1533 c 0
 242 1148 249 763 249 379 c 1
 246 -29 l 2
 246 -57 222 -80 194 -80 c 0
 142 -80 143 82 143 114 c 0
EndSplineSet
EndChar

StartChar: brokenbar
Encoding: 166 166 184
Width: 467
Flags: HW
LayerCount: 2
Fore
SplineSet
182 695 m 0
 228 695 243 662 243 621 c 2
 245 -16 l 2
 245 -50 233 -80 194 -80 c 0
 166 -80 142 -57 142 -29 c 2
 139 339 l 1
 140 644 l 2
 140 668 156 695 182 695 c 0
137 1020 m 0
 137 1183 129 1348 129 1510 c 0
 129 1556 152 1584 200 1584 c 0
 238 1584 245 1481 245 1393 c 0
 245 1346 243 1304 243 1285 c 2
 240 877 l 2
 240 849 216 826 188 826 c 0
 136 826 137 988 137 1020 c 0
EndSplineSet
EndChar

StartChar: germandbls
Encoding: 223 223 193
Width: 576
Flags: HW
LayerCount: 2
Fore
SplineSet
338 49 m 1
 334 48 327 45 323 45 c 0
 304 45 274 57 274 81 c 0
 274 134 421 240 421 409 c 0
 421 789 243 776 243 854 c 0
 243 898 361 1106 361 1274 c 0
 361 1321 340 1473 271 1473 c 0
 193 1473 173 1350 173 1294 c 0
 173 878 204 463 204 46 c 0
 204 -2 195 -47 138 -47 c 0
 103 -47 78 -37 78 4 c 0
 78 182 88 360 88 538 c 0
 88 775 73 1012 73 1249 c 0
 73 1375 105 1585 271 1585 c 0
 428 1585 461 1367 461 1249 c 0
 461 1109 407 977 335 859 c 1
 488 744 520 635 520 444 c 0
 520 294 457 143 338 49 c 1
EndSplineSet
EndChar

StartChar: eng
Encoding: 331 331 199
Width: 827
Flags: HMW
HStem: 1338 20G
VStem: 68 112 80 113 646 116
LayerCount: 2
Fore
SplineSet
185 641 m 1xb0
 182 640 l 1
 174 646 l 1
 174 604 172 341 189 298 c 1
 189 114 l 1
 196 99 197 83 197 66 c 0
 197 32 169 2 135 2 c 0
 76 2 68 84 68 127 c 0xd0
 68 361 64 595 64 829 c 0
 64 956 76 1084 76 1211 c 0
 76 1274 85 1322 139 1362 c 1
 151 1349 l 1
 156 1352 161 1354 166 1354 c 0
 195 1354 214 1300 220 1280 c 0
 294 1013 428 773 512 511 c 0
 546 405 561 293 603 189 c 1
 636 534 644 881 644 1228 c 0
 644 1244 641 1264 641 1283 c 0
 641 1315 649 1344 692 1344 c 0
 734 1344 760 1302 760 1264 c 2
 760 1125 l 1
 750 1109 l 1
 749 951 728 92 676 11 c 1
 653 4 628 -6 604 -6 c 0
 545 -6 554 55 535 93 c 0
 535 95 536 98 536 102 c 0
 536 219 237 1016 181 1145 c 1
 178 1119 176 1094 176 1068 c 2
 176 808 l 2
 176 752 185 697 185 641 c 1xb0
EndSplineSet
EndChar

StartChar: gcedilla
Encoding: 291 291 206
Width: 638
Flags: HW
LayerCount: 2
Fore
SplineSet
375 624 m 1
 373 623 l 1
 401 623 l 2
 465 623 585 619 585 560 c 0
 585 509 563 462 563 411 c 0
 563 341 573 266 573 194 c 0
 573 160 571 126 564 93 c 1
 501 36 426 -16 338 -16 c 0
 266 -16 185 -5 136 54 c 0
 67 136 46 506 46 622 c 0
 46 716 59 809 66 903 c 0
 80 1094 94 1354 348 1354 c 0
 383 1354 435 1349 435 1302 c 0
 435 1268 401 1247 370 1247 c 0
 355 1247 341 1252 327 1252 c 0
 178 1252 168 732 168 629 c 0
 168 584 169 538 174 493 c 1
 247 367 139 91 363 91 c 0
 469 91 462 380 462 450 c 2
 462 511 l 1
 447 519 431 519 414 519 c 0
 403 519 389 518 374 518 c 0
 339 518 303 524 303 565 c 0
 303 606 339 624 375 624 c 1
EndSplineSet
EndChar

StartChar: Hbar
Encoding: 294 294 213
Width: 560
Flags: HW
LayerCount: 2
Fore
SplineSet
351 1496 m 1
 354 1498 l 1
 361 1550 l 1
 459 1550 461 1469 461 1393 c 0
 461 943 500 491 500 43 c 0
 500 10 477 -31 440 -31 c 0
 401 -31 388 4 388 37 c 0
 388 278 383 519 370 759 c 1
 348 763 325 769 302 769 c 0
 261 769 219 769 181 753 c 1
 182 521 215 291 215 59 c 0
 215 34 199 5 171 5 c 0
 141 5 130 16 115 41 c 0
 90 83 97 514 91 602 c 0
 70 904 54 1207 54 1510 c 2
 54 1525 l 1
 113 1554 l 1
 161 1514 l 1
 156 1462 154 1411 154 1360 c 0
 154 1220 168 1079 168 939 c 0
 168 914 166 888 166 862 c 0
 166 844 167 827 170 809 c 1
 237 811 302 822 369 824 c 1
 368 1048 351 1272 351 1496 c 1
501 943 m 0
 501 906 465 898 435 898 c 0
 415 898 354 894 287 894 c 0
 181 894 59 903 59 950 c 0
 59 991 120 994 149 994 c 0
 169 994 228 998 293 998 c 0
 391 998 501 989 501 943 c 0
EndSplineSet
EndChar

StartChar: Euro
Encoding: 8364 8364 214
Width: 649
Flags: HW
LayerCount: 2
Fore
SplineSet
368 700 m 0
 368 657 271 652 210 652 c 0
 193 652 178 653 170 653 c 1
 176 578 205 209 239 160 c 0
 273 111 336 93 393 93 c 0
 443 93 492 113 525 152 c 1
 547 152 569 155 590 162 c 1
 617 135 l 1
 617 4 472 -33 366 -33 c 0
 56 -33 76 450 64 654 c 1
 -15 657 l 1
 -23 664 -28 677 -28 687 c 0
 -28 728 32 724 60 724 c 1
 56 808 l 1
 -16 808 l 1
 -30 813 -35 833 -35 845 c 0
 -35 876 -16 877 10 877 c 2
 55 877 l 1
 55 930 53 984 53 1038 c 0
 53 1101 56 1164 67 1226 c 1
 63 1248 61 1269 61 1289 c 0
 61 1462 209 1565 387 1565 c 0
 443 1565 530 1531 530 1465 c 0
 530 1434 501 1419 473 1419 c 0
 436 1419 398 1448 372 1448 c 0
 175 1448 170 1294 170 1140 c 0
 170 1047 169 972 159 879 c 1
 168 879 194 880 224 880 c 0
 283 880 361 876 361 852 c 0
 361 841 355 828 347 821 c 1
 285 814 222 813 159 811 c 1
 164 725 l 1
 227 726 291 726 354 731 c 1
 362 724 368 711 368 700 c 0
EndSplineSet
EndChar

StartChar: eth
Encoding: 240 240 215
Width: 473
Flags: HW
LayerCount: 2
Fore
SplineSet
493 1326 m 0
 493 1289 414 1272 388 1267 c 1
 432 1062 440 850 440 641 c 0
 440 522 431 402 431 283 c 0
 431 159 424 -15 259 -15 c 0
 98 -15 88 173 88 305 c 1
 88 305 46 956 299 956 c 0
 307 956 316 955 325 954 c 1
 312 1053 298 1153 277 1251 c 1
 221 1245 164 1242 108 1242 c 0
 95 1242 91 1265 91 1272 c 0
 91 1319 225 1336 257 1340 c 1
 248 1374 229 1450 201 1473 c 1
 168 1478 119 1499 119 1539 c 0
 119 1565 149 1582 172 1582 c 0
 285 1582 340 1441 366 1351 c 1
 403 1353 439 1355 476 1355 c 0
 489 1355 493 1333 493 1326 c 0
254 72 m 0
 329 72 320 160 324 211 c 0
 336 370 345 518 345 681 c 0
 345 761 338 853 286 885 c 1
 187 859 187 472 187 390 c 0
 187 378 186 354 186 325 c 0
 186 228 193 72 254 72 c 0
EndSplineSet
EndChar

StartChar: kgreenlandic
Encoding: 312 312 231
Width: 637
Flags: HW
LayerCount: 2
Fore
SplineSet
572 1289 m 1
 571 1284 380 976 352 919 c 1
 352 878 348 838 348 797 c 0
 348 678 474 252 536 149 c 0
 561 108 602 71 602 19 c 0
 602 -13 574 -35 544 -35 c 0
 405 -35 271 626 250 752 c 1
 194 641 176 519 176 396 c 2
 176 134 l 2
 176 94 191 57 191 17 c 0
 191 -14 162 -31 134 -31 c 0
 94 -31 66 -7 66 34 c 2
 66 406 l 2
 66 490 84 572 84 656 c 0
 84 877 105 1097 105 1318 c 1
 116 1342 140 1357 166 1357 c 0
 200 1357 229 1328 229 1294 c 2
 229 1288 l 1
 203 1243 202 1038 202 915 c 2
 202 842 l 1
 241 912 440 1344 493 1344 c 0
 526 1344 572 1329 572 1289 c 1
EndSplineSet
EndChar

StartChar: mu
Encoding: 181 181 241
AltUni2: 0003bc.ffffffff.0
Width: 641
Flags: HMW
HStem: -31 62<274 365 261.5 445.5> 1335 21G
VStem: 54 106 439 120 465 113
LayerCount: 2
Fore
SplineSet
520 1389 m 0xe8
 580 1389 583 1336 583 1290 c 0
 583 1221 569 1151 569 1084 c 0
 569 1027 560 970 560 913 c 0
 560 901 562 890 562 878 c 0
 562 874 562 869 561 865 c 0
 519 665 593 -31 298 -31 c 0
 250 -31 212 -15 182 11 c 1
 184 -48 186 -107 186 -166 c 0
 186 -211 172 -248 121 -248 c 0
 93 -248 75 -230 75 -202 c 2
 75 99 l 2
 75 215 68 356 68 475 c 2
 68 484 l 2
 68 697 79 824 79 1013 c 0
 79 1114 74 1213 54 1306 c 1
 76 1355 l 1
 146 1355 160 1289 160 1232 c 2
 160 675 l 2
 160 530 189 386 189 241 c 0
 189 152 204 31 319 31 c 0
 411 31 439 480 439 559 c 1xf0
 453 808 465 1057 465 1307 c 0
 465 1319 464 1330 464 1341 c 0
 464 1369 471 1389 520 1389 c 0xe8
EndSplineSet
EndChar

StartChar: lslash
Encoding: 322 322 245
Width: 467
Flags: HW
LayerCount: 2
Fore
SplineSet
184 545 m 0
 184 435 176 333 176 219 c 0
 176 154 185 78 245 78 c 0
 264 78 297 81 330 81 c 0
 384 81 440 72 440 21 c 0
 440 -11 405 -29 378 -33 c 1
 319 -14 257 -9 195 -9 c 1
 174 -21 149 -28 125 -28 c 0
 91 -28 67 7 67 39 c 0
 67 344 87 649 87 954 c 1
 93 969 l 1
 87 1033 81 1097 81 1161 c 0
 81 1207 82 1355 152 1355 c 0
 180 1355 204 1332 204 1304 c 0
 204 1252 190 1200 190 1148 c 0
 190 984 196 820 196 656 c 1
 182 622 184 581 184 545 c 0
455 739 m 0
 455 666 138 656 80 656 c 0
 47 656 13 680 13 715 c 0
 13 787 330 798 387 798 c 0
 420 798 455 775 455 739 c 0
EndSplineSet
EndChar

StartChar: multiply
Encoding: 215 215 249
Width: 684
Flags: HW
LayerCount: 2
Fore
SplineSet
479 412 m 1
 456 434 348 557 333 562 c 1
 307 560 247 430 181 430 c 0
 151 430 119 460 119 490 c 0
 119 528 227 601 253 638 c 1
 207 681 88 755 88 823 c 0
 88 854 118 880 148 880 c 0
 174 880 305 748 337 721 c 1
 393 750 435 866 510 866 c 0
 538 866 564 839 564 811 c 0
 564 745 426 707 426 643 c 0
 426 583 585 539 585 473 c 0
 585 435 550 399 512 399 c 1
 479 412 l 1
EndSplineSet
EndChar

StartChar: oe
Encoding: 339 339 250
Width: 1106
Flags: HMW
HStem: -39 86 -27 104<770 919 877 919 877 981> 692 129 1268 108
VStem: 51 114 477 110 723 121
LayerCount: 2
Fore
SplineSet
171 906 m 1x9c
 172 906 l 1
 172 843 162 780 162 717 c 0
 162 613 173 47 307 47 c 0
 464 47 478 454 478 564 c 0
 478 723 456 882 455 1041 c 1
 445 1061 l 1
 451 1077 l 1
 448 1171 384 1269 282 1269 c 2
 209 1269 l 1
 180 1150 192 1026 171 906 c 1x9c
315 -38 m 0
 82 -38 51 410 51 626 c 0
 51 658 53 677 53 704 c 0
 53 711 52 714 50 714 c 1
 50 751 l 2
 50 860 49 1378 204 1378 c 0
 224 1378 245 1369 258 1353 c 1
 370 1319 425 1351 498 1237 c 0
 572 1122 588 932 588 798 c 2
 588 793 l 1
 584 783 l 1
 584 706 588 628 588 551 c 0
 588 368 573 -38 315 -38 c 0
723 36 m 1x62
 725 35 l 1
 725 78 l 1
 716 90 l 1
 727 117 733 145 733 174 c 0
 733 261 723 349 723 436 c 0
 723 635 737 835 737 1034 c 0
 737 1092 726 1149 726 1207 c 0
 726 1266 735 1352 812 1352 c 0
 828 1352 844 1346 857 1337 c 1
 904 1330 1057 1330 1057 1261 c 0
 1057 1229 1024 1207 997 1197 c 1
 947 1214 895 1230 842 1236 c 1
 844 1207 845 1177 845 1148 c 0
 845 1050 836 952 836 854 c 0
 836 844 840 832 842 822 c 1
 859 822 887 825 915 825 c 0
 964 825 1014 816 1014 769 c 0
 1014 732 990 693 949 693 c 0
 929 693 907 699 891 711 c 1
 839 718 l 1
 843 666 845 615 845 563 c 0
 845 440 836 315 836 192 c 0
 836 139 844 77 910 77 c 0
 928 77 960 82 991 82 c 0
 1031 82 1069 73 1069 32 c 0
 1069 -13 1018 -27 981 -27 c 2
 788 -27 l 2
 752 -27 725 1 723 36 c 1x62
EndSplineSet
EndChar

StartChar: ogonek
Encoding: 731 731 251
Width: 376
Flags: HW
LayerCount: 2
Fore
SplineSet
290 -7 m 1
 219 -66 113 -145 113 -250 c 0
 113 -266 118 -301 140 -301 c 0
 171 -301 201 -286 226 -268 c 1
 240 -302 l 1
 240 -342 166 -366 134 -366 c 0
 75 -366 43 -313 43 -259 c 0
 43 -141 140 -38 235 20 c 1
 290 -7 l 1
EndSplineSet
EndChar

StartChar: tbar
Encoding: 359 359 276
Width: 493
Flags: HW
LayerCount: 2
Fore
SplineSet
257 260 m 1
 256 260 l 1
 244 299 199 1154 197 1255 c 1
 155 1256 23 1255 23 1316 c 0
 23 1344 65 1360 88 1360 c 0
 181 1360 273 1341 366 1341 c 0
 376 1341 387 1342 399 1342 c 0
 431 1342 463 1336 463 1293 c 0
 463 1257 427 1237 395 1237 c 0
 363 1237 332 1247 301 1251 c 1
 300 1245 297 1237 297 1230 c 0
 297 841 365 456 365 67 c 0
 365 34 336 6 303 6 c 2
 295 6 l 1
 257 33 l 1
 257 85 253 138 253 190 c 0
 253 213 256 237 257 260 c 1
468 749 m 0
 468 712 432 704 402 704 c 0
 382 704 321 700 254 700 c 0
 148 700 26 709 26 756 c 0
 26 797 87 800 116 800 c 0
 136 800 195 804 260 804 c 0
 358 804 468 795 468 749 c 0
EndSplineSet
EndChar

StartChar: Thorn
Encoding: 222 222 277
Width: 495
Flags: HW
LayerCount: 2
Fore
SplineSet
64 1297 m 1
 62 1487 l 2
 62 1522 74 1548 113 1548 c 0
 173 1548 183 1483 183 1424 c 0
 183 1396 181 1370 181 1353 c 1
 362 1327 443 1128 443 965 c 0
 443 773 361 595 187 502 c 1
 188 359 203 217 203 74 c 0
 203 29 186 -11 135 -11 c 0
 99 -11 86 29 86 58 c 0
 86 471 64 884 64 1297 c 1
337 948 m 0
 337 1117 313 1147 184 1249 c 1
 178 1249 l 1
 178 1033 182 817 182 601 c 1
 286 699 337 804 337 948 c 0
EndSplineSet
EndChar

StartChar: thorn
Encoding: 254 254 278
Width: 495
Flags: HW
LayerCount: 2
Fore
SplineSet
64 1178 m 1
 62 1487 l 2
 62 1522 74 1548 113 1548 c 0
 175 1548 188 1463 188 1380 c 0
 188 1318 181 1258 181 1233 c 1
 362 1207 443 1008 443 845 c 0
 443 670 345 540 187 472 c 1
 188 339 203 207 203 74 c 0
 203 29 186 -11 135 -11 c 0
 99 -11 86 28 86 58 c 0
 86 432 64 805 64 1178 c 1
337 828 m 0
 337 998 313 1027 184 1129 c 1
 178 1129 l 1
 178 943 182 757 182 571 c 1
 276 635 337 710 337 828 c 0
EndSplineSet
EndChar

StartChar: onehalf
Encoding: 189 189 279
Width: 1600
Flags: HW
LayerCount: 2
Fore
SplineSet
442 102 m 1
 441 103 l 1
 477 103 528 99 528 52 c 0
 528 -4 366 -8 295 -8 c 0
 265 -8 257 -9 234 -9 c 0
 193 -9 151 -3 151 47 c 2
 151 53 l 1
 170 91 l 1
 183 90 204 86 223 86 c 0
 247 86 268 93 268 120 c 0
 268 388 252 656 233 924 c 0
 224 1052 206 1179 206 1308 c 0
 206 1329 209 1356 209 1383 c 0
 209 1432 198 1479 138 1479 c 0
 125 1479 108 1477 91 1477 c 0
 61 1477 33 1483 33 1521 c 0
 33 1574 155 1575 198 1575 c 0
 231 1575 270 1574 288 1541 c 1
 303 1541 l 1
 297 1513 291 1484 291 1455 c 0
 291 1329 322 1205 322 1079 c 0
 322 756 367 433 367 109 c 1
 366 96 l 1
 391 98 417 102 442 102 c 1
596 30 m 0
 596 340 856 1099 925 1453 c 0
 931 1483 937 1553 982 1553 c 0
 1010 1553 1037 1533 1037 1503 c 0
 1037 1437 1010 1374 995 1311 c 0
 916 972 838 632 764 292 c 0
 751 233 717 -31 642 -31 c 2
 634 -31 l 1
 613 -18 596 5 596 30 c 0
1325 1586 m 1
 1325 1587 l 1
 1544 1587 1545 1357 1545 1201 c 0
 1545 970 1481 633 1387 422 c 0
 1337 309 1271 204 1232 86 c 1
 1309 99 1386 107 1464 107 c 2
 1474 107 l 1
 1526 55 l 1
 1490 4 l 1
 1386 4 1282 -15 1178 -15 c 0
 1142 -15 1103 7 1103 47 c 2
 1103 55 l 1
 1161 125 1179 218 1216 299 c 0
 1358 614 1447 886 1447 1236 c 0
 1447 1305 1443 1492 1349 1500 c 1
 1293 1470 1319 1327 1243 1327 c 0
 1205 1327 1193 1357 1193 1390 c 0
 1193 1465 1233 1586 1325 1586 c 1
EndSplineSet
EndChar

StartChar: onequarter
Encoding: 188 188 280
Width: 1551
Flags: HW
LayerCount: 2
Fore
SplineSet
442 102 m 1
 441 103 l 1
 477 103 528 99 528 52 c 0
 528 -4 366 -8 295 -8 c 0
 265 -8 257 -9 234 -9 c 0
 193 -9 151 -3 151 47 c 2
 151 53 l 1
 170 91 l 1
 183 90 204 86 223 86 c 0
 247 86 268 93 268 120 c 0
 268 388 252 656 233 924 c 0
 224 1052 206 1179 206 1308 c 0
 206 1329 209 1356 209 1383 c 0
 209 1432 198 1479 138 1479 c 0
 125 1479 108 1477 91 1477 c 0
 61 1477 33 1483 33 1521 c 0
 33 1574 155 1575 198 1575 c 0
 231 1575 270 1574 288 1541 c 1
 303 1541 l 1
 297 1513 291 1484 291 1455 c 0
 291 1329 322 1205 322 1079 c 0
 322 756 367 433 367 109 c 1
 366 96 l 1
 391 98 417 102 442 102 c 1
596 30 m 0
 596 340 856 1099 925 1453 c 0
 931 1483 937 1553 982 1553 c 0
 1010 1553 1037 1533 1037 1503 c 0
 1037 1437 1010 1374 995 1311 c 0
 916 972 838 632 764 292 c 0
 751 233 717 -31 642 -31 c 2
 634 -31 l 1
 613 -18 596 5 596 30 c 0
1204 480 m 1
 1203 479 l 1
 1172 479 1147 493 1123 512 c 1
 1123 539 1125 565 1132 591 c 1
 1125 628 1123 666 1123 706 c 0
 1123 844 1154 991 1154 1124 c 2
 1154 1442 l 2
 1154 1461 1148 1484 1148 1503 c 0
 1148 1525 1156 1543 1193 1543 c 0
 1222 1543 1254 1524 1254 1492 c 0
 1254 1440 1245 1386 1245 1333 c 0
 1245 1308 1247 1283 1253 1259 c 1
 1248 1252 l 1
 1252 1216 1254 1179 1254 1143 c 0
 1254 969 1225 796 1225 622 c 0
 1225 607 1226 591 1228 576 c 1
 1253 577 1278 581 1303 587 c 1
 1302 725 1297 863 1289 1000 c 0
 1286 1054 1272 1106 1272 1160 c 0
 1272 1191 1309 1206 1335 1206 c 2
 1345 1206 l 1
 1377 1170 l 1
 1377 979 1374 785 1403 596 c 1
 1418 597 1440 601 1462 601 c 0
 1493 601 1523 593 1523 557 c 0
 1523 513 1492 507 1456 507 c 2
 1441 507 l 2
 1426 507 1408 505 1408 489 c 0
 1408 436 1414 190 1429 155 c 1
 1427 143 1425 130 1425 117 c 0
 1425 103 1427 89 1435 76 c 1
 1429 50 l 1
 1434 39 l 1
 1434 9 1424 -38 1386 -38 c 0
 1340 -38 1325 23 1325 59 c 1
 1321 66 l 1
 1328 90 1332 115 1332 140 c 0
 1332 207 1317 272 1317 339 c 0
 1317 369 1319 398 1319 428 c 0
 1319 449 1318 470 1315 491 c 1
 1278 489 1241 480 1204 480 c 1
EndSplineSet
EndChar

StartChar: threequarters
Encoding: 190 190 281
Width: 1537
Flags: HW
LayerCount: 2
Fore
SplineSet
28 1416 m 1
 26 1416 l 1
 60 1501 129 1573 226 1573 c 0
 267 1573 305 1551 332 1522 c 1
 401 1521 431 1184 431 1124 c 0
 431 1040 382 993 339 927 c 1
 477 844 510 509 510 361 c 0
 510 213 497 -20 298 -20 c 0
 241 -20 147 5 147 76 c 2
 147 89 l 1
 181 110 l 1
 223 104 249 88 282 64 c 1
 397 69 407 207 407 294 c 0
 407 482 405 694 282 849 c 1
 278 848 274 848 269 848 c 0
 249 848 227 857 209 865 c 1
 209 878 l 1
 198 889 l 1
 199 950 329 1016 329 1150 c 0
 329 1216 315 1477 222 1477 c 0
 146 1477 170 1360 87 1360 c 0
 55 1360 33 1387 28 1416 c 1
582 30 m 0
 582 340 842 1099 911 1453 c 0
 917 1483 923 1553 968 1553 c 0
 996 1553 1023 1533 1023 1503 c 0
 1023 1437 996 1374 981 1311 c 0
 902 972 824 632 750 292 c 0
 737 233 703 -31 628 -31 c 2
 620 -31 l 1
 599 -18 582 5 582 30 c 0
1190 480 m 1
 1189 479 l 1
 1158 479 1133 493 1109 512 c 1
 1109 539 1111 565 1118 591 c 1
 1111 628 1109 666 1109 706 c 0
 1109 844 1140 991 1140 1124 c 2
 1140 1442 l 2
 1140 1461 1134 1484 1134 1503 c 0
 1134 1525 1142 1543 1179 1543 c 0
 1208 1543 1240 1524 1240 1492 c 0
 1240 1440 1231 1386 1231 1333 c 0
 1231 1308 1233 1283 1239 1259 c 1
 1234 1252 l 1
 1238 1216 1240 1179 1240 1143 c 0
 1240 969 1211 796 1211 622 c 0
 1211 607 1212 591 1214 576 c 1
 1239 577 1264 581 1289 587 c 1
 1288 725 1283 863 1275 1000 c 0
 1272 1054 1258 1106 1258 1160 c 0
 1258 1191 1295 1206 1321 1206 c 2
 1331 1206 l 1
 1363 1170 l 1
 1363 979 1360 785 1389 596 c 1
 1404 597 1426 601 1448 601 c 0
 1479 601 1509 593 1509 557 c 0
 1509 513 1478 507 1442 507 c 2
 1427 507 l 2
 1412 507 1394 505 1394 489 c 0
 1394 436 1400 190 1415 155 c 1
 1413 143 1411 130 1411 117 c 0
 1411 103 1413 89 1421 76 c 1
 1415 50 l 1
 1420 39 l 1
 1420 9 1410 -38 1372 -38 c 0
 1326 -38 1311 23 1311 59 c 1
 1307 66 l 1
 1314 90 1318 115 1318 140 c 0
 1318 207 1303 272 1303 339 c 0
 1303 369 1305 398 1305 428 c 0
 1305 449 1304 470 1301 491 c 1
 1264 489 1227 480 1190 480 c 1
EndSplineSet
EndChar

StartChar: onesuperior
Encoding: 185 185 282
Width: 559
Flags: HW
LayerCount: 2
Fore
SplineSet
442 102 m 1
 441 103 l 1
 477 103 528 99 528 52 c 0
 528 -4 366 -8 295 -8 c 0
 265 -8 257 -9 234 -9 c 0
 193 -9 151 -3 151 47 c 2
 151 53 l 1
 170 91 l 1
 183 90 204 86 223 86 c 0
 247 86 268 93 268 120 c 0
 268 388 252 656 233 924 c 0
 224 1052 206 1179 206 1308 c 0
 206 1329 209 1356 209 1383 c 0
 209 1432 198 1479 138 1479 c 0
 125 1479 108 1477 91 1477 c 0
 61 1477 33 1483 33 1521 c 0
 33 1574 155 1575 198 1575 c 0
 231 1575 270 1574 288 1541 c 1
 303 1541 l 1
 297 1513 291 1484 291 1455 c 0
 291 1329 322 1205 322 1079 c 0
 322 756 367 433 367 109 c 1
 366 96 l 1
 391 98 417 102 442 102 c 1
EndSplineSet
EndChar

StartChar: twosuperior
Encoding: 178 178 283
Width: 529
Flags: HW
LayerCount: 2
Fore
SplineSet
254 1586 m 1
 254 1587 l 1
 473 1587 474 1357 474 1201 c 0
 474 970 410 633 316 422 c 0
 266 309 200 204 161 86 c 1
 238 99 315 107 393 107 c 2
 403 107 l 1
 455 55 l 1
 419 4 l 1
 315 4 211 -15 107 -15 c 0
 71 -15 32 7 32 47 c 2
 32 55 l 1
 90 125 108 218 145 299 c 0
 287 614 376 886 376 1236 c 0
 376 1305 372 1492 278 1500 c 1
 222 1470 248 1327 172 1327 c 0
 134 1327 122 1357 122 1390 c 0
 122 1465 162 1586 254 1586 c 1
EndSplineSet
EndChar

StartChar: threesuperior
Encoding: 179 179 284
Width: 545
Flags: HW
LayerCount: 2
Fore
SplineSet
28 1416 m 1
 26 1416 l 1
 60 1501 129 1573 226 1573 c 0
 267 1573 305 1551 332 1522 c 1
 401 1521 431 1184 431 1124 c 0
 431 1040 382 993 339 927 c 1
 477 844 510 509 510 361 c 0
 510 213 497 -20 298 -20 c 0
 241 -20 147 5 147 76 c 2
 147 89 l 1
 181 110 l 1
 223 104 249 88 282 64 c 1
 397 69 407 207 407 294 c 0
 407 482 405 694 282 849 c 1
 278 848 274 848 269 848 c 0
 249 848 227 857 209 865 c 1
 209 878 l 1
 198 889 l 1
 199 950 329 1016 329 1150 c 0
 329 1216 315 1477 222 1477 c 0
 146 1477 170 1360 87 1360 c 0
 55 1360 33 1387 28 1416 c 1
EndSplineSet
EndChar

StartChar: foursuperior
Encoding: 8308 8308 285
Width: 480
Flags: HW
LayerCount: 2
Fore
SplineSet
133 480 m 1
 132 479 l 1
 101 479 76 493 52 512 c 1
 52 539 54 565 61 591 c 1
 54 628 52 666 52 706 c 0
 52 844 83 991 83 1124 c 2
 83 1442 l 2
 83 1461 77 1484 77 1503 c 0
 77 1525 85 1543 122 1543 c 0
 151 1543 183 1524 183 1492 c 0
 183 1440 174 1386 174 1333 c 0
 174 1308 176 1283 182 1259 c 1
 177 1252 l 1
 181 1216 183 1179 183 1143 c 0
 183 969 154 796 154 622 c 0
 154 607 155 591 157 576 c 1
 182 577 207 581 232 587 c 1
 231 725 226 863 218 1000 c 0
 215 1054 201 1106 201 1160 c 0
 201 1191 238 1206 264 1206 c 2
 274 1206 l 1
 306 1170 l 1
 306 979 303 785 332 596 c 1
 347 597 369 601 391 601 c 0
 422 601 452 593 452 557 c 0
 452 513 421 507 385 507 c 2
 370 507 l 2
 355 507 337 505 337 489 c 0
 337 436 343 190 358 155 c 1
 356 143 354 130 354 117 c 0
 354 103 356 89 364 76 c 1
 358 50 l 1
 363 39 l 1
 363 9 353 -38 315 -38 c 0
 269 -38 254 23 254 59 c 1
 250 66 l 1
 257 90 261 115 261 140 c 0
 261 207 246 272 246 339 c 0
 246 369 248 398 248 428 c 0
 248 449 247 470 244 491 c 1
 207 489 170 480 133 480 c 1
EndSplineSet
EndChar

StartChar: questiondown
Encoding: 191 191 286
Width: 1125
Flags: HW
LayerCount: 2
Fore
SplineSet
545 1525 m 0
 455 1525 437 1475 437 1407 c 0
 437 1364 445 1312 445 1263 c 0
 445 1175 446 1086 468 1000 c 1
 589 1049 653 1142 653 1272 c 0
 653 1347 655 1525 545 1525 c 0
853 199 m 0
 853 175 819 143 796 143 c 0
 674 143 572 797 526 914 c 1
 471 891 l 1
 469 859 466 828 466 796 c 0
 466 600 511 406 511 210 c 0
 511 174 495 143 455 143 c 0
 419 143 382 169 382 208 c 0
 382 295 383 383 374 470 c 0
 367 539 348 606 348 676 c 2
 348 1075 l 2
 348 1202 323 1327 323 1454 c 0
 323 1603 405 1635 539 1635 c 0
 746 1635 775 1433 775 1270 c 0
 775 1023 645 1007 634 969 c 1
 637 888 782 425 816 314 c 1
 823 314 l 1
 823 271 853 239 853 199 c 0
958 706 m 0
 958 1023 941 1354 832 1655 c 1
 846 1670 l 1
 809 1727 674 1832 605 1832 c 0
 203 1832 180 1241 180 954 c 0
 180 747 182 179 320 27 c 0
 356 -13 402 -31 443 -64 c 1
 503 -76 l 1
 522 -84 l 1
 939 -79 958 396 958 706 c 0
594 -190 m 0
 87 -190 62 366 62 765 c 0
 62 1072 14 1938 590 1938 c 0
 715 1938 829 1851 900 1755 c 1
 1024 1679 1072 968 1072 807 c 0
 1072 470 1071 -190 594 -190 c 0
EndSplineSet
EndChar

StartChar: plusminus
Encoding: 177 177 287
Width: 684
Flags: HW
LayerCount: 2
Fore
SplineSet
271 385 m 0
 271 451 277 518 277 584 c 1
 258 599 l 1
 230 599 184 590 144 590 c 0
 97 590 57 602 57 655 c 0
 57 682 74 708 103 708 c 0
 143 708 184 701 224 701 c 0
 240 701 255 702 271 705 c 1
 269 755 259 805 259 855 c 0
 259 900 266 968 325 968 c 0
 357 968 385 942 385 909 c 2
 385 904 l 1
 377 884 l 1
 378 853 377 701 404 701 c 0
 429 701 477 709 523 709 c 0
 578 709 629 697 629 647 c 0
 629 615 603 591 571 591 c 0
 530 591 491 602 450 602 c 0
 416 602 385 593 385 553 c 0
 385 498 404 444 404 389 c 0
 404 353 369 333 337 333 c 0
 308 333 271 352 271 385 c 0
57 200 m 0
 57 228 75 246 103 246 c 2
 404 246 l 2
 446 246 488 253 530 253 c 0
 572 253 629 246 629 192 c 0
 629 158 601 145 571 145 c 0
 427 145 282 135 139 135 c 0
 94 135 57 149 57 200 c 0
EndSplineSet
EndChar

StartChar: minus
Encoding: 8722 8722 288
Width: 684
Flags: HW
LayerCount: 2
Fore
SplineSet
57 655 m 0
 57 683 75 701 103 701 c 2
 404 701 l 2
 446 701 488 708 530 708 c 0
 572 708 629 701 629 647 c 0
 629 613 601 600 571 600 c 0
 427 600 282 590 139 590 c 0
 94 590 57 604 57 655 c 0
EndSplineSet
EndChar

StartChar: uni0111
Encoding: 273 273 300
Width: 610
Flags: HW
LayerCount: 2
Fore
SplineSet
208 141 m 1
 207 113 l 1
 216 92 l 1
 250 92 l 1
 415 270 438 374 438 612 c 0
 438 784 432 1231 200 1258 c 1
 187 1188 185 1116 185 1045 c 0
 185 743 208 443 208 141 c 1
555 622 m 1
 556 622 l 1
 504 355 560 136 273 -12 c 1
 125 -12 l 2
 75 -12 73 190 73 256 c 0
 73 471 79 686 79 901 c 0
 79 1013 77 1125 72 1237 c 1
 60 1251 55 1268 55 1286 c 0
 55 1322 93 1353 127 1353 c 0
 152 1353 176 1337 189 1317 c 1
 220 1304 255 1307 286 1294 c 0
 353 1266 397 1201 456 1161 c 1
 450 1148 l 1
 525 1011 546 967 546 808 c 0
 546 778 542 741 542 705 c 0
 542 675 545 645 555 622 c 1
EndSplineSet
EndChar

StartChar: exclamdown
Encoding: 161 161 310
Width: 286
Flags: HW
LayerCount: 2
Fore
SplineSet
88 27 m 0
 88 251 98 475 98 699 c 0
 98 806 90 924 90 1038 c 0
 90 1101 92 1163 100 1222 c 1
 191 1222 l 1
 170 1186 l 1
 181 1150 184 1112 184 1074 c 0
 184 714 225 357 225 -2 c 0
 225 -30 203 -52 175 -52 c 0
 133 -52 88 -17 88 27 c 0
126 1395 m 0
 82 1395 41 1438 41 1481 c 2
 41 1487 l 1
 56 1518 80 1549 115 1558 c 1
 119 1572 l 1
 168 1569 210 1549 210 1494 c 0
 210 1443 181 1395 126 1395 c 0
EndSplineSet
EndChar

StartChar: divide
Encoding: 247 247 311
Width: 684
Flags: HW
LayerCount: 2
Fore
SplineSet
57 655 m 0
 57 683 75 701 103 701 c 2
 404 701 l 2
 446 701 488 708 530 708 c 0
 572 708 629 701 629 647 c 0
 629 613 601 600 571 600 c 0
 427 600 282 590 139 590 c 0
 94 590 57 604 57 655 c 0
342 789 m 0
 303 789 267 823 267 862 c 0
 267 899 304 930 340 930 c 0
 382 930 411 893 411 853 c 0
 411 817 377 789 342 789 c 0
411 428 m 0
 411 389 380 369 344 369 c 0
 304 369 270 398 270 439 c 0
 270 477 300 510 339 510 c 0
 381 510 411 467 411 428 c 0
EndSplineSet
EndChar

StartChar: dotlessi
Encoding: 305 305 312
Width: 499
Flags: HMW
HStem: 23 105<322 329.5 322 340.5> 1252 104
VStem: 190 108
LayerCount: 2
Fore
SplineSet
298 184 m 1
 296 185 l 1
 296 166 295 147 306 131 c 1
 322 128 l 1
 337 128 358 130 381 130 c 0
 422 130 465 122 465 79 c 0
 465 43 432 16 397 16 c 0
 374 16 352 23 329 23 c 0
 313 23 288 0 251 0 c 0
 229 0 205 4 188 20 c 1
 180 19 171 18 163 18 c 0
 132 18 102 26 87 55 c 1
 87 78 98 100 119 110 c 1
 126 118 l 1
 184 118 l 1
 185 127 188 136 188 145 c 0
 188 290 174 435 174 580 c 0
 174 732 185 884 185 1036 c 0
 185 1109 182 1182 175 1254 c 1
 136 1256 l 2
 121 1257 105 1254 89 1254 c 0
 55 1254 25 1262 25 1309 c 0
 25 1360 108 1356 143 1356 c 0
 199 1356 406 1355 406 1273 c 0
 406 1263 398 1244 394 1235 c 1
 324 1230 l 1
 289 1242 l 1
 295 1186 297 1129 297 1072 c 0
 297 942 286 811 286 681 c 0
 286 536 301 391 301 246 c 1
 298 184 l 1
EndSplineSet
EndChar

StartChar: dotaccent
Encoding: 729 729 313
Width: 295
Flags: HW
LayerCount: 2
Fore
SplineSet
74 1463 m 0
 74 1504 110 1542 151 1542 c 0
 190 1542 224 1503 224 1465 c 0
 224 1418 188 1390 143 1390 c 0
 105 1390 74 1426 74 1463 c 0
EndSplineSet
EndChar

StartChar: dotaccentcmb
Encoding: 775 775 314
Width: 295
Flags: HW
LayerCount: 2
Fore
SplineSet
74 1463 m 0
 74 1504 110 1542 151 1542 c 0
 190 1542 224 1503 224 1465 c 0
 224 1418 188 1390 143 1390 c 0
 105 1390 74 1426 74 1463 c 0
EndSplineSet
EndChar

StartChar: greater
Encoding: 62 62 315
Width: 523
Flags: HW
LayerCount: 2
Fore
SplineSet
130 -19 m 1
 126 -19 l 2
 113 -19 101 -23 88 -23 c 0
 51 -23 35 19 34 49 c 1
 59 69 l 1
 95 136 369 680 369 702 c 0
 369 908 114 1202 112 1411 c 1
 157 1446 l 1
 167 1444 l 1
 241 1410 243 1324 263 1255 c 0
 301 1123 484 803 487 698 c 1
 130 -19 l 1
EndSplineSet
EndChar

StartChar: less
Encoding: 60 60 316
Width: 524
Flags: HW
LayerCount: 2
Fore
SplineSet
491 49 m 1
 489 19 474 -22 437 -22 c 0
 422 -22 408 -19 393 -18 c 1
 252 197 149 465 37 698 c 1
 40 798 223 1125 261 1255 c 0
 272 1293 299 1447 360 1447 c 0
 362 1447 364 1446 367 1446 c 1
 412 1411 l 1
 385 1193 154 869 154 702 c 0
 154 679 428 135 465 69 c 1
 491 49 l 1
EndSplineSet
EndChar

StartChar: section
Encoding: 167 167 317
Width: 445
Flags: HW
LayerCount: 2
Fore
SplineSet
395 634 m 0
 395 566 363 502 306 465 c 1
 348 399 380 326 380 246 c 0
 380 139 318 1 195 1 c 0
 151 1 94 33 94 82 c 0
 94 109 121 121 144 121 c 0
 158 121 175 116 187 109 c 1
 249 110 280 206 280 257 c 0
 280 457 35 550 35 820 c 0
 35 895 65 972 126 1018 c 1
 87 1099 68 1186 68 1275 c 0
 68 1385 123 1443 235 1443 c 0
 262 1443 336 1430 336 1392 c 0
 336 1308 150 1405 150 1277 c 0
 150 1046 395 943 395 634 c 0
295 649 m 0
 295 754 233 840 179 925 c 1
 151 890 135 840 135 795 c 0
 135 701 192 622 246 549 c 1
 274 573 295 612 295 649 c 0
EndSplineSet
EndChar

StartChar: uni030F
Encoding: 783 783 318
Width: 1183
Flags: HW
LayerCount: 2
Fore
SplineSet
510 364 m 0
 510 402 544 430 580 430 c 0
 649 430 1122 77 1132 13 c 1
 1099 -28 l 1
 1025 -16 957 67 907 69 c 1
 839 110 510 295 510 364 c 0
734 -19 m 1
 526 106 302 259 77 346 c 1
 58 380 l 1
 69 420 105 460 150 460 c 0
 228 460 784 92 784 40 c 0
 784 9 768 -19 734 -19 c 1
EndSplineSet
EndChar

StartChar: uni0311
Encoding: 785 785 319
Width: 482
Flags: HW
LayerCount: 2
Fore
SplineSet
412 978 m 1
 409.172944082 973.493722585 408.841398473 966.491934861 407 961 c 1
 409 954 416 934 416 928 c 0
 416 899 390 876 362 876 c 0
 311 876 304 910 304 953 c 0
 304 975 284 1047 257 1047 c 2
 214 1047 l 1
 158 1008 176 867 105 867 c 1
 67 899 l 1
 67 1010 106 1142 240 1142 c 0
 349 1142 375 1064 412 978 c 1
EndSplineSet
EndChar

StartChar: uni0326
Encoding: 806 806 320
Width: 376
Flags: HW
LayerCount: 2
Fore
SplineSet
58 -533 m 1
 68 -488 l 1
 102 -454 162 -412 172 -362 c 1
 139 -338 113 -303 113 -261 c 0
 113 -209 166 -174 214 -174 c 0
 268 -174 291 -215 308 -260 c 1
 304 -267 l 1
 304 -271 305 -276 305 -281 c 0
 305 -373 214 -560 119 -560 c 2
 113 -560 l 1
 58 -533 l 1
EndSplineSet
EndChar

StartChar: equal
Encoding: 61 61 321
Width: 684
Flags: HW
LayerCount: 2
Fore
SplineSet
274 680 m 2
 297 680 352 683 410 683 c 0
 508 683 619 674 619 626 c 0
 619 597 599 579 571 579 c 0
 427 579 283 589 139 589 c 0
 108 589 57 592 57 634 c 0
 57 662 75 680 103 680 c 2
 274 680 l 2
404 872 m 2
 417 872 442 873 470 873 c 0
 539 873 629 866 629 818 c 0
 629 774 515 764 413 764 c 0
 334 764 261 770 258 770 c 0
 240 770 210 767 180 767 c 0
 121 767 57 776 57 826 c 0
 57 854 75 872 103 872 c 2
 404 872 l 2
EndSplineSet
EndChar

StartChar: emdash
Encoding: 8212 8212 322
Width: 684
Flags: HW
LayerCount: 2
Fore
SplineSet
404 779 m 2
 426 779 488 782 556 782 c 0
 667 782 795 773 795 725 c 0
 795 683 710 673 623 673 c 0
 550 673 477 680 450 680 c 2
 82 677 l 2
 64 677 35 674 4 674 c 0
 -55 674 -119 683 -119 733 c 0
 -119 761 -101 779 -73 779 c 2
 404 779 l 2
EndSplineSet
EndChar

StartChar: endash
Encoding: 8211 8211 323
Width: 684
Flags: HW
LayerCount: 2
Fore
SplineSet
274 737 m 2
 303 737 383 741 469 741 c 0
 602 741 750 731 750 683 c 0
 750 654 730 636 702 636 c 0
 514 636 327 646 139 646 c 0
 108 646 57 649 57 691 c 0
 57 719 75 737 103 737 c 2
 274 737 l 2
EndSplineSet
EndChar

StartChar: foundryicon
Encoding: 65543 -1 324
Width: 1251
Flags: HW
LayerCount: 2
Fore
SplineSet
604 375 m 2
 592 375 l 1
 541 332 449 260 397 221 c 1
 373 201 293 115 266 115 c 0
 248 115 231 119 231 141 c 0
 231 160 240 168 246 186 c 1
 270 297 324 418 354 516 c 1
 354 516 356 518 356 520 c 1
 354 522 l 1
 295 604 213 668 137 735 c 0
 104 764 18 791 18 840 c 0
 18 860 33 870 57 870 c 0
 68 870 197 848 279 848 c 1
 469 840 l 1
 563 1075 l 1
 594 1122 608 1235 666 1235 c 0
 684 1235 715 1206 715 1188 c 0
 715 1110 750 971 768 895 c 1
 778 848 l 1
 836 844 909 842 981 842 c 0
 1051 842 1110 848 1171 848 c 0
 1198 848 1225 838 1225 807 c 0
 1225 793 1147 750 1128 735 c 1
 1055 668 983 573 893 528 c 2
 881 522 l 1
 881 510 l 2
 881 457 909 389 922 344 c 1
 930 342 975 135 975 106 c 0
 975 86 963 72 942 72 c 0
 889 72 723 375 604 375 c 2
EndSplineSet
EndChar

StartChar: quotesingle
Encoding: 39 39 325
Width: 359
Flags: HW
LayerCount: 2
Fore
SplineSet
175 1193 m 2
 162 1193 146 1435 146 1531 c 0
 146 1559 179 1578 207 1578 c 0
 237 1578 252 1556 261 1531 c 1
 256 1525 l 1
 256 1521 257 1514 257 1511 c 0
 257 1407 222 1193 182 1193 c 2
 175 1193 l 2
EndSplineSet
EndChar

StartChar: quotedbl
Encoding: 34 34 326
Width: 359
Flags: HW
LayerCount: 2
Fore
SplineSet
-31 1193 m 2
 -35 1193 -40 1435 -40 1531 c 0
 -40 1559 -17 1578 1 1578 c 0
 31 1578 46 1556 50 1525 c 0
 50 1521 51 1514 51 1511 c 0
 51 1407 16 1193 -24 1193 c 2
 -31 1193 l 2
175 1193 m 2
 162 1193 146 1435 146 1531 c 0
 146 1559 179 1578 207 1578 c 0
 226 1578 236 1556 241 1531 c 1
 238 1433 215 1193 182 1193 c 2
 175 1193 l 2
EndSplineSet
EndChar

StartChar: uni00AD
Encoding: 173 173 327
Width: 587
Flags: HW
LayerCount: 2
Fore
SplineSet
516 739 m 0
 516 666 199 656 141 656 c 0
 108 656 74 680 74 715 c 0
 74 787 391 798 448 798 c 0
 481 798 516 775 516 739 c 0
EndSplineSet
EndChar

StartChar: degree
Encoding: 176 176 328
Width: 828
Flags: HW
LayerCount: 2
Fore
SplineSet
408 901 m 0
 278 901 243 773 243 665 c 0
 243 607 317 515 407 515 c 0
 589 515 624 668 624 729 c 0
 624 792 582 901 408 901 c 0
166 731 m 0
 166 867 257 970 398 970 c 0
 635 970 692 821 692 733 c 0
 692 649 644 438 399 438 c 0
 208 438 166 617 166 731 c 0
EndSplineSet
EndChar

StartChar: bullet
Encoding: 8226 8226 329
Width: 828
Flags: HW
LayerCount: 2
Fore
SplineSet
212 727 m 0
 212 814 251 878 281 920 c 1
 294 947 378 1011 408 1011 c 0
 598 1011 644 866 644 779 c 0
 644 694 607 485 417 485 c 0
 303 485 213 595 213 665 c 0
 213 687 212 705 212 727 c 0
EndSplineSet
EndChar

StartChar: dotlessj
Encoding: 567 567 330
Width: 520
Flags: HW
LayerCount: 2
Fore
SplineSet
352 158 m 1
 276 33 364 -254 106 -254 c 2
 82 -254 l 1
 21 -193 l 1
 19 -174 l 1
 19 -133 146 -64 181 -46 c 1
 227 8 240 117 240 187 c 0
 240 536 222 884 222 1233 c 1
 217 1242 l 1
 175 1247 60 1252 60 1312 c 0
 60 1342 103 1359 127 1359 c 0
 187 1359 492 1327 492 1253 c 0
 492 1222 464 1205 436 1205 c 0
 401 1205 367 1219 332 1225 c 1
 331 1208 l 1
 331 933 352 657 352 382 c 2
 352 158 l 1
EndSplineSet
EndChar

StartChar: commaaccent
Encoding: 65544 -1 331
Width: 376
Flags: HW
LayerCount: 2
Fore
SplineSet
58 -474 m 1
 68 -429 l 1
 102 -395 162 -353 172 -303 c 1
 139 -279 113 -244 113 -202 c 0
 113 -150 166 -115 214 -115 c 0
 268 -115 291 -156 308 -201 c 1
 304 -208 l 1
 304 -212 305 -217 305 -222 c 0
 305 -314 214 -501 119 -501 c 2
 113 -501 l 1
 58 -474 l 1
EndSplineSet
EndChar

